<mxfile host="app.diagrams.net" modified="2021-03-13T14:27:20.998Z" agent="5.0 (Macintosh; Intel Mac OS X 11_1_0) AppleWebKit/537.36 (KHTML, like Gecko) Chrome/88.0.4324.192 Safari/537.36" etag="HNjMiGnp2U1aE-o3kt7w" version="14.4.8" type="github">
  <diagram id="a957_D7KGrxGR8AOjtdH" name="Page-1">
    <mxGraphModel dx="1577" dy="928" grid="1" gridSize="10" guides="1" tooltips="1" connect="1" arrows="1" fold="1" page="1" pageScale="1" pageWidth="827" pageHeight="1169" math="0" shadow="0">
      <root>
        <mxCell id="0" />
        <mxCell id="1" parent="0" />
        <mxCell id="eUHkU5DuMBoQhbZaylSi-168" value="" style="group" vertex="1" connectable="0" parent="1">
          <mxGeometry x="341" y="509" width="582" height="116" as="geometry" />
        </mxCell>
        <mxCell id="eUHkU5DuMBoQhbZaylSi-155" value="" style="group" vertex="1" connectable="0" parent="eUHkU5DuMBoQhbZaylSi-168">
          <mxGeometry x="99" y="6" width="292" height="91" as="geometry" />
        </mxCell>
        <mxCell id="eUHkU5DuMBoQhbZaylSi-161" value="" style="shape=cube;whiteSpace=wrap;html=1;boundedLbl=1;backgroundOutline=1;darkOpacity=0.05;darkOpacity2=0.1;shadow=0;sketch=0;fillWeight=-7;hachureAngle=45;curveFitting=10.95;sketchStyle=rough;strokeColor=#82b366;strokeWidth=1;fillColor=#d5e8d4;size=10;" vertex="1" parent="eUHkU5DuMBoQhbZaylSi-155">
          <mxGeometry x="130" y="76" width="30" height="30" as="geometry" />
        </mxCell>
        <mxCell id="eUHkU5DuMBoQhbZaylSi-162" value="..." style="text;html=1;strokeColor=none;fillColor=none;align=center;verticalAlign=middle;whiteSpace=wrap;rounded=0;shadow=0;sketch=0;fillWeight=-7;hachureAngle=45;curveFitting=10.95;sketchStyle=rough;" vertex="1" parent="eUHkU5DuMBoQhbZaylSi-155">
          <mxGeometry x="160" y="81" width="40" height="20" as="geometry" />
        </mxCell>
        <mxCell id="eUHkU5DuMBoQhbZaylSi-165" value="" style="shape=cube;whiteSpace=wrap;html=1;boundedLbl=1;backgroundOutline=1;darkOpacity=0.05;darkOpacity2=0.1;shadow=0;sketch=0;fillWeight=-7;hachureAngle=45;curveFitting=10.95;sketchStyle=rough;strokeColor=#82b366;strokeWidth=1;fillColor=#d5e8d4;size=10;" vertex="1" parent="eUHkU5DuMBoQhbZaylSi-155">
          <mxGeometry x="262" y="76" width="30" height="30" as="geometry" />
        </mxCell>
        <mxCell id="eUHkU5DuMBoQhbZaylSi-166" value="" style="strokeWidth=2;html=1;shape=mxgraph.flowchart.annotation_2;align=left;labelPosition=right;pointerEvents=1;shadow=0;sketch=0;fillWeight=-7;hachureAngle=45;curveFitting=10.95;sketchStyle=rough;fillColor=none;gradientColor=none;rotation=90;" vertex="1" parent="eUHkU5DuMBoQhbZaylSi-155">
          <mxGeometry x="130" y="-83" width="20" height="280" as="geometry" />
        </mxCell>
        <mxCell id="eUHkU5DuMBoQhbZaylSi-167" value="7x7 Sequence" style="text;html=1;strokeColor=none;fillColor=none;align=center;verticalAlign=middle;whiteSpace=wrap;rounded=0;shadow=0;sketch=0;fillWeight=-7;hachureAngle=45;curveFitting=10.95;sketchStyle=rough;" vertex="1" parent="eUHkU5DuMBoQhbZaylSi-155">
          <mxGeometry x="80" y="21" width="120" height="20" as="geometry" />
        </mxCell>
        <mxCell id="eUHkU5DuMBoQhbZaylSi-164" value="" style="shape=cube;whiteSpace=wrap;html=1;boundedLbl=1;backgroundOutline=1;darkOpacity=0.05;darkOpacity2=0.1;shadow=0;sketch=0;fillWeight=-7;hachureAngle=45;curveFitting=10.95;sketchStyle=rough;strokeColor=#82b366;strokeWidth=1;fillColor=#d5e8d4;size=10;" vertex="1" parent="eUHkU5DuMBoQhbZaylSi-155">
          <mxGeometry x="236" y="76" width="30" height="30" as="geometry" />
        </mxCell>
        <mxCell id="eUHkU5DuMBoQhbZaylSi-163" value="" style="shape=cube;whiteSpace=wrap;html=1;boundedLbl=1;backgroundOutline=1;darkOpacity=0.05;darkOpacity2=0.1;shadow=0;sketch=0;fillWeight=-7;hachureAngle=45;curveFitting=10.95;sketchStyle=rough;strokeColor=#82b366;strokeWidth=1;fillColor=#d5e8d4;size=10;" vertex="1" parent="eUHkU5DuMBoQhbZaylSi-155">
          <mxGeometry x="210" y="76" width="30" height="30" as="geometry" />
        </mxCell>
        <mxCell id="eUHkU5DuMBoQhbZaylSi-160" value="" style="shape=cube;whiteSpace=wrap;html=1;boundedLbl=1;backgroundOutline=1;darkOpacity=0.05;darkOpacity2=0.1;shadow=0;sketch=0;fillWeight=-7;hachureAngle=45;curveFitting=10.95;sketchStyle=rough;strokeColor=#82b366;strokeWidth=1;fillColor=#d5e8d4;size=10;" vertex="1" parent="eUHkU5DuMBoQhbZaylSi-155">
          <mxGeometry x="104" y="76" width="30" height="30" as="geometry" />
        </mxCell>
        <mxCell id="eUHkU5DuMBoQhbZaylSi-159" value="" style="shape=cube;whiteSpace=wrap;html=1;boundedLbl=1;backgroundOutline=1;darkOpacity=0.05;darkOpacity2=0.1;shadow=0;sketch=0;fillWeight=-7;hachureAngle=45;curveFitting=10.95;sketchStyle=rough;strokeColor=#82b366;strokeWidth=1;fillColor=#d5e8d4;size=10;" vertex="1" parent="eUHkU5DuMBoQhbZaylSi-155">
          <mxGeometry x="78" y="76" width="30" height="30" as="geometry" />
        </mxCell>
        <mxCell id="eUHkU5DuMBoQhbZaylSi-158" value="" style="shape=cube;whiteSpace=wrap;html=1;boundedLbl=1;backgroundOutline=1;darkOpacity=0.05;darkOpacity2=0.1;shadow=0;sketch=0;fillWeight=-7;hachureAngle=45;curveFitting=10.95;sketchStyle=rough;strokeColor=#82b366;strokeWidth=1;fillColor=#d5e8d4;size=10;" vertex="1" parent="eUHkU5DuMBoQhbZaylSi-155">
          <mxGeometry x="50" y="76" width="32" height="32" as="geometry" />
        </mxCell>
        <mxCell id="eUHkU5DuMBoQhbZaylSi-157" value="" style="shape=cube;whiteSpace=wrap;html=1;boundedLbl=1;backgroundOutline=1;darkOpacity=0.05;darkOpacity2=0.1;shadow=0;sketch=0;fillWeight=-7;hachureAngle=45;curveFitting=10.95;sketchStyle=rough;strokeColor=#82b366;strokeWidth=1;fillColor=#d5e8d4;size=10;" vertex="1" parent="eUHkU5DuMBoQhbZaylSi-155">
          <mxGeometry x="26" y="76" width="30" height="30" as="geometry" />
        </mxCell>
        <mxCell id="eUHkU5DuMBoQhbZaylSi-156" value="" style="shape=cube;whiteSpace=wrap;html=1;boundedLbl=1;backgroundOutline=1;darkOpacity=0.05;darkOpacity2=0.1;shadow=0;sketch=0;fillWeight=-7;hachureAngle=45;curveFitting=10.95;sketchStyle=rough;strokeColor=#82b366;strokeWidth=1;fillColor=#d5e8d4;size=10;" vertex="1" parent="eUHkU5DuMBoQhbZaylSi-155">
          <mxGeometry y="76" width="30" height="30" as="geometry" />
        </mxCell>
        <mxCell id="eUHkU5DuMBoQhbZaylSi-256" value="" style="shape=flexArrow;endArrow=classic;html=1;strokeColor=#9673a6;strokeWidth=2;fillColor=#e1d5e7;" edge="1" parent="eUHkU5DuMBoQhbZaylSi-168">
          <mxGeometry width="50" height="50" relative="1" as="geometry">
            <mxPoint x="237" y="23" as="sourcePoint" />
            <mxPoint x="237.40999999999997" y="-15" as="targetPoint" />
          </mxGeometry>
        </mxCell>
        <mxCell id="eUHkU5DuMBoQhbZaylSi-216" value="" style="group" vertex="1" connectable="0" parent="1">
          <mxGeometry x="440" y="820" width="292" height="89" as="geometry" />
        </mxCell>
        <mxCell id="eUHkU5DuMBoQhbZaylSi-217" value="" style="shape=cube;whiteSpace=wrap;html=1;boundedLbl=1;backgroundOutline=1;darkOpacity=0.05;darkOpacity2=0.1;shadow=0;sketch=0;fillWeight=-7;hachureAngle=45;curveFitting=10.95;sketchStyle=rough;strokeColor=#6c8ebf;strokeWidth=1;fillColor=#dae8fc;size=10;" vertex="1" parent="eUHkU5DuMBoQhbZaylSi-216">
          <mxGeometry x="130" y="59" width="30" height="30" as="geometry" />
        </mxCell>
        <mxCell id="eUHkU5DuMBoQhbZaylSi-218" value="..." style="text;html=1;strokeColor=none;fillColor=none;align=center;verticalAlign=middle;whiteSpace=wrap;rounded=0;shadow=0;sketch=0;fillWeight=-7;hachureAngle=45;curveFitting=10.95;sketchStyle=rough;" vertex="1" parent="eUHkU5DuMBoQhbZaylSi-216">
          <mxGeometry x="160" y="64" width="40" height="20" as="geometry" />
        </mxCell>
        <mxCell id="eUHkU5DuMBoQhbZaylSi-219" value="" style="shape=cube;whiteSpace=wrap;html=1;boundedLbl=1;backgroundOutline=1;darkOpacity=0.05;darkOpacity2=0.1;shadow=0;sketch=0;fillWeight=-7;hachureAngle=45;curveFitting=10.95;sketchStyle=rough;strokeColor=#6c8ebf;strokeWidth=1;fillColor=#dae8fc;size=10;" vertex="1" parent="eUHkU5DuMBoQhbZaylSi-216">
          <mxGeometry x="262" y="59" width="30" height="30" as="geometry" />
        </mxCell>
        <mxCell id="eUHkU5DuMBoQhbZaylSi-220" value="" style="strokeWidth=2;html=1;shape=mxgraph.flowchart.annotation_2;align=left;labelPosition=right;pointerEvents=1;shadow=0;sketch=0;fillWeight=-7;hachureAngle=45;curveFitting=10.95;sketchStyle=rough;fillColor=none;gradientColor=none;rotation=90;" vertex="1" parent="eUHkU5DuMBoQhbZaylSi-216">
          <mxGeometry x="130" y="-100" width="20" height="280" as="geometry" />
        </mxCell>
        <mxCell id="eUHkU5DuMBoQhbZaylSi-221" value="7x7 Sequence" style="text;html=1;strokeColor=none;fillColor=none;align=center;verticalAlign=middle;whiteSpace=wrap;rounded=0;shadow=0;sketch=0;fillWeight=-7;hachureAngle=45;curveFitting=10.95;sketchStyle=rough;" vertex="1" parent="eUHkU5DuMBoQhbZaylSi-216">
          <mxGeometry x="80" y="5" width="120" height="20" as="geometry" />
        </mxCell>
        <mxCell id="eUHkU5DuMBoQhbZaylSi-222" value="" style="shape=cube;whiteSpace=wrap;html=1;boundedLbl=1;backgroundOutline=1;darkOpacity=0.05;darkOpacity2=0.1;shadow=0;sketch=0;fillWeight=-7;hachureAngle=45;curveFitting=10.95;sketchStyle=rough;strokeColor=#6c8ebf;strokeWidth=1;fillColor=#dae8fc;size=10;" vertex="1" parent="eUHkU5DuMBoQhbZaylSi-216">
          <mxGeometry x="236" y="59" width="30" height="30" as="geometry" />
        </mxCell>
        <mxCell id="eUHkU5DuMBoQhbZaylSi-223" value="" style="shape=cube;whiteSpace=wrap;html=1;boundedLbl=1;backgroundOutline=1;darkOpacity=0.05;darkOpacity2=0.1;shadow=0;sketch=0;fillWeight=-7;hachureAngle=45;curveFitting=10.95;sketchStyle=rough;strokeColor=#6c8ebf;strokeWidth=1;fillColor=#dae8fc;size=10;" vertex="1" parent="eUHkU5DuMBoQhbZaylSi-216">
          <mxGeometry x="210" y="59" width="30" height="30" as="geometry" />
        </mxCell>
        <mxCell id="eUHkU5DuMBoQhbZaylSi-224" value="" style="shape=cube;whiteSpace=wrap;html=1;boundedLbl=1;backgroundOutline=1;darkOpacity=0.05;darkOpacity2=0.1;shadow=0;sketch=0;fillWeight=-7;hachureAngle=45;curveFitting=10.95;sketchStyle=rough;strokeColor=#6c8ebf;strokeWidth=1;fillColor=#dae8fc;size=10;" vertex="1" parent="eUHkU5DuMBoQhbZaylSi-216">
          <mxGeometry x="104" y="59" width="30" height="30" as="geometry" />
        </mxCell>
        <mxCell id="eUHkU5DuMBoQhbZaylSi-225" value="" style="shape=cube;whiteSpace=wrap;html=1;boundedLbl=1;backgroundOutline=1;darkOpacity=0.05;darkOpacity2=0.1;shadow=0;sketch=0;fillWeight=-7;hachureAngle=45;curveFitting=10.95;sketchStyle=rough;strokeColor=#6c8ebf;strokeWidth=1;fillColor=#dae8fc;size=10;" vertex="1" parent="eUHkU5DuMBoQhbZaylSi-216">
          <mxGeometry x="78" y="59" width="30" height="30" as="geometry" />
        </mxCell>
        <mxCell id="eUHkU5DuMBoQhbZaylSi-226" value="" style="shape=cube;whiteSpace=wrap;html=1;boundedLbl=1;backgroundOutline=1;darkOpacity=0.05;darkOpacity2=0.1;shadow=0;sketch=0;fillWeight=-7;hachureAngle=45;curveFitting=10.95;sketchStyle=rough;strokeColor=#6c8ebf;strokeWidth=1;fillColor=#dae8fc;size=10;" vertex="1" parent="eUHkU5DuMBoQhbZaylSi-216">
          <mxGeometry x="52" y="59" width="30" height="30" as="geometry" />
        </mxCell>
        <mxCell id="eUHkU5DuMBoQhbZaylSi-227" value="" style="shape=cube;whiteSpace=wrap;html=1;boundedLbl=1;backgroundOutline=1;darkOpacity=0.05;darkOpacity2=0.1;shadow=0;sketch=0;fillWeight=-7;hachureAngle=45;curveFitting=10.95;sketchStyle=rough;strokeColor=#6c8ebf;strokeWidth=1;fillColor=#dae8fc;size=10;" vertex="1" parent="eUHkU5DuMBoQhbZaylSi-216">
          <mxGeometry x="26" y="59" width="30" height="30" as="geometry" />
        </mxCell>
        <mxCell id="eUHkU5DuMBoQhbZaylSi-228" value="" style="shape=cube;whiteSpace=wrap;html=1;boundedLbl=1;backgroundOutline=1;darkOpacity=0.05;darkOpacity2=0.1;shadow=0;sketch=0;fillWeight=-7;hachureAngle=45;curveFitting=10.95;sketchStyle=rough;strokeColor=#6c8ebf;strokeWidth=1;fillColor=#dae8fc;size=10;" vertex="1" parent="eUHkU5DuMBoQhbZaylSi-216">
          <mxGeometry y="59" width="30" height="30" as="geometry" />
        </mxCell>
        <mxCell id="eUHkU5DuMBoQhbZaylSi-229" value="" style="shape=cube;whiteSpace=wrap;html=1;boundedLbl=1;backgroundOutline=1;darkOpacity=0.05;darkOpacity2=0.1;shadow=0;sketch=0;fillWeight=-7;hachureAngle=45;curveFitting=10.95;sketchStyle=rough;strokeColor=#ae4132;strokeWidth=1;fillColor=#fad9d5;size=10;" vertex="1" parent="eUHkU5DuMBoQhbZaylSi-216">
          <mxGeometry y="53" width="30" height="10" as="geometry" />
        </mxCell>
        <mxCell id="eUHkU5DuMBoQhbZaylSi-230" value="" style="shape=cube;whiteSpace=wrap;html=1;boundedLbl=1;backgroundOutline=1;darkOpacity=0.05;darkOpacity2=0.1;shadow=0;sketch=0;fillWeight=-7;hachureAngle=45;curveFitting=10.95;sketchStyle=rough;strokeColor=#ae4132;strokeWidth=1;fillColor=#fad9d5;size=10;" vertex="1" parent="eUHkU5DuMBoQhbZaylSi-216">
          <mxGeometry x="26" y="53" width="30" height="10" as="geometry" />
        </mxCell>
        <mxCell id="eUHkU5DuMBoQhbZaylSi-231" value="" style="shape=cube;whiteSpace=wrap;html=1;boundedLbl=1;backgroundOutline=1;darkOpacity=0.05;darkOpacity2=0.1;shadow=0;sketch=0;fillWeight=-7;hachureAngle=45;curveFitting=10.95;sketchStyle=rough;strokeColor=#ae4132;strokeWidth=1;fillColor=#fad9d5;size=10;" vertex="1" parent="eUHkU5DuMBoQhbZaylSi-216">
          <mxGeometry x="52" y="53" width="30" height="10" as="geometry" />
        </mxCell>
        <mxCell id="eUHkU5DuMBoQhbZaylSi-232" value="" style="shape=cube;whiteSpace=wrap;html=1;boundedLbl=1;backgroundOutline=1;darkOpacity=0.05;darkOpacity2=0.1;shadow=0;sketch=0;fillWeight=-7;hachureAngle=45;curveFitting=10.95;sketchStyle=rough;strokeColor=#ae4132;strokeWidth=1;fillColor=#fad9d5;size=10;" vertex="1" parent="eUHkU5DuMBoQhbZaylSi-216">
          <mxGeometry x="78" y="53" width="30" height="10" as="geometry" />
        </mxCell>
        <mxCell id="eUHkU5DuMBoQhbZaylSi-233" value="" style="shape=cube;whiteSpace=wrap;html=1;boundedLbl=1;backgroundOutline=1;darkOpacity=0.05;darkOpacity2=0.1;shadow=0;sketch=0;fillWeight=-7;hachureAngle=45;curveFitting=10.95;sketchStyle=rough;strokeColor=#ae4132;strokeWidth=1;fillColor=#fad9d5;size=10;" vertex="1" parent="eUHkU5DuMBoQhbZaylSi-216">
          <mxGeometry x="104" y="53" width="30" height="10" as="geometry" />
        </mxCell>
        <mxCell id="eUHkU5DuMBoQhbZaylSi-234" value="" style="shape=cube;whiteSpace=wrap;html=1;boundedLbl=1;backgroundOutline=1;darkOpacity=0.05;darkOpacity2=0.1;shadow=0;sketch=0;fillWeight=-7;hachureAngle=45;curveFitting=10.95;sketchStyle=rough;strokeColor=#ae4132;strokeWidth=1;fillColor=#fad9d5;size=10;" vertex="1" parent="eUHkU5DuMBoQhbZaylSi-216">
          <mxGeometry x="130" y="53" width="30" height="10" as="geometry" />
        </mxCell>
        <mxCell id="eUHkU5DuMBoQhbZaylSi-235" value="" style="shape=cube;whiteSpace=wrap;html=1;boundedLbl=1;backgroundOutline=1;darkOpacity=0.05;darkOpacity2=0.1;shadow=0;sketch=0;fillWeight=-7;hachureAngle=45;curveFitting=10.95;sketchStyle=rough;strokeColor=#ae4132;strokeWidth=1;fillColor=#fad9d5;size=10;" vertex="1" parent="eUHkU5DuMBoQhbZaylSi-216">
          <mxGeometry x="210" y="53" width="30" height="10" as="geometry" />
        </mxCell>
        <mxCell id="eUHkU5DuMBoQhbZaylSi-236" value="" style="shape=cube;whiteSpace=wrap;html=1;boundedLbl=1;backgroundOutline=1;darkOpacity=0.05;darkOpacity2=0.1;shadow=0;sketch=0;fillWeight=-7;hachureAngle=45;curveFitting=10.95;sketchStyle=rough;strokeColor=#ae4132;strokeWidth=1;fillColor=#fad9d5;size=10;" vertex="1" parent="eUHkU5DuMBoQhbZaylSi-216">
          <mxGeometry x="236" y="53" width="30" height="10" as="geometry" />
        </mxCell>
        <mxCell id="eUHkU5DuMBoQhbZaylSi-237" value="" style="shape=cube;whiteSpace=wrap;html=1;boundedLbl=1;backgroundOutline=1;darkOpacity=0.05;darkOpacity2=0.1;shadow=0;sketch=0;fillWeight=-7;hachureAngle=45;curveFitting=10.95;sketchStyle=rough;strokeColor=#ae4132;strokeWidth=1;fillColor=#fad9d5;size=10;" vertex="1" parent="eUHkU5DuMBoQhbZaylSi-216">
          <mxGeometry x="262" y="53" width="30" height="10" as="geometry" />
        </mxCell>
        <mxCell id="eUHkU5DuMBoQhbZaylSi-240" value="&lt;font style=&quot;font-size: 16px&quot;&gt;MLP&lt;/font&gt;" style="rounded=1;whiteSpace=wrap;html=1;shadow=0;sketch=0;fillWeight=-7;hachureAngle=45;curveFitting=10.95;sketchStyle=rough;strokeColor=#3A5431;strokeWidth=3;fillColor=#6d8764;align=center;fontColor=#ffffff;" vertex="1" parent="1">
          <mxGeometry x="600" y="721" width="65" height="40" as="geometry" />
        </mxCell>
        <mxCell id="eUHkU5DuMBoQhbZaylSi-250" value="&lt;font style=&quot;font-size: 16px&quot;&gt;Add&lt;br&gt;&amp;amp;&lt;br&gt;LayerNorm&lt;/font&gt;" style="rounded=1;whiteSpace=wrap;html=1;shadow=0;sketch=0;fillWeight=-7;hachureAngle=45;curveFitting=10.95;sketchStyle=rough;strokeColor=#BD7000;strokeWidth=3;fillColor=#f0a30a;fontColor=#ffffff;" vertex="1" parent="1">
          <mxGeometry x="681" y="707" width="96" height="68" as="geometry" />
        </mxCell>
        <mxCell id="eUHkU5DuMBoQhbZaylSi-251" value="" style="endArrow=classic;html=1;strokeColor=#000000;strokeWidth=2;fillColor=#97D077;exitX=1;exitY=0.5;exitDx=0;exitDy=0;entryX=0;entryY=0.5;entryDx=0;entryDy=0;" edge="1" parent="1" source="eUHkU5DuMBoQhbZaylSi-240" target="eUHkU5DuMBoQhbZaylSi-250">
          <mxGeometry width="50" height="50" relative="1" as="geometry">
            <mxPoint x="591" y="751" as="sourcePoint" />
            <mxPoint x="621" y="751" as="targetPoint" />
          </mxGeometry>
        </mxCell>
        <mxCell id="eUHkU5DuMBoQhbZaylSi-239" value="&lt;font style=&quot;font-size: 16px&quot;&gt;Add&lt;br&gt;&amp;amp;&lt;br&gt;LayerNorm&lt;/font&gt;" style="rounded=1;whiteSpace=wrap;html=1;shadow=0;sketch=0;fillWeight=-7;hachureAngle=45;curveFitting=10.95;sketchStyle=rough;strokeColor=#BD7000;strokeWidth=3;fillColor=#f0a30a;fontColor=#ffffff;" vertex="1" parent="1">
          <mxGeometry x="490" y="707" width="91" height="68" as="geometry" />
        </mxCell>
        <mxCell id="eUHkU5DuMBoQhbZaylSi-249" value="" style="endArrow=classic;html=1;strokeColor=#000000;strokeWidth=2;fillColor=#97D077;exitX=1;exitY=0.5;exitDx=0;exitDy=0;entryX=0;entryY=0.5;entryDx=0;entryDy=0;" edge="1" parent="1" source="eUHkU5DuMBoQhbZaylSi-239" target="eUHkU5DuMBoQhbZaylSi-240">
          <mxGeometry width="50" height="50" relative="1" as="geometry">
            <mxPoint x="601" y="781" as="sourcePoint" />
            <mxPoint x="651" y="731" as="targetPoint" />
          </mxGeometry>
        </mxCell>
        <mxCell id="eUHkU5DuMBoQhbZaylSi-238" value="&lt;font style=&quot;font-size: 16px&quot;&gt;Multi-Head Attention&lt;/font&gt;" style="rounded=1;whiteSpace=wrap;html=1;shadow=0;sketch=0;fillWeight=-7;hachureAngle=45;curveFitting=10.95;sketchStyle=rough;strokeColor=#006EAF;strokeWidth=3;fillColor=#1ba1e2;fontColor=#ffffff;" vertex="1" parent="1">
          <mxGeometry x="381" y="711" width="90" height="60" as="geometry" />
        </mxCell>
        <mxCell id="eUHkU5DuMBoQhbZaylSi-242" value="" style="edgeStyle=segmentEdgeStyle;endArrow=classic;html=1;exitX=1;exitY=0.5;exitDx=0;exitDy=0;strokeWidth=2;entryX=0;entryY=0.5;entryDx=0;entryDy=0;" edge="1" parent="1" source="eUHkU5DuMBoQhbZaylSi-238" target="eUHkU5DuMBoQhbZaylSi-239">
          <mxGeometry width="50" height="50" relative="1" as="geometry">
            <mxPoint x="-851" y="527" as="sourcePoint" />
            <mxPoint x="491" y="743" as="targetPoint" />
            <Array as="points">
              <mxPoint x="481" y="741" />
              <mxPoint x="481" y="741" />
            </Array>
          </mxGeometry>
        </mxCell>
        <mxCell id="eUHkU5DuMBoQhbZaylSi-252" value="" style="shape=flexArrow;endArrow=classic;html=1;strokeColor=#9673a6;strokeWidth=2;fillColor=#e1d5e7;" edge="1" parent="1">
          <mxGeometry width="50" height="50" relative="1" as="geometry">
            <mxPoint x="585.41" y="960" as="sourcePoint" />
            <mxPoint x="585.41" y="920" as="targetPoint" />
          </mxGeometry>
        </mxCell>
        <mxCell id="eUHkU5DuMBoQhbZaylSi-253" value="" style="shape=flexArrow;endArrow=classic;html=1;strokeColor=#9673a6;strokeWidth=2;fillColor=#e1d5e7;" edge="1" parent="1">
          <mxGeometry width="50" height="50" relative="1" as="geometry">
            <mxPoint x="579.9999999999999" y="820" as="sourcePoint" />
            <mxPoint x="579.9999999999999" y="780" as="targetPoint" />
          </mxGeometry>
        </mxCell>
        <mxCell id="eUHkU5DuMBoQhbZaylSi-254" value="" style="shape=flexArrow;endArrow=classic;html=1;strokeColor=#9673a6;strokeWidth=2;fillColor=#e1d5e7;" edge="1" parent="1">
          <mxGeometry width="50" height="50" relative="1" as="geometry">
            <mxPoint x="579" y="672" as="sourcePoint" />
            <mxPoint x="579" y="632" as="targetPoint" />
          </mxGeometry>
        </mxCell>
        <mxCell id="eUHkU5DuMBoQhbZaylSi-257" value="" style="endArrow=classic;html=1;strokeColor=#000000;strokeWidth=2;fillColor=#97D077;entryX=0;entryY=0.5;entryDx=0;entryDy=0;" edge="1" parent="1" target="eUHkU5DuMBoQhbZaylSi-238">
          <mxGeometry width="50" height="50" relative="1" as="geometry">
            <mxPoint x="320" y="741" as="sourcePoint" />
            <mxPoint x="800" y="610" as="targetPoint" />
          </mxGeometry>
        </mxCell>
        <mxCell id="eUHkU5DuMBoQhbZaylSi-258" value="" style="edgeStyle=segmentEdgeStyle;endArrow=classic;html=1;strokeColor=#000000;strokeWidth=2;fillColor=#97D077;entryX=0.5;entryY=0;entryDx=0;entryDy=0;" edge="1" parent="1" target="eUHkU5DuMBoQhbZaylSi-239">
          <mxGeometry width="50" height="50" relative="1" as="geometry">
            <mxPoint x="350" y="740" as="sourcePoint" />
            <mxPoint x="560" y="670" as="targetPoint" />
            <Array as="points">
              <mxPoint x="350" y="680" />
              <mxPoint x="536" y="680" />
              <mxPoint x="536" y="700" />
              <mxPoint x="536" y="700" />
            </Array>
          </mxGeometry>
        </mxCell>
        <mxCell id="eUHkU5DuMBoQhbZaylSi-259" value="" style="edgeStyle=segmentEdgeStyle;endArrow=classic;html=1;strokeColor=#000000;strokeWidth=2;fillColor=#97D077;entryX=0.5;entryY=0;entryDx=0;entryDy=0;" edge="1" parent="1" target="eUHkU5DuMBoQhbZaylSi-250">
          <mxGeometry width="50" height="50" relative="1" as="geometry">
            <mxPoint x="590" y="740" as="sourcePoint" />
            <mxPoint x="542.9999999999998" y="717" as="targetPoint" />
            <Array as="points">
              <mxPoint x="590" y="680" />
              <mxPoint x="729" y="680" />
            </Array>
          </mxGeometry>
        </mxCell>
        <mxCell id="eUHkU5DuMBoQhbZaylSi-261" value="" style="endArrow=classic;html=1;strokeColor=#000000;strokeWidth=2;fillColor=#97D077;" edge="1" parent="1">
          <mxGeometry width="50" height="50" relative="1" as="geometry">
            <mxPoint x="776.9999999999999" y="740.66" as="sourcePoint" />
            <mxPoint x="810" y="741" as="targetPoint" />
            <Array as="points">
              <mxPoint x="797" y="740.66" />
            </Array>
          </mxGeometry>
        </mxCell>
        <mxCell id="eUHkU5DuMBoQhbZaylSi-263" value="Position&lt;br&gt;Encoding" style="text;html=1;align=center;verticalAlign=middle;resizable=0;points=[];autosize=1;" vertex="1" parent="1">
          <mxGeometry x="375" y="859" width="70" height="30" as="geometry" />
        </mxCell>
        <mxCell id="eUHkU5DuMBoQhbZaylSi-265" value="" style="shape=image;verticalLabelPosition=bottom;labelBackgroundColor=#ffffff;verticalAlign=top;aspect=fixed;imageAspect=0;image=data:image/png,iVBORw0KGgoAAAANSUhEUgAAAecAAADfCAYAAADMUxsgAAAgAElEQVR4AeydB3gU5dr3851z9MCxRVFCerIpm9572ZLe65Yku+kFQgg1CWxJ2CBIEAQE0ggQuooKB0TsUhTIJqEpHQQVFVRQQQWp/+96JllAX9/zks2OJ4En13Vfk2xm/vM8v52Z+2lz30ZG9IcSoAQoAUqAEqAEKAFKgBKgBCgBSoASoAQoAUqAEqAEKIEHgsDIOYdcslSdy3Pq9hYD+McDUWlaSUqAEqAEKAFKYKASUCw7+4yktnu2SKn9TqzSnpKq90wfqGWl5aIEKAFK4IEiINBsHZI88cMX0xXvDzNExQ2tR8rEhiabuobgyLbGlhP4Z5Zmb5FYqT0tUnRArOq4mKPZm8X2eak+JUAJUAL3HYExC4+aiVWdp7LrutbGj3zlVZ6s6XteTiP0Nb68BQljNiNl4odIrNwCnqxJby1SBkPrsaXJpi5P1ozYUa8zLPT9Xv7HcSxoxpSuRlrVB8hUaJE5ZRdSJrx9Vtn2rcl9d9PQClEClAAlwDYBqbq7XKLquJo4ZsNlQf7iS/ElbdcKpryCstrX+mwl6teRWf0u45iJc5ZP2dxnjbvPa2g9os2GJtu6ol6mhG2pHt/L3Ux1ZTW0ZtnUjchSbu1xzIrdSJ34AWLK1hwF8P/YvoapPiVACVAC9xWB9tMYIlXu3JFQsQHC/KUQj1t1q339HnR++g32Hfm2T7a9+ysUT9vJOOa0qq1YvulYn47/4/kMrUf02dBkU3fnvm8wauZuhmnqpA/R8tqRfjElZWVDs/Pgt5iz+jDESi1ESi0yanYgYfRrp1JGry69r24YWhlKgBKgBP4KAtmq9zITRr9+KSK/DbKqtVixcR9+/OUG+vrzzfeXUTJ9F+NEMmu2oePT7/sq8bv9Da1HxNnQZFP3/E+/oWKWlmGaXr0VW7vP/o6RPn+woXkLwI4DP0Kq7gCZZ86cvBPJ4978Irn85co3uvGvv+I6puegBCgBSuC+IADgYenk9Z6xZaveF+a1ILfmJax58wCuXu/7I//0Nz8jb+rHjBORKLbjwIkf+i5y1xGG1iPSbGiyqctGQ4INTcLg8OeXUTyji3HMIsVupE364ELa2E1lu85g6H1xs9BKUAKUACXwVxA4Afwze/ImV0Fe6xaBvAnS8aux4f0jd7nHe//1yOcXka3awThmmfojHP/i4r0f/Cd7GlqPnIINTTZ12WhIsKFJGHx/8TomzNvT65jJcPZHl8U1740BMOSvuJbpOSgBSoASuG8IpFesDebLm3bzZI3Xk0e1o+ugfsOl+45dgGTKdsYxF9TvxBdnf/kTd3vvHxlaj5yZDU02ddloSLChqftWJ8//iJlfZoazFbuuS9QfK9YdwqP3zc1CK0IJUAKUANsESI85rnRFOl/evJ0nb/p11NTXceSUfkPQOw98h4yabYxjLpuxG+cuXNE9r/XaGlqPFIINTTZ12WhIsKFJGHxz/grqFryDlIq1SBiz8XpmzccXpKpdre1bMYLt65jqUwKUACVw3xBoWPfDE7FFS/P48pbtEXnNv6rnv40Dx77Ty5G+p/0GZDU2eVWqcrYWP1y8qpeO7iBD6xFdNjTZ1GWjIcGGJmFw+LMLqG98H/ElS8g77Ffiy1Ytk6o+rnt25U+2980NQytCCVAClADbBBSLjgyLKWwri8hf0p04cvk11YIPsGPP1/j2hyt9ttVvnQJ5pYc45vEvdOL01z/3WePu8xpaj2izocmm7voPv7jd2Clv6MDxLy/1iykpKxuaRHdr91eYuuA9xBa1Ecf8jTCv5YX0ypc92b6GqT4lQAlQAvcVgernO0dEFS0t5cub9hOHSo0y6O81EF28/BZf3nQyIr91zrj5HTT61331xKCVoQQoAdYJVM0+MDy6cMlIgbz5XNLIZdQx08aJQa4BYcGyc5H5i+sat9KFX6zfxPQElAAlcH8R2AoMichd8ixP3ngzpqgNL7R/hK++6/sw9tnzl/Fc+6e3H+oNyz/FufOX9R52NbQeGWplQ5NN3W8vXMH8lw7fZjq1dT++/k5/pqSsrGj2Tnu81/ElROPWQpDbdkuY33Y2qmRZ+coDeOT+umNobSgBSoASYJnA6OnvWEbktrTzZYvORxW0MlG/ftMjuMjV6zcxfeknt51I27+Pg0SD0vfH0HqkHGxosql74+YtzF1zxzETJ33zZn+oAmxo6r7jjR8ehXjsSkQVLL0VVbD4UGxxe46m/bQxgL+xfBlTeUqAEqAE7h8CGeNf9iGOmSdr/Da1fPkt8nC9dPmm7ll7z9vLv92Aqmnfbce85q1T93zsn+1oaD1yDjY02dRloyHBhiZhcOMW0L5hD2RVLyEyf/H1xDEbToprtr9Z1vBpIk1kcf88L2hNKAFKgGUC5B3mlJFreMK8lmWkx1ykXIdNW4/iat/DZOPSr9cwaX4345jJyuxNO878mb+9588MrUdOzIYmm7psNCTY0CQMzl+8xjhm8bhVEOa23EgoX9ctmrLzhFip/UGk7HylqvnkcJYvZypPCVAClMDgJ0CSCyRVrI4UylvWRua1XBw1dT02bzt2z87z7h0vXPwNFc/3JFsg7zJ/0KVf9DCdpqH1iC4bmmzqstGQYEOTMDh74Tcse70bKeXt4OUsuhxXunarSPHxDpFi9w1iYlXnBxOaj5kP/ruG1oASoAQoARYJEMecMnqNkC9v3hhd1HJ9ZN3r2NH9pc439mlLFlbdnVlqdz8zSxlaj3EeBi6jDhAbZSXabDQk2NAkZT134TcsXL0bCaVLwZM3/hhduOwDsXJnq0ipvZqp0N4SK7QnZPWfxNNhbRZvaCpNCVACg58AySyVMeaVUEFeU3dEXjNIj/nAcf2ifn3+zS/I19yVWeq4fmE9dc7O0HpElw1NNnXZcPhsaBIG3/14FTNatyIir/UWL6fpSlRB2+uyem2+SNlxhcTNFqs6Lkpruye20hSQg//BQWtACVAC7BHImPSBddLo10oFuW1nIvLbrldO34zOg9/p9YoT6SFn9WaWIhmmSC5m5vUcPSKIkeMMrceWJpu6e49eQG7dR8y8vXjKdmzfc65fTElZ2dAkup+c/BETGrYgpmgp+LLGy8Lc1hcL6/fEitXab4ljFim118WqzvYxC780Y++KpsqUACVACQxyAsxQNg2ocXsleX8jXtHj70RNiyxY1lBU3yGU1nZtESu0N5nhbFXnzrzphwIA/GOQ3zq0+JQAJUAJsEOgRLPFIjJ/sYI6lDsOhbIwHIsCzUeC7KndM0Uq7Y8ihZb0mr/K0ezNosPZ7NzPVJUSoAQGOQES9CFH/YZDZEGbksQ1TqtYdbNhycfYf/wHvYZLN2z98nayhVEzO3D8i4t66ZBhUWKG1mNLk03dt3d9jYzqnmxdRdN24tBnP/WLKSkrG5rnfriCTdtOYlT9JhL164Ywf8mx6NLVs/Lrd0Rm13fni1Ta46THLFJ0XJOo90xVrLg0bJDfPrT4lAAlQAkYngCAh6SK9Y4RBW0anqzpaxKxaf7KnbiiR9Qvsvhn4/Yvb2eWqprfjZ9/vUY+1vvH0HqkIGxosqn7fufZ242dMc9rmVXaegPtPZANTfLe+9bOzyGvfgm8nKZbfFnjJzGFS6pmrvniSc2Si09J1V3PixXaX3pfm3pt1LzTNoa/oqkiJUAJUAKDnACZ55NP2WhPMgAJ5M0/pYxqx7L13Xo/91965/TtuVp18z5c+U2PKCV3nd3QekSaDU02ddloSLChSeLEbd5+HBljVoIna7zGkzd9EVu4rFAXinPWRjyWXbc3W6zqfEus0u4snnnIe5DfPrT4lAAlQAmwQ6Bk1hYLgbxlVXhO89WU8uW3NukZXIREb168/vhtxzxj2Se4dr3vYT11ftnQekSXDU02ddly+Gw0TgjbNW/sZ4KL8GWN4MuajmdUrg4C8Pc/XrmlDYdc5dM/Dfnj5/RvSoASoAQoASMjI2nVejehvGUzCQiRW/MS3t99iol5rHOQ97oliRHmrb2TbIH8Tj7T98fQeqQcbGiyqctGQ4INTcLg8lWg5RUtMsasgEDefIsna347afTasF1nMJTeaJQAJUAJUAJ9IJA4amWsMLf5TWFuMxOOk8wTXtOjo0t6x6SXrFvRTHrP+rtlML1tQ+oR52HoMhJN8sOWLhsNCTY0CQMSJ/vFVTtB4mTzZU2/CPNa1iaWr4kiKUX7cDnSXSkBSoASeLAJkDy5cSUrMwTyls3C3OYbE2a+ge17vtTLoZL5ZDKvrHPMq/uZWcrQesR5sKHJpi4bDp8NTcKARFSbv+LjnjjZsqbvhbktK1Iq1vBIkpQH+y6jtacEKAFKoA8ENK3Hnk4oXZ4pkLd8FJnffHPSrM3Ytf8r8pzt8w9ZgU1WYhPHTDJLkQVG/fkxtB4pCxuabOqy0ZBgQ5MwOPX1JcxeugMReS1kRfY5kq0srXIdCSTyP+aY+3CJ0l0pAUqAEnhwCJDVspolh56KH/3ymIiCJUfjSttvjtJsRNch/cJxkneWybvLxDGTzFLkHWTyzqy+Zmg9Ug42NNnUPf31zxj3Quftxs6at0/pzVP3PbChSbT3HbuASbO26F6VOifMbVlCXsXT3VFbTuCfFYtOWZPV2brP6JYSoAQoAUrgDwTIUHZUwdJS3fAz3Rou4tWDyjKqeBVxzlci8lvmLVh94XHdJUd6zkUNxzwl6q6pOXV7c8vmf2al+x/dUgKUACVACfQSIMEfograpvBkTV88qI6E1tvwjZHIolVXoouXjHtuxZFhuveYySVX1XxyuETd1cBkm+oJzZlHb0ZKgBKgBCiBuwhUP791RETe4gaerOmztPLlNxas1uLQKf1CPpJMUiSjFHF0JMMUyQylGz7VZ2toPVIGNjTZ1CXDw7l1PWk0xVO2YZsBMkuxoUkYvPruUZTWbkB00VII89tOxZQsKx8z6+PfZZEiAW1k9XukIoX2EombLVZqf8mp3VN21yVJf6UEKAFK4MEmQOYAhXktLwhkTael41dj+b/34vufruq1ZuvA8R8gUWxnHDPJyUxW6fbnx9B6pCxsaLKpe+yLi5Cpe1I+5qh34OjnF/uDlDmWDc3rt4CNHx5FWe1riMxrucGXNe+KKWwrI2sY/niHlcw67ixS7v6CyTSl0N6UqDpfnNT6zdN/3I/+TQlQApTAA0eAzPmljV3nK8xvnUvCccqq1mLlpn24+KseLzED2P3Jd8is2cY45tIZu3D2/OV+ORFD65HCsKHJpi4bDQk2NElwkQ0fHEb+lFfAkzf9ypc37SDhOBu34tE/3lgkF7NYpd0uUnZcJ85Zoux8u3DGYR+6evuPpOjflAAl8MAROA0MkU5c7ymUtyzjy5pvkeQDa988AP3cMvBB151kCxUGSLZgaD3iQNnQZFOXjYYEG5q//nYLG94/jNTydhIn+xe+rGU7eQ3vz6J+zVyDJ0kvWazsuCJSdECs0h6WafaK1u2iEcIeuIcQrTAlQAn8ngDJLJU2fp2XQNbytkDedD1l1DK89dEJ4mf0+tm048ztzFKT5nfjUj8zSxlaj1SKDU02ddloSLChyYT5XNcFvrwR4TmNv/HlLR+llK0R3r3wS3f1kTzMWXV7SkleZiY/s6rzglTdpdLQ4WwdIrqlBCiBB5UAeWgmjVolIMFFeDmNv5E55sOfndfLKZODXn73TmYpVdM+XO5nZilD67FRRh0sNspKtNloSLChSXrM9Y3vI7qwFbycRddJY480+kjj74/3VzfwUE79fqFIqe0QK7Q3iUlUnavznz9h98d96d+UACVACTxQBMgwIxluJMOOZPhxwsxNOKSnY2Z6TBvuZJaavvQTXO1vZikD6hEnZ+gy6pwyW7pEnw2Hz4bm6W9+hmbhe0gsWwpeTvOtiLyWZdKJL3uS6ZI/u6nGLPzcVqLuXCVSaq+S4WyRUnsgd9qhwD/bl35GCVAClMADQ4AszIkuWlpAFurEFLb+OnXhu9h39Fudv+nT9ubNW5j/0p3MUnPX9C+zlKH1SGXY0GRTlw2Hz4YmYXDw5HlMa/oACaVLQbKUkZX+ZGHh/7agi3yeU7dPTIazSY9ZpNJeyNbsS3tgbj5aUUqAEqAE/oyAZsmZp6KKlpaSV1uSRi67QR6s+vaYSWKE59rvZJZqNUBmKUPqEedh6DISTfLDli4bDQk2NAmDvUfOoXbBO4gtbiOZpU4Tx5xT/YbDn113d39W1XxuuETdPU2s6vg+S909GcD/u/v/9HdKgBKgBB4oAiT4Q1zR0mJh/pJTyeUrUbfwQ3Qd1i8oyJfnfsHkhXuYV6VIgBHimPUJKqI7xtB6RJcNTTZ1v/7uMqa27r/NlIxIfHtB/9jjpKxsaBLdD7vOYHzDFpLA4gZf3nSSBK0hwWvu5YYivWfyHnPetCPBxFHfyzF0H0qAEqAE7jsCTAKL1u6nIwuXjeXnNP5Mw1IaPizlg8o0qmT191EFrVNIuNe+3jgk0QXtNfeVGt2fEqAE7hsCDet+eCIib/F8JuFAXvPtntmD6lBovQ3XOEmoWN9CEqTcNzcLrQglQAlQAn8FgZ5wnK1LebLGb6MKFt9a99anOPOdfkOlJL528bO7GOeeUb0Vb+36ql9D2YbWI8OtbGiyqXv8y0sob7iTRnP9h1/0iykpKxuaRHfp+v0Qj1uLiIK2mySFaHz5y5VjFh41+7P3mP+Ka5uegxKgBCiBQUeAzOulVa4JIMnsSVJ76YQ1t97Ydgy/XCHrdvv+88XZX1BQv5NxzJIp25ncvH1XuXOEofWIMhuabOqeu3AFZTN29zR2arZh54Hv7gDS8zc2NMk7zCTGOgnpGi5bdJMEFyGv4Wlaj9H414PuyUALTAlQAv81AltPY0hy+Uq+MLdphUDe/D1JPrBp61G9w3Ee/0OyhSP9TLZgaD3ix9jQZFOXjYYEG5rf/XiVcczicavIiuwbfHnzm3ElKzPuZSi7YR2eGNd2yoRknfqv3Qz0xJQAJUAJDAQCW4EhieUrooR5LWujChb/Mmrq+n6F4zxw4veZpUjAif78GFqPlIUNTTZ12WhIsKF59sIVtL3ahbTRJE72oovC3OY3E0auiruX67z9NIbINPvl2equ58vnHefQoe97oUb3oQQogfuSAIn6lTLmlVBBbstbZH6ZOOaP9n6pty8leY51maVKpu/CN9/3L7OUofVIxdjQZFOXjYYEG5rEMS9YtQtxxW09wUXkLZulVevd7uXGISuwc6cfChMrO4+JlB0/i5Wd2tIXPnO8l2PpPpQAJUAJ3FcEyBxzRuXqIL6s6bhA3sTk0T148nu9HfOHXWeRXr2VmQ+tmKXF+Z9+01uLHGhoPbY02dRloyHBhuaPP9+AZuG7IBnKwnOargrkzatLZm2xuNcbpicNZOf7IkXHNZLUQqLWvqJYdvaZez2e7kcJUAKUwH1BgAwZxhUtLeDJm74Q5jZfm9iwGae+vqS3M33jozuZpSbO6+p3ZilD65GKsaHJpu5gaZx89d1ljJ+5CTFFi8HLafopIr91jnzKRvt7nTeetRGPSWq7G8UK7S9Mtil1597s+gPJJNnFfXGz0UpQApQAJXAvBDRLDj0VVdBWzZc1fsLLabo1o3Ur+jMv/PvECHsNnFmq/3rEgRq6jLpWDFu6bDQk2NDcc/gcxs7YiJiiNvBkTV9HFLRpyKt4f5ZZ6s+uTTLPLK3dN1qk7DjPOGal9qvsuu5JM9f81OcAJX+mTz+jBCgBSmBQEChWvWkdVdA2JSJ/yfH4suU3Zi35GN16huMkYSIXvHKEGcYmQTpqW/bh6+9+1f+dW0Pr/XCFCWVp0DISTTZ1ybvBG0/cZlr9YjcTUpQ5p+7cemzZ0Ny07TNUTt8MYV7LTRKOM7KgTdnrmP92LzcD6VnnPbs3SqzUHiKOmfScJarOtpLZn9vey/F0H0qAEqAEBj0BJrOP+g2HiPw2lSC36SSNeGW4iFcPOsvo4jVfRuYvVpRo7n2OmUyrlD53xFGi6twkUmqvi5Xam2Jlx8ey6YeDBv3NRitACVAClMC9ECA9FHnNRm5kQds0QW7TWfHYlbd7Zg+6Y6H1738jJb5i/fI3uvGve7kWdfto2mGcpe5uuD3PrOw4n1O/T6z7P91SApQAJXBfEyA9lLKp71kJc1tfFMibLqeWt2PVpv16Dz2f+fZXTLkrs1TL68f01iJDtYbWY0uTTV2SBUqz+E5mqXlrDZNZytCa5364gjVvHkTm2DUQ5C2+Lsxv+zJp9GulyWVv9Mkxk8ZiVu2+HJFS+41Iob1FhrSz67oV97qA7L6+YWnlKAFK4MEgQFI+8nNbXicJLDIrV93avO0Y9AvGCfx8+TrIHKiut7lhm/7vQ5MFVYbWY0uTTd0rV28wc/U6pqu2fKZba6b3lg3NmwBWbtyHlPJ2kNfu+PLmrowxq0MBPNzXO2l86+emElXnajKczcw1qzrbNWu/oWE9+wqS7k8JUAKDkwCJk82Xt7zDlzf9mFfzMj7oOI0benrmHy5dReXsTsYxp1Vtxbsd3+jtPMiBhtZjS5NN3cHSOLlyDVi0tgMZY1ZAIG+8zpe3bkwcvUbY16Fs3V20bheG5tbvj5WoutZJ1Z1vFMw86K/7H91SApQAJXDfEiCvscSWrEgVyls2C+SNl8s167Gt+wtcJ90fPX6YxAjPGS7ZgqH1SJXY0GRTd7A0Tkic7HkrdkJUuRLhOYsuCuUtaxPL10Tp65h1N11rN/4lm3YwNKd+v/CQHr1vnQ7dUgKUACUwKAho2k8bx5csEwnkLW8JZM03Jja8ge3d+g8/f3nuTmYp8ZTt2Hv0gh7u/c4hhtYjymxosqnLRkOCDc3PvrqEeSs+RnzJEpLA4rwgt7k9tfyl8BPAPwfFzUALSQlQApTAQCBA0vEllC6V8GXNu2JLWq+Pf24Tug6dveMZ+/gbyfErq/2IGcrOVu3AkdM/9VHh97sbWo+os6HJpi4bDQk2NIljnt7yIQkscovk9RbktrRnjH/ZZyBc57QMlAAlQAkMCgJkRTbpMccWt+fwZY0HY4uW3CLhFL/uR9KJT078AKlyO+OY86Z+jFNf9y+zlKH1iANlQ5NNXTYaEmxoEsdMGnbMwi/ZovMReS3LCqe/YzkobgZaSEqAEqAEBgoBkic3srCtjC9v+oona76lWfQefr6s58ovANqD30M0eRvjmEue3dUvJ0+cnaH12NJkU5eNhgQbmgdPfI9i1atk4RfJLHUzIr91OkkpOlCudVoOSoASoAQGBYHGrXg0Mn9xnTBvydfxpctvzG7fhcOfX9L73eNN288gvaons9TI53bj6OcX9dYi7wYbWo8tTTZ1ycp2XRrNwvqd+PTkj/1iSsrKhuYbO06hpHYDogoWgy9rPBdTuKysqvnAcH1vBDKi074VQ8hWXw16HCVACVACg47AuPmfmpAMQOE5NByn7j1huu1/xK+okjWfRxUtLa1+vnNEf26K4tmH3cSqriVS9d7KmWtAE1n0ByY9lhKgBAYHgcxxr3kI81vn8uVN30jHr2KGoKlj6r9jogw/RHzFhlbFoiPD+nMnkKxSElVXs1ipPS9Wdx7M0uwtoq9M9YcoPZYSoAQGNAESkSlt7DrfyPzWF8NzGn+TV7/ERG46ffayfkOlF65g4V2ZpdTN/c8sZVC93gxQBtdkU/eHK1i26feZpb44+4t+389dGagMrfn5uctY/eZBZE18mYTjvCzMX6qNG7l2YnXjoX71mEkeZmlt1xiRovNsbxrIL7Lr9uVT5zygHy20cJQAJaAvgV1nMDSz8jVvYV7LWmFe02/SCavxylufkHVMev3cvHkLC16+k/LxhdWHcOOm/gvJDK1HKsWGJpu6hN7d6RmnLTmAq/pGf+n9VtnQvHwVWPf2pz15mOVNv/LlzdvjSlek9/cdZpL9LPfZAxFilfZ4r2P+SaLuWkRCdup73dPjKAFKgBIYsATIQy9zwkt+AnnzuwJZ43US43jn/q/0csrkoOs3bqFh+ae3h8ObXzuGW/r7ZYPrsVFGHSxD112ny0ZDghVNAPNX7CSLvsCTNV7j57bsSq9YG9zfix/A/yueedJerOzaxjhmRcc1sbLz3cIZh+n70f2FS4+nBCiBgUeAZOtJGLkqmi9r3k4SWBQqXr118OT3Op/Q5y1JjFDXcicL0so3+5dswdB6pEJsaLKpy4bDZ0Pz/MVrmNb4PhJKl4CX0wiBrPmN7Mmvufa3x0zumlkb8ZhY2dkqUmivZZJsU8rOz3I0+zMG3h1FS0QJUAKUQD8JkKHsuLJ2MV/e8pEwt+nnyXO24MCx7/rskHUHkGQLNQv23O4xr9/6he5fem0NrUcKwYYmm7psNCTY0Dx55iKmNX2ApLKl4MmarwrzWhrJwkJ9Mkv98bImDUgyz5yp0H4rUnRApOy4IlF3K+g88x9J0b8pAUpg0BMgyQWiC5eU8OWNH8UUtf6mmPsWtJ9+rXfKR5JsYeyc3sxSkwyTWcqQesSBGrqMuhYHW7psNCTY0Pz0xPeob3wficQx5zSeI6/gpY1f52WIm4S8x5z37N4osbqzW6TYfYMMaUtVXSvHtZ0yMYQ+1aAEKAFKYEARiC1cVsiXt3SR4ceYwlYo572Nde8cxKatR/Wy+taeXMwk5eOLa/brpXH3uQ2tR7TZ0GRL9+W3D6NA0xN7PHXSh5i9Ym+/mbKh+eo7B6Ge/w6iCxff4subThLHnK/eYmeoi33k84cdJOquV0WKjsvEMYuVnTuKGo55Gkqf6lAClAAlMKAI8GVN+4hjNpw1Ia58PSIKVxhI09B6pK5saLKjG1P2Su/0wAeILFplEKZsaDLXD1n41eOYp4+fscNgK6dJr7nguQPhYoX2IOOYVZ1HZZq9ogF1I9HCUAKUACVgSAJ8edMOXk7zLcM5Z0M6eqrFTkOCpcaJrOn7yILWWs2SQ08Z8holzrlszjGnLHV3g0Sl3Z5Vu0fZfteKXYsAACAASURBVJrG4jYkY6pFCVAClAAlQAnoRYCE55Rr9sTReWa98NGDKAFKgBKgBB4kAsx8sKqrWa7Zm0JedXqQ6k7rSglQApQAKwTE6s5PxArtObFSe0WzGo+zchIqet8SmLsLQ8XqrukipfYSWawlVXfPv28rSytGCVAClMBfRUCk0l7oibSkxYTmM+Z/1Xnpee4PAvn1eyNFSu0B3TWUVben9P6oGa0FJUAJUAL/RQJihfY0E9BBoUXJrOPO/8WiGOTUlQtOWGSpuybI6/dmFzR84k4CVxhEmIr8DwKKZWefkag6G5lIXczrTdptdKHW/8BEP6AEKAFKoO8Eeno9HSA9n9xphwL7rjCwjpDX70sUK7XHxKrO3VmqLuXsd/DIwCrh/VEa0ughYTN1WaHECu0PpBdNVlb3p4aadhiXzf/MisTQ7o8OPZYSoAQogUFNgARz0PWc5fX7ogdzZUgaway6Lk2mouO6WKm9KVF3L6bOmZ1vlDhQiUr7pm44W6rqmjdvA4z7c7bWbvxLWrunjLwylVO/X7huF4b2R48eSwlQApTAoCUgVmk364Yl5fV7MwdtRYyMjMirNhJ1V6/D6LhM5z/Z+TZJLOsczZ4ykVJ7nThnibLzU0OMupDXpMRK7SGRSvsrCc1JpijYqQFVpQQoAUpggBOQKDtf0jnnHM2+ggFe3P9YvNIXPnMUK7XnmN6cUvsVTSP4H3Hp/c9R847YkGxQDGfiSOv2VJNer96CRkZGY+d/ZiWu7U0DqdReFSk7toyee8i+P5r0WEqAEqAEBi0BsaqzVeecs2q7xw7aihgZGWXX7S/U1UWs1O7acgL/HMz1GahlFyu1Tb3D2bfEqs63+ruQsH0rhmSpO1cRTfL9iZUdR8gUC513HqhXAC0XJUAJsE4gq7Z7ts6hZdV2q1k/IYsnEKu07/Q6DWTXdtWweKoHVjp3+qGwTIX2N4azUvtNdm13SX8WgZFjyXclUpD3pLUQq7TfS2u7xpP3px9YyLTilAAlQAlkqbtrdc5ZouqePViJlM88zhGptD/2OufL5bOOcgdrXQZyubM1++VkTpiZb1Z2vqJZcrFfcbRz6velkoQWvdfgb2QR3/jWzw2WNGMgs6RlowQoAUrgfyVAeim3nbOyq+V/3XGA/0Na112u6zWLVdrtAB4a4EUetMUrmfWps0Slbct5dm9UfypBUj6KlR0bRb09cbFSu63w+cM+dDi7P1TpsZQAJXBfECA9od5FVGckqq55g7FSzCs46s43mGFRpfYmCUIyGOsxmMpMhqMB/F3fMo9r+9ZEqt7zvEjVyUSoE6u0J7Pr9mb2Z4hc37LQ4ygBSoASGHAEqprPDc+bdiQ4d/qnfsVzTlkPuALeQ4HIgiSxsuNL3Zxl8cxD3vdwGN3lv0SALNTLrttTKFZpT/V8Zx3fZ6u7VDSa23/pC6GnpQQoAUqADQK59ftjybylSNlxXqLqfJuElWTjPFTTMARIsBKxqrNdpOz4lcxfS1Sdqxu34lHDqFMVSoASoAQogQFBgIR8zHl2XwJZeZ5Vu3cUiRQ2IApGC/GnBMj3wzSolF3byPqAwjmHXP50R/ohJUAJUAKUwOAlQBYQkahVpPdFX8EZHN8jma+umHPYmgQ06c/c9eCoLS0lJUAJUAKUACVgIAKk0cPmAi0yx0znmQ30ZVEZSoASoAQogfufwKyNeIys5M+p21vcsA5P3P81pjWkBCgBSoASoAQGOIH8aZ/4ihSdZ0h2L7Gya0P5vOOcAV5kWjxKgBKgBCgBSuD+JUB6zcxq6t5Y11JV58tkfvj+rTGtGSVACVAClAAlMMAJyDR7kkSKjsu9742fytbsS9Nn7pmsyiaZpUgqzwFeZVo8SoASoAQGHgGxuvMNJkqYUnt1sKRZJAuJyMpsGurRsNcTYSpWdn5KHLNI2XFdou5aoO+cc9mcY04SVeeLOZq9WZrWb57Wx8EbtnZUjRKgBCiBQUSApFcUKTpAHshyzT7BYCh68ZzD1qSsmtV4nD70DfeNSVXddYxjVmghUXbskU//NEQfdfKd6IbGSUISaW33FBpoRB+S9BhKgBJ4YAlIlJ1v65xzdv2B5IEOgvSWs+r2VIgVHV+TmMzS2u6J5D3ngV7ugV6+4hkn3XSpG0VK7U/S2u46fV91yqrrnixWdPxCHL1E2fF1Tv0+sb5aA50bLR8lQAlQAqwQECu1r+qcs7x+n4yVkxhQlPTAJOrOVUw2LWXHlZy6znG099w/wD3D2V2vE6bMCm2V9qNRzWfM9VGV1+/NFCu1p3t74Jckau3c6sbTI/TRosdQApQAJfDAEpCotEt1zllau2/0QAcxuvGkpVilPUoe/pmKjvOy+r2RA73MA718MpKnWak9T5iKVR0XZfV7pPqUuWDmMX+xSvtObxrSa2KVdnPezEPetPGkD016DCVACTzQBEiqyDvOuXPKQIeRXb8nWaTQMquJRerOvSSz1kAv80Au34S5Z8zFyo6PdXm9xUrtv/UJqUnWAUhV2oUiZcfPjJNXag/1rvT+x0CuPy0bJUAJUAIDkoBE3TlN55yzavfMGJCFvKtQEnX34t4hU0hVXQvv+hf9VQ8CxIGKVdqDPQFHtD+QFJx9lVmwBY+TdQAihfYM45gV2h8k6k4FSQ/ZVy26PyVACVAClICRkVFWbXeVSKG9RR6qpOczkKFo2n80Fim1XzHOWam9mlO/XziQyzsYyrZuF4bKph0MlSg7X8qq7azqa5nJQq88zd4osbqzu+d76bhCtGa/g0f6qkX3pwQoAUqAEuglkKPZV6Yb0pTWdq0YyGBkz+5PYhwAMzeqPQWaHvK//nWNb/3cVKzqXE++F7FCe1Ok6Oh+bsWlYf/1gtECUAKUACUwmAlk1+3N1jlnEkd5INeFrNLWOWeJqnv2QC7rg1I2Wf1+aaZC+xv5XjKVHV/mTvuETxeAPSjfPq0nJUAJsEZAXr8vUeecparO91k7UT+FKxecsBArtYcY56zsuEKcQD8l6eEGIDCu7VsTMhwuUmq7pLV7xpPY3AaQpRKUACVACTzYBEgUKJFKe0Gk1H4nUXe9OVBpkEYEU04SWlLduXd049eWA7WsD1K5SC95QvMZczL/P/qFk5Y0pOqD9O3TulIClABrBDTtMJZr9sQVPLtPUNRw0JO1E/VDmDiA7Lp9+WJl5znSyxerupbQBUf9AEoPpQQoAUqAEqAE+kuA9MaKph/1IzGaperOphzN/gw6r9lfqvR4SoASoAQoAUrAQAQUy84+M3PNTzQNoR48yTvMMs3+pHkbYKzH4fQQSoASoAQoAUqAEjAkgfbTGCJWareJFdpfJCrt2oLph4MMqU+1KAFKgBKgBCgBSqCPBHJq95X1vIdM4mdrT+Vo9iX0RYJMLdDMUn0hRvelBCgBSoASoAT+A4FR807biJXaYz2voWmvSlSdbd19DOAire0aL1Z2rimccdiHzvf/B9j0X5QAJUAJUAKUwP9FgPR2JeruBSJlx5Ve5/xZ+ayj3P/ruLv/L9fsTSG5s8mrbCQaWEHDEfe7/09/pwQoAUqAEqAEKIE+EMit3x8rVmpPMI5ZoUVWbffYPhxulDv9qJ9Y2bmj9/jfSJS2ijmnrPuiQfelBCgBSoASoAQogV4CVc0nh5PFXyJlx3XiXMWqDu3cXRh6r4AqFp2ylqj3tPQ45t03SHKLnGf3JfR1SPxez0f3owQoAUqAEriLgETduUik6DwrUmivyjX7JXf967/2K1mAVDDjkBfJ30y2DevwxH+tMIPwxIRfVt3eYrFSe07X682fdsT3XqtCXrfKUndNECu1PzDHK7XfkPCcrd34171q0P0oAUqAEqAE+kHg7oQS2bX7SvohZbBDSS5gibr7OZFS2yFSdTUXzDzobzDxB0Bo5JwTLmJV51u9jvmWVN09nzjse6n6IeBhEi5VrNIe7nXMV8WqznaSsvNejqf7UAKUACVACRiAgETV2dj7EIe0tnuiAST7LTGu7ZSJWKndRcolVmkvyjV7BkSPvt8V+wsESGjTnjzdHZcJP4lKe3jk84cd7vXUZXOOOUlVXVtEig4wSVGUHYeqG0+PuNfj6X6UACVACVACBiAgre2eqXPOWXVdGgNI9luCDGWLFD3ORaTUfk5eB+q36AMiUNpwyFVMRhxIkhDF7hvZmn0lpDd8L9Un0dckau1cUW8aSJGi4yz5LujrU/dCj+5DCVAClIABCWSpupQ65yyt7X7BgNJ6S0nUe6bqUlmS13cA/F1vsQfsQMJKNv1wkFTd+YZE1bW2ZPbntveCgDjgLPWeUuKQmetBpf0xq25PKZliuJfj6T6UACVACVACBiQgre0ao3POJECFAaX1kmLezVV2fqorU47mQJZeQn/hQcY2RsYGMWMjY2Od9Woa2RgZ/9H+z3OZDrHmpYzyFmRO8HPwd+AYmw6xJjbE+I9mdPszN183u/RJH6xlIokpOy6nV723LFg8IUB37O+2tkOsjf+T9Z7P2PwRT+PhPfbI8Ic8Hb1tPeVFcs9p06Z5NjQ0eE6cONEzTBjgae443JPsS/bR7X9nSz77s897tck5/mDDbY09/2jGFo/yjW3uMvJ3rz1q8Si/x4bwH7UgRv4ewn90xD8YG/L0P/g6e/Tpf/Dv2BC+8YghjM7TNo/yR9gb8y2cnmbMxn0E356YtwXfyd+G7x5uf9u8hNxUryiXVL9YYu6pfrFejAUyW/dUvygX5v9kP/dw+1T3cJtUbqBlqr2fWaqll0mqpbtJqpmLcaoJt8eG2RunGtv8K9WEOyzVJZCbKpKmp9bV1aU2NDSkVlVVpYZHhacamz2W+rDx31P/Nezh1IeNe2yI8UN5j/wv9viwh/KIPdK71f2t2xoPfyjv9/bIH/4m/yef3bHHhz+Sx9iwIYz248Mfynt8xCOMGZs/njfM6tGxJjbGY03sjMeaORiPteAO6zGXYWMt3O6Yjdcz42y8nh7P8TEZz/ExncDxHj6RmK3viEnErL1HTLL0GF5lxn2yeoTDk9VmDk/WjOAMm0zsGZthU4aZD1MMM31S8YTJk8onTB5TPvHMv4ipHn/mX+oee3Te4yaPzn/c9PH5xqbGLz4x4onGx00eXTDUeGjlQw8ZkdC3T/+Fjxd6qkFE4Im//90o4e9D/i57fNiQvGEjHsk3HvFI3m2762a4+8Zgfmf2ezzPeMQd40mnteocYeKYV7W/1+m5QXU3JNkOHfbPsYwZPzR26O/sb2OHGt+xR5755zjGnv7n+Eee/ueEx5/+5wTj4UMnGg8fOomxEUMnPWU2tOppYtaPVA+3eaxmhN1jNb5x2Y2Zip3M6z8ZNTsuefBDZ9h6mCjtvUyVTj7mSgcfcxXX11rt6mcz19WPM8/NnzPf1d9mvpOv1YuO3hYL7NzMFti6jlho7TxskYXjsEUjOE80Pm39aBNjNo82D+c82mLi8FiLqcOTrWZOTy5mjPtEW1iC35JZc6cv2bJl89L33ntv2bIVrcvyR4vb/aMdl9v6P7XcyuvxFfYBT6/kBo9Y6RgyfBU33GS1EzGeyRrH8OFrHUOGr3UIe/olh6CnX7ILfOpl+6CnXrHpsXXWAcav2gYYv8oJHPaaXeCw1zmBw163839qPcfvyQ12xAKG/dvO/8mNtoHGG20CHt9kHfTYG1ZBj71hHfz4ZpvQJ9/k8J56kxs5fItrnOlbHsmmb/mkmb3tl27xTkC6xTv+KZbv+iVavucTZ/6ed7TZ+x4RIz5wCR/xATdgxIe2XiO2WruZbLN0Mdlm4fTMdlOHJ3eMcDAm9tFwuyc/NnF85mMT7jM7TZyG7bL0HLE7IL3weHTZovMxo5rO+yXFHnQOs+hyCTftdOObdbkLzbs9hObdnkLzPZ4RFns9I632ekRZ7/OMtt3vHm273y3S9oCLwPYTF77tJ24Cu09dBXYHXficgy48ziHfGJfD1fVjDx888smRS5cuHfnu+++OvvLvl47JKyTH/OM9jjuEWJxw4dmecBfanXTj237GmJBzyiPC7rRXtMNpnzju577xTl/4xnO/8I13/NI3gXvGP4F7JjDJ5augFJevA5Ndvg5IcfkmIN35bKDY+WxQlsu5oBynbwNzuN/653C/889x/j5Q7vJ9UK7b+eB8twvB+S4XguTcHwLk9j/6Se1+9BXb/uQnsb3oK+Zc9MngXPJKt/3ZI8X6Z5c4q1+4MZa/cqMsf3UUWFx25Flc4YaZX+GGmv/GDTX7zSnM7KqL0OKae7z1tQAx97qwyOdG8riwG9nq6Juls9NuTWrLu1X/aiVmvz0FL26rReMuDRZ3T8eyTxuw8tgcrD7xAtacnIOXTr6Al068gFUHZ2JJtwYLd9Tg+XcrMX1zGdSv56N6TRYq2tJQMD8W0pkCpGvCkKwOQZIyGJHjvRExxgvZtQmYtXoqjp05BN3P3sPdkFRmwNTvKZj5PQNzPxOY+5rCwscUVj6m4PiZw8HfAo4BlnAg5m8OhwBzcIMs4BRsAecQc7iEmMM1xBzuYZbw5FnBS2AFnwhL+EZawi/KEv4xlgiMteqxOCsEMmaDwFgOAmI48IvkwCfCGl5CK3gILOAhMIdXhBW8oznwibODb4I9/JIc4Z/GRYjUFYI8L8SU+CGhIhBpE0KQOTkUWeow5EwNh0wTDnn9HcuZykNOXTiya/nIUgsgUQqQUR2OhDFBEBb5IkzmhRCpBwLT3eGb6AyPSC5cwuzgFGgLe19rcLwsYO1uCktXE1i4DIeliwmsXE1h7W4BW08rcDytYOthAXMHkx+Nn3l0kZGRUbSRkRFNvDOInOVfVtR/DPmH4OFHHoYp5yl4CG3hG2sH7yhb+DDGgXekLbwibOERyek18rsNPKNs4BVlA+8YDnxiOfCLt4Nfgj38E+wgyMmCzjknjWmDb4wNvKOs4RlhBXeBJdwElnDlW8A53ByOoaawCzYBJ8gEtoHPwCbgaVgHDINN4FPgBA8DJ+QZcIKHg8PsMwKcwBGwCxoB+6ARcAwxBTfUFE5hZnDhmcFFYArXCHO4R1vCI8YKXnE28E3gIK5Mfbs8KZWLEJXtjViZHxJyA5BcEIK0wnCkF/EYI78n54ciXh6M6Cw/CMXe4GV4IDTVFUHJTvBLcIBPrB1TZ584DvwT7BGU7IiQNCeEZTojJNMRMfneeHH5szj/0znmmXYLN/HOzvUY3yBDTLE7/DLMEZrNgSCXC16uA3j59oyF5dshNM8WobkchOXaIVTGQUg2B0ESGwRkWMEn3RJeaZbwTDZnzCvJEt5JVvBJsoJ3oiW8Es3hkWAKtwQTuCWbwD3VBO4pw+GRMhxeqSbwF5kjPI+D6JGOSBzLRfJER6ROskfqRHukjLdHyhhHJI50RkyhMwRyR4RIOcw5nWNMwQkzgaXPcFh4msCSmMczsHR/CpYexIbB2nM4rL1GwNrHFLYBZrAPsQA33BLuURwEpEUgWBQLvyR7+CRYwS/ZFv6pHASk2N+xVEcEpjsiMIOLwAxn+Kc5wyfJCT4JxFzgHe8M7zgneMc6Iq0kBm+8v0HnL3Dx5x8xf9kLSC2OZfZzibCBdxwXfoku8E9yQWCqK4LT3RCa6cFYSKY7goiJ3BEocmO25PcQsTuCxW4IErsgSOyMYCkXITlchOY5IrTAEWHFXISXOIJXxgV/pBMEo5wgKOdCMJqYY49VOII/movwUY4IG+mIkBIHBBbawS+PAx85Bz45HPhk2cFHzIFXGgfuSTZwjbOGS6wVXGOt4BZvA+9UR4TKvBE7OhSZigjkNcRjVGMGqlbmou7fo/Hcu5Pw/NbJmPuREvM+VmHB7jos0k7Fwl1qzN+uwNytNZj1ziRMf2McNBvKoVpXhJqXZJiwOhOV7ckoXxqLktZIFDbxkLsgFDnzg5A1NxDi2X5Ime4ByfOBqFkhxwZtOy7f+JnhfOXar1i5pRnRI73hlmoG13hzOEeZwVloDie+GZzCzeDMM4ULzxSufLMe45nCjWcGD745PAUW8BZawJts+ebw6TU/vjkCBGYIEJohMMIMQZFmCIoiZoqgSFMERpLPzREYYYlAoRUCBFbwFVjBi28Jd54l3PlW8BSSZ5EtfGLtEZDMRajYHRG5Pogt8Uf8yAAkjg5E6vhgiGp6nK68XojcegHk9XwQZ5xdG44sdSikqlCIFaHIrAlF2qQQJI0LQky5P4RF3giTeSBY6o6ADFf4JbvAO9YJHkJHuIY5wDnQDlx/W9j7WMPW0wxWbiMYp2ztYgKOmzns3Kxg52YJWzdzWHJH3Bhu8WTHP4c+VGlkZORqZGREp9f+Mm83iE70t4f/pnnEeCg4XqbwiraHV5QdPG87YQ48IjjwjODAS2gLL6ENPAXWPUZ+7zXyOTHvCFv4RHLgF2MPviTjjjMct4p5AIdkOCJc7ARBtguicl0RW+SBpJE+SB3tj5RyfySP8kPiKD/EFHtCkOeKsGwnBIvJw7qnBeyX6gTfZGf4JHDhGesAtygOXCOt4RJhDdcIa7hF2sCNbEkDIMKaMc9IG/gneCJp7EqmPJlTPkaErBBhyW6IyPRGXHYgkvJCkFIYjrSScGSU8SEaJYR4dCSklVHIGhfNWM6EaMgmxUBeHYfcmnjk1SQwll+TgNzqOGSNj0BGRSiSRvph5NQM7Oh++7bj+O6nb9DyWgNylVEIy7OFf7YZQgtsEV7MQXgJB7wyO8b4ZXYQlNlDUGoPfhFx1nYIl3EYJx4ssUVQpi0CM2zg32t+GbbwF9kiQMxBUJYdQuX2CMvvOTaixBFxFc5Iq3JHTp0PCp8LxMg5Iah4MRxjFoSgcmEgKhv9UbHQB6VzPFAw0x05GnekT3ZDbIUT+IX2CJBawy3BFHa8Z2Ad+Ays/Exg5W0CK6/hsPZ+Gra+w2AX8Azsg0zgEEwaWRbghlnCmWcJV9IAi7CCR7QVPGIs4RFnCc940oCwhncSB97JdvBKsoN3siN8UrnwS3eCfwYXAZnOCMh0RUCmGwLS3eGf5gH/VA/4JrnCJ5E4WQ9UzRiDk1+euM13976PUFlXioisIHjG2sE3kYuQTA+EZLgzDjkkgzhlN4SLPRAu8UC41AOh0p4HbaDYjTmff7oLyPXll8KFX4ojfFPs4ZvKgW+aLXzSbeAnsoG/2AaBUlsEZdsimHwvebYIK+z9DkfZQTDGHhHjHRE9yQnR1c6IqnZBVI0Ls42Y5AThBEcIxjmCN8YRoSMdEFxsj4B8DvxzOQjMc0BIkQsEIz0QO9YfqZPDIdFEQj4rFgXzk1DSlIbRS6QYu0KOCavyMWFlAca152F0aw6K52VC/lwSpHUxjCNPq+EhtToc6ZPDkKEMhaguBGJNIMTT/CCa7o3MGZ7ImOGOzJnukM7xRM58b8gW+iBrgRekC7wxenk05r83CQfP7r7N+IsLR/HsutFIrHVF9CQuIiscwSu0R5DUFt4pFnCPN4NbjCncok3hEWMOr1hLeMdYwjvKknHIXnxzeIWbw4dnCd9wC/iFW8A3zBw+xMLN4cezQIDQEkGRVowT9heQz03hFToCniGm8Ao2h1eIJTxDLOEeYgmXYHOmB+7Ot4FfrCOCklwRluEJYY4f4ouDkVbJR1ZNFHJrY1E0LQ7FM+JR/FwCSmbGo7ghHkUzY1EwIxp5z0aCOOqcOgGy1HxIVQJIVREQ1QiQODYEUWV+4OV5ITjbDcy1ku7K9Ja9orlw49nDOcgWDnf1ls2dTWDu9Axjls4msHQeAWtXM1i7m8PS1Qwj7Idffmz4I8uN/m6UbGRkNHwQuQpa1L+KwJAhRjZDH3n4tJndU/CNdUBgChfesbbwirGBV6wNPKKt4R5lBfdIa8bIg9ZVaAVXgRVcBGRr02u2cBXYwpVPjANXoR3cIx0QLEq47ZzTa9YjttgDqWO8Ia7yg0wVgMJpoRg5S4hx8+NQ1ZSC6pZUVDWnYmJTMipfTEDZ8zHIrxdCMjkMaeODkDAqAJGFPuDJPRAicUVgphP807nwS+t5kPok28M3xQF+qY6Mkd99k+3gk2iH8KxEpNe8w5QnrWozeFIBwjJcIZR6IUbmh/i8ACQWBCG5OATpI8MhqRRCNjEaeTUxyJ8SiwJVHIpq41FUS7ZxKFTHo1AZjwJFHOSToyGZEI7UCn+kVwZi9nIFvvr+89sPtZ0H3kX1vHzEVbjBK2s4fOQmCCqyQEipJUJHWiO83Aa8clsIRnMgHG2PyHIHRI50RESJA4SFDhDkOyBczkFoji1CyTbXDiGkR11gj/BiB0SWOyNxvDtSJrkjvcodUoU3CjQBmDCHD01zPJ5vz0DTS3lYuXEsNn5Yh61dc7Hrk4XY+cl8fNA1E6++X4MXlssxbnokcif5I32UO6JlDghNtYZXhCmcQ0aA628Krq8pHH1NwQ0gn5nCJdwULgIzuEZYwCXSCm6RpHFkDc9oa3iTUZI4G3jH28Ar3hqeCVbwTLSBV7IdvFPt4Z3GhW+GC/xJDzXbEyE5ngiVeSI0xwuh2V4IyfJGsMQbQSIfBGR4wS/VHT5JLoiSh2PlhnbcxE2G72/XLmPZuhZIK5IQmOIKjxhbBKQ4ITjDFSG3zQUhGS4IFbkgJNMZQeSaSe25NrwT7eCTQHryjvCN58InxhHeMdxec2Qaq57R9vCMsYdXrD28yWhJgh18kojTtoG/yAaB2bYIyecgvNQO/NH2EIx1gHAiFxFVToie7Iw4hTPiGXNC3BRnxNQ4IarXcUfXuCFmigfiFF5IUPkgqdYXqZoAZDwbjMxnQyGazoN4uhCiaRFIrxMiaQoPMRNCETE6ELwSfwTJPeArdoGvyBn+Ihf4kXtCxEWQlIvwPGdEjXRD/FgPJFe5I2WKG1JULkirc0XGs26QPu+N3AVBKG4OR1mbACOXCjBxbQJeeH803ju2Gr/e+rH3Gr6JD4+9jvL2GKQ3eCCl3h2JClfETnCGsMwRIXIO/ETW8E4hpcoviQAAIABJREFU37ElPGIt4R5pCTe+BVzDyNC1GVyCzeAWbAaPUOKgLRgH7cUjvWeL20PZZDjbO8ICHqTHHWYKl+ARzLXm6GcGrq8VnHyt4ehtCTtvM9j5msE5xBreUVwEJ3uCJ/JFlDwI8cWhSB4VhtQxoRBNCkeWggdZLR/59REonhGLsllJGDk7GaXPJ6K4IQ4Fz8Ugb3oUZJoIZNdGIFsVgWxFJMRVQqSN5SGpPARxpYGIKvSHMNcHYVJvBKa6wyvWGS48ezgE2oDjYwVrXU/Z1QRWbqaw8bDoMU9L2HhZwdbbErZelrdMuSafDn1saI2RkREJ3PPQX/Wsp+cZRAQeHvIPzWNPDYW3wB7JJUFIHRmK5NIQJJUEI6E4EHGF/ojO80GEzAv8LHeEil0RlEmGGbnwTXaEd6I9POLs4BZrB9doO7gQi7KHS5QdXCI5cI3iwD+Nd9s5Z07ZAvGkIOTVhqKsQYDxi2KhWJoMzep0zHhVhIYNWZizOQ/z3inF/HfLMXdLOWZtKEP9mkJMbslBxex05NbFQlwjhLgmEuLJ0ZAqYpGljEWWIgbSmiiIqoTImChA2ng+ksaEIqYsAIICb/BzPRE3cjwyp+wEecc2oWIRAlM8maHo4FQnhGW4gC92hTDLDVFyD8QVeiGxzBcp5b5Iq/SDaFIAJNWBkNT4QzyZWCAyqwOQNsEX8RUeiBrpivBCe6SND8brW1fiBq4xD7Wffj2P9s1zkT81CiGFVvCTmSC81AqCUTYQlNtAWGGLyLEcRI+3R8x4R8SM4yJ2rDNix7gyjjy23A3Ro1wgLHOAsNQBkSVOiC5xQUypO2JGuiFujBsSJrohXeGJHI0fSp4LxbhZUahfkIHGpaOwfr0Gu3e04MQnr+LcyTdx7ugmfLn/VZzuegVf7HkV3x55Gxe/+Ag/n+3EVye3Yte21Xj1leexcNEkKOpkKB4Vg3RpIKKTPRCR5AZ+oisCo8kUB5nXs4I36RnFWcAz3pwxrwQr+CbZwi/ZDr6koZRsD59kB/ikOsA/wxHBEmeEy1wRUeCJmFJvxI3yQfwoP8SV+SGmNADRxaTxFQhhfiB4sgCEiH3hn+YJnyR3+CW7Y6SqCAeO7e91GMDBY5+g+tlxiM4Kg0eUHTN07pfoDL8kYk7wS+LCN6XHenrEpFfc8zn5n08iF96JTneZMzzjufCIdYR7lAPcI+zhIbSHu8AObqThSRqgETZwi7aBW5w1PFNs4JNpg4AcDoIL7BFW5gD+GEcIxzshqsoZMZNdEK90QYLaBYmMuSJR7YqkWjck13kiZao3Y6lTfZFW74e0en+kTPVDcq0vklV+SJjij9hJvhCM9kJQgRu8pc5wS3WEc6IDuLH2cIjiwCHCBtxIGzhF28Il1g7uiaTh44gAKRdhuU4QlHARVcFF/ERnpCrdkTXDHyULhZi4Kh11/87Hc2+NwuwPxmD+jvFYsW8a3ju9Emd+PXKb8cXr32HdgRcx8dUUFLSEI/uFQIgb/JE21Rvx1W4QljsihIwESazgndY7nRJtBrcIM7gLzZnhbHeeKTz4pvASmsInygz+sRYITbYBP8MeEVnOiMl1Q0y+O2LyPRCV644ImRvCJS4ITHaAd4wt3PmWcA7tmad2IttwK7gJOfCOdoR/oguC0z0QIfNFQkkI0it5kEwUQFrNR9ZkHmQqHnLrBCiYFsX0kvNnRCFvRiRyp0cglzRGp0cieyrpKfMgUfAhquYhbVwokkYHIa4sANGFvojI94VAThyzFzPH7JPgDA/Sa45whJvAHq58O7jwOHAlxrdjPnOLsId7jCM84rjwjOPCRWB3xcJ1xOsPD31YamRkZGFkZHRPgXsGkUuhRe0vAdJbHvLIQ1stHYYzc6niMXwQE43hIbMiDKIx4Yyljw5F6shgJI8MQlJpIBJKAhBT6IfIPB8IZF7gkZ5OlgeCeocEfVOd4J1ELkZ7eMZx4BFrA99UL2RO3oHMyduQXv0moovdkD7BHwX1AkxYkIKpK3Iw89UivLBpFBa8Mw5NH1ajZasCi7eq0fZhHVrfq8XCzQrMeX0Spq8dg9rlJZi8JB9VbbmoapOjqk2GqrYcTGzNwvgWKSobJSibm46c+hikVIUjapQfePkeCJf7Im7MHIiUHYyDDpdXwlFgCm6EKVyiTeGeYAavFDNmDjhQao4QuQXCCywhLLNGdAUHcePsEDfBDgkT7BA/3g6xxKFWcBBZbgt+qQ3CS2xQvSAPx88cvP1QO/CZFtOWjUWmIhDhZdYQVnCQMMkZCdUuSKgh5oqEyW5ImuLeYzXuSJrkjsQJpKfjhrhKN8RUuCF6tDuiR3kiutQLMYx59jjmCjekTHCHuNobRapgKGcno2npSLz+shLvvjwd7y7X4K1mBbY0TsaWRVV4e9EkvL1wIt5aQLbVeLdZiQ/aNNi2fCa2rXwe29fMxa71zdj73ioc37MZezrfQfsrqzGvVYUxtVJkjOJDmOOBUIkjQqX2CJPaIlRizWzDsu0Qmm2PEKkDgnstSNLzNy/XlXHEKZXBSB8fivQJociYFIZMYhPDkDEhDOnjw5FaGYb4kcGIKPBHqNQT/mku8EriwivBAeESXyxc8QJ+vnyJ4Xv95jW8+uZayMeLEZDkDieBDfMg9I53gVe8CzwZc4VnvBs8E9zglegO70RXeCdw4Z3gAO9ER0bbM5ELj0RHuMU59FisA9xjHOAeZQ+3CPKQ5cBVYA8XgT2cBPbgCuzgJODAmTQ+idNI5MA7nQP/LDsE5dsjtNQe4RUOzLB1dLUTYqc49zhnlc5BOyOpzgUpGjek1rsjtd4DKRpPxlEnqj0QP8UdMVUeiBrrAcFod4SVuMBf5gjPTFu4JFuDG2cNbqwNHKNs4CC0hYPABg58GzjwbGDPswY3ggPXOHtmrtpf5IDALHuEF3ARO8Yd2fU8jFuciRmbytG6W421B2djw+kmbDm7FB9eWIOOnzbhxOVuXMOV29fw578cxMoDz+HZ94swZYME419KRcWKRIxaEovS5mgUvRiJvOcFyJ4WjrTqAESXuiM02wH+KdbwiTNnzDfOFAEJ5ghPt0F0DhdJRe5IK/eFeFwgsqpCIVOEI3+qEMUzolHaEIeyWfEoaYhD0YwY5GmiIVNFIEcRAUm1AGljQ5EwKpCZP44t8wexuDJ/JJQHIqUyBBkTwyCqDoOoJgSimmBkTg6CWBEMsSoEktpQiGtDIKoNRoY6CBm1wcisDYZIHQqxKhyiKTxkVIUhZVwIkkYH9jQYS3wRXeyLyAIfCPN8EZ7jzVybQSIPBJIplwxXBBLLJGsTXBAicUOwxB0hWWQUyIsZBQqWeMIj2uH0M9ZPPWtkZBRqZGREw9T214ndj8f/4+G/aYY+9jDs3EcgLNUFkVmeiMz2QjRZdJLrg/h8XyQU+DMWXxCAuPwAxOT6IiLbC3ypB8LFZM7ODaFiN4SIXBCU4Qy/VC58kuzhGc+BZ5wNPMkwZoI1vBKt4Z9OhmRzwM8XgZ+fgnC5M+LLfZGjjED5rDRMasxhHO7MdZWY++8qLNisQPPbU9H23jQs/XAG2rc+h6Vbp6P1Qw0WvafE3Ler0PBGJZ7dMBJTXy1E3Sv5jCnX5mLisiyUvZgMiUaAhIn+EJS6ISTXEX5iO/im2yIoKxZRJZORUNkIfn4igsTWCMmxAi/fGlFltoirtEMyWRQ12QFpCgekqRyRUctFZp0TMmqdkKHmIk3JRfJkByRMskPMOA4E5dZIqfbEirfm4perF5mH2m83LuPfO1diUpMcaSpfxFY5IU3tBZHGH+JpgZBOD4Z0RiiyZ4YzljUjFNJpQZBoAiGq9UOG0hvpUzyQOtkdqTVuSK1yR9okD6RO9EDa/2fvPaOrOLDsX7034fXM9Mz0OJskEEI55yvpKuecw1XOOed4paurnHPOGZAQSQIRRMYGjDE2OADO3f3v4O7p6fTv6Wn/3qqSm57v/ublD3tVCa1C3AJq1zln733EtrUeIaX6RJcbk1VrS0NrAMvThWwvN3J2vIaTfaWsdxdyoqeQU4PFnB0p5dx4OVtjZWyOlnBurIztyUouTtdyeaaenRkFV6YUXB6v5/psC2+fHOHzOyc4dvoN4hRvIh+9xcKJPoobQgjPs8Ej1QC3DAPcsw1xyzYUXx4ckrWxT9ydP7qk2eKarotHhh5+eSYEF1uJY4nwMjvCS4WKxoHQYgeCCoQKRYpfthT3VAn20SZIwgww9dfFyFsLQy8tseqIygvl5lvXnxPGZz/5lPq+WjzinNB310DHRQ0TXx0sBbFeuPAQleCWbIdXhhPeGU64p9rhkmiNU6wV0khTLEMMMAnQxchPG0NfLQx8tDDw0kTfQwM9tyPouarvVs1iF0gNLZdDaDkfQstJDR0ndXSd1NFz1sDQXQMTofoO1MAsXAOLGA0kSRpIM7RxyNXBuVAX1xI93Mv18KjQwatKB+8aHXxrdfGp1ROrZ+9qfTwrDXAv08e1WB/nQgOc8vVxzNXHIVsP+0x9HDIMcUw3xjHNFIdkM+ziTbGWGWMWrCf++XU8j6Dpegh15wMicRsEqGMWoYVtgj6e+ZbIGl3Jm4yk8WwOY3fqWPmoixOfD3Lm52Oc/+0U1/90lId/2eHnX/9tDPMnfs+Nz0/Sf6OYxvNJ1J+No/ZkNDUbUVSdkFF2PILipTAK58MpmBJeikNJbfUnusqVwBxrvBJNcJHpYBekhq3/AeyCD+IceQSvZANx7CMrtydR6UFWtx8Fw8EUT4ZRPB1OyWw4ZfORlC9EUbEYQ8VCDOXz0ZTMRpA/HkzWkD+pvT4kdXoR1+pOTLMbUY0uRCociKi3I6LelkiFrXgUzmUKOyIVwq8Ls3trQuQSgmv/hhCBsKvtCKuyJ6zSkbByR8JKHQkrcSS81FnsxoWVuBJe4kZEqSeR5T5EVfqKiK7yJarKG1mV5y4qvZAJ36/wExFa6IFHvO2fjJ20t//1hR8kqKioqKmoqPy/30Ve+f4zfbs7cPD/+XuVnX/+939gr9a/c8TiFbSs96Bts1eEls1eNP8XtGz3oyO0joSKxOkQen+FKLY6iI7jAbQd9qNlvw8Nu71o2L+OpsNraDu/jp77fgy9VTHxO4SZIKIJUsUs6ABmIfuxijiIXaw6DvEauKboElZmQ2abP1Vj8TQuZNO8lC+iZTmf1tVC2taK6DxdQudmKW1ni1CezKF6JZHiyXDyR4PIGfQno9eHxDY3Iuqk+JWa4ZFrgEu6Ds4p2nik6+GfY0xIvjmRJXbIyjyQVfgRUy0lptqYuHpjEhuNSGgyJL5JnxilLjKFDmFyLcLrdIhU6BGh0CesXp+gGj38hLlhsQau+UdwzjlMbk8I95/efE4cn/zsQ/rWa4lvdcWrTBfPMh2C60xFQpY1S4lqdSSm3UVEbLsL8R3OJHY6kdztSGqPA6m9dqT1W5M2YEnGgBWZfRKyeiVk91qT1y+leMSJmkkvOuYjmT2WzYnVcrZma9gaquJsdzlbvZVsD1VzcbSGy2M1XByp4OJIGZcnyrkyVcW16RquzdRydaqGnYkadsZrRVydkHNzpoE7S628dayL7eVZ8lt2no8kxo6dZ+ZoOYVtQfjnmeGWZYBHnjGu2fq4ZOriJrTX8w0ILAsgtLKXiKoyYqp8iS6zQVZqQ2S5HeHl9oSU2hNQYIdXlg2uKZY4xJsiiTTAIkQP8yBdTPyFallbJGZJsBmKfjk/++qnz+/v5tUzJFTEYhNujnGADg5xEgJy3Yko9SO2Koik2hAyFJHkNcdS1J5IaVcyJV0p5LcnkKaIILLUG5ckCeYhuhj5a6LvfQQ9zyPouauj5yaQslAxC+Srhp7QJnY+iLaT8O9dDR1HdXQdNdFz1kLfTQsDof3to45BgBpGwYcwk6kjSdBEmqaDQ5YOTnk6uBZp71bP1dp41WrjIxegg0+NLj5V+niVG+BVZoRXhTE+tab415sT3CghusOJlH4fskdCKBiXUTodT/l0EuXTaRSOJZHeE0V8cwiRNb74Fzjini7BLcsSzwIb/CrsiWz2InNMRvV6Jt1Xqph8q5HlRx2sf9TNyae9nPqkhzOf9XH5p9O88+tL/O7rXz2/x5/8+hH9lyvIWfAmd9Gb/GUfSo4HULYeRPmJUMrWwyk+Gk7RUhgFs6HkT4SQOxhEepsfyfWexJY7E5pti1esMU4h2kj91LHxU8M26DCOkZp4JBoQlG9NdK0LKW2+ZPQFkT0cQv5EOMWzUZQvxVFzLAn5WjJ168IxgZqjsVQsyUTyLpwKIW8skMxBX5K73YlrdSJKaY+sQSBiKREKW8LrJYQ3WBGhlBCptEHWYCN+T1ZvR1S9PdF1TsTWORNX70Z8nTvxcg/i6zxJrPciSeFDksKXpHp/kusDSVGEkNIQRmpDOGnKcFKFc2UYqY1hpIkIJ71RQCQZzZHi92Kr/PBJtvu5pvnBHhUVFScVFZXvs+O/HX99N68WLFI/+Jd/YL/GS1h6auAQoo9DsAFOoUY4hhhhH2SIbYABlj66mLprou94CE3rvRwSVbkvsd/wxV2bjP4L7NMT8CL7RbzAfv0foWr476iZvsARy5fQtn0NPce9GLju21Xmeu3H0GefaPsRlK5WEerYxmjglKKDT4Ex0fV25A8EUj0Tg2IhEeVSEsrlRBpXk2g6nkzTegrK9SRqj8ZROhdO1pDw1uwq/oeMbXIgptGRyDo7QiolBJRa4FdkRkCJOSHllkTWWBNbLyVBaU9Skx0pzVJSmm1JabEmtd2atE4JSe3mRDcZEanUJ1yhS6hCl5B6gVB1CJRrEyDXxr9GC58KTbxKjuBZpIFr7mECywwZ3lDwq9/tWqT+wp85f/cYhQNReBUZIElRxTFHA89iQ/zKzQmstiZULrzBOxCldCSu2YmkdidSuxxJ73Uga8iB7FEHsifsyZm0J3/SjuIJeyomnaiZcKV+2pveo1HMb+VxYquScyfrOD9Xw7nBSrb7qtnur+XCcB2Xxuq5PF7H5Qk5l8druDRWycXRMi6MlnFxrIKr03Juziu5OdfIzVklN6YUXJus58pkPTfmlNw52s6t1W7aeo4TXn1bJOfs1hv87IsdPnq6wanLXZR1hBKab0FgvimBxWYEl1sQVmVJVK03kdV9hFTcIrzqFLE1uSTInYiqESoTWwJKJXjkmuGSYYJjmjEOKYbYJRsgTTDANs4Aqyg9LGV6mIfqEJzvw+b1M88J41e/+YrO6Ta80tww9NfBMEAb11Q7wkr9SG6QkdueQElPClWDGdSNZNM4mU/zTAFNMwUop/OpncimqC+RFGUIsgpv/POccUm2EluPVuG7NipBHW4ZrIuVoK0I1cZCEFiJnSEdTP10MfHVxdhHF2NfHQx9tTH018QwQAOjYA2MwzQwj9bEOkkLuwxtHHO1cHlOzDr4yHVF+MqFWbM+fjWG+FcbE1xrRkSDhLhWe9J63SieCaHpdCoD18qYeVvJ8vudHPuoj+Mf9XH0/V4WH3Qw/WYjIzfq6LlcSePZAupOZKM4nkXLWg49G0UMny5jcquK+Ut1LF9v4ujtNo7daWflTjvztxoZu1TC6IUSVm60ce/ZBf7Cn8T7/H+//h3rd8ZIHLQnsEmfoGYDgpsFO5UxUT2WxA9JSZlwJWPKk4xJT9LHPUkd8iCx25WYJidR6RxWIsUn3RxnmT42gZpYCLZK18Oie8NIsLW5qWHuo4FtuB5uyeYEFdkTo/AktdufnJFgCqbDKJoPo2QpnLKjEVSuR1G1HkXlWhTlx2SUroRTtBhC3kwAacOexHc5ES201ZulYjcqrMGasHorQuuETpSE8DprwuTWhMttxOeE8KyQ1TkQVe9EjMKFGIUrsQo34ho8iG/wIq7eh3iFPwkNQcTXBxFdG0BUtQB/omoCiK4NJLYukHhFMMmN4aQ1R5LWFEVGUzQZLTLSlGFElXv92TnC/NbLe/4tS0VFRef7avm7yavf6lP94Ac/OPiP//z3da8deAH3MEtSq/3JkAeTVRdGbkMkeY1R5DfGkNsYQ2Z9NCk1EcSVBBKa5Y5nnC3SICNM3TXQsz+IhmQPaqYvo2r0IgcMX0DV6CXUTF9FzexVDpm+jJr5yxyWvIKG9DW0hTmu82tou7yKjturGPntRxqliXuqIQEFFkTWWpPYZk9Gnwv5o16UzQRQsxyG4rgMxYko6teiqDkaQdliMEWzgeRP+pEx6ElCmxPRSnsi5LaE19iKc6TAUkuRkP2KTPEvNiWg1IyQKgsi6yTENNoQ2yxAQkyzBdHN5kQ1myFrNCZMoU9AjTa+lZr4CKgSjlr4VGrjU6WDj9CGLNPBu1QX72JdvIt08SrQxT1Hh7QmP66/8zeL1M/+80uGN5qJVXhgn6GFZaIatilaSFN1cMzQxyXbALc8Y7yLzQiosCRcbk10o5T4VilJHXYkd9mR1mdPxrAjWaPO5I25UTjuQfm4L4qJEPrmEzl2ooztkwouLNaxPVbNdm8V273VXB6q4+KQnPNDNVwYreXS+C4ujlWxPVLB+aFyzg2Vsz1SzeXxBq5MNnF1sonr00275Dyn5Mqsgp25BhHXZpUsDo+RUr9bNYdXvcHWyU3+8+MdfvJki1vXhxmbzaVIeKDW2pPa4EhKsyNpbT7EN8gJqbwlCu7Cq88R31BOQpMLEXIJQZXm+BQb41VghGe+MW45RrhkGOKQYoBtgh6SaF0sZToiWZZ15/PJT549J+brb10joz4NabQVOkKlGqiJVZQRDskW+OTZE1XrQ2ZHBKXDSVRPpFE7mU7NVBrVkylUTyZTOZ5E2Ug8xYMx5PVEkNEWTILSh+g6T6LqPZAJUAjw3IXwdZ0HMrknUTWeRFZ5EFbuRnCRM/75jnjlSPHItsU92xbnTAn2qabYpRlhl66HQ5YeTnl6uBTr4V6mh6dQHdfo4ys3wE9ugL/ciIBaAYYE1hoR2mBObJc92dP+yM8m0Xe3nNmPWjj+40HO/nySC7+YZednc+x8Ps2lD8e48GCA7bu9bN/oYvtyB1d2OrlxqZtbW53cPt3OndPtvHW6gwebPby91cv9c728tT3A25eHeONyHzsX29m+0MWVm7P87JdPn9/jT3/xmIaVZHzkWnjUaOBRq4lnzS68hBdUpT4hbSaEdZgR2mlKSLspgc0m+NULCnNDPIuNcMkywC5OD/NgQVB3CG0HVTSs96NhfRBN60Pi8YjkAOqSfWjaCYpuNWwj9fDPs0FWsyvOSmgX5thupI54kjXlR85MALkzgeTNBpM3E0T2ZAAZo36kDXmT1OtOTLszsmYHIpvsiWyQ7lbO9dLnbW2hnS1rsCeq0ZGYZhdiW9xECC3xhDZPEtu9SGr3Jr7Fm7gmL2KUXkTVexJe605IpRuBZS74lzjhW2iPd4EtXvkSPPOsdpEvwavAhgChI1TjRFiVM77ZNr83dFaf/Lv/7++8VVRUXv5WD/DvL/5u3oEf/PDvHf7tP/75E3M7HfKU4TRP59A+X0z3chl9q5UMHKtl4HgdvUdraV+oRDlZTPVAFgWt8aTUhBKZ74F/qj1uMZbYhxoh8dPBzOMIJoJS100I3lDHxEMdE08BhzEW582H0Hc7gJ7bfvTcBAWvKpIQbdwTrQjOdyau2oestlCKh6Komo6jfimBhmMJKNfjaViPofZoBKVzAeSOepDe60xSuwNxTVJktdZiJRxQZIZPnjEegjo6XRfHFC0cUzRFG5Frtg4eeQKJ6uFbqodv2Tco18O3XBdvQYBVoiVWvu6FGrgVaDxXR7vkaOIkhEekaWKXooE0RR3bZHVsEtSwiT+MbfwR0bbkkKiLcryEL37+t9nctQfblPQm4ZVnhmn0fszjDmKTooFjli5ueUZ4FZviW2ZBYKWEkBpbIuuFz+RKcrsXGT0B5A2GUTQqo2QiltLpBMpmk6meT6dluYDxdTlH1xo5u9LMudlGtkbrODNQzcneSk72VnC6r4KzfRVsDVRyYaSGy+NydibrRAjnF0flXBip48KIME9u4eZsF28u9fLGSjc3V9q5ttrK5eUmLiw0sD0r58JUNVuTzcjb1p+3s+Xtp3jjRDef3p7iJ49WePTWBJvnG2gXBHld3hQNeFMw5ENKew5hVZfE60KrrhFd34Ggig2rMSOwzATfQmN88o3xzDbCLd0QpyR9pDE6WIbvzmwNfdVxibNh4dTsc8L443//kcn1SSJLwpDGSrCIEqptK5wzJDhnWuGabYlHrhWBZXZE17uT1OJLRlcgmV2BZHUHkdsbTOFgOOVj0VRNxlI9HUf1TDwVM/GUzcZTMhtP0WwchbOxFM/FUzqfQPlCMlWLKVQvpVC7lIJ8OY265TTqV9KRL6VROZdEyVQcBWPRZA1EkNYTTGK7P7EtXkQoXQlV2BNYZ42/3BJfuSm+cuNvVNkGBMh3EVRnQFCdIeFKM+I77cgf86NpLZnRC6UsX29g43Y7W7d6uHCth52L3Vzd7OT6iQ5uHG/jxkoL1xcaEV6irs42cGVa8fzv/OpkPcJ4Yme0mktD5VwQRH/9RVwcKuXGXD1vn+7nyZvH+erLt4E/i/dZ6PhsvTVPTKsE13J13Ko0cK8WCFoHj1odPOXaeNXr4KPUxVupJ8JLqYdHvQ4uVZo4lmhgn6uBbYoGFpFHMPBTQ8P5AAdt97Df8jX2m73GAePXUTXaK4ZyHDTai5r5PjTtVTEN0MIx0Qj/QgnhNQKxOiBrciS23ZX4bneRpBP7XEkacCV5wEVEUr8zCd1ORLfYES7OloXr7MWOVHi9A+F1DgjH3Q6VCwntnqT2+pE9HEz+eDhF0zLK5mOpXEqgejl+F0IbfTGO6sU4qhbjqVpIoGI+gdLZOIqnYymYjCZrKIzkbn/i2ryQNbkSoRT+rA4kdLqR1OUhVOF/cU82fecV1ReKVVRUjFVUVP7+u8ks33+qb3UH/vnf/rHu1f3/QUhSjp4zAAAgAElEQVSKA8qpVDqWculeLWJwvYLRU7VMbjYwsdnIyEklfcfltM6XUDuaRWFnHKl1wciK3QnMsscrSYJbjDnOESY4hBphF2KIQ5ghDuGGOEYa4SwzwTXaTLQw2EcYYROih7UQ8hBmiHOsJX7pToQVeBFd5k9ibSiZjdHkdyVSNpRG1WQ61TNpVEwnUTwWRWZPAImCuKPWjnBBXVm62zb1yjDEOVEHafQRrGVqImyiD4shG3YJR7BPPIJdkhDYcQSndE2cM3dtI245mrhma+CarYlrlqboGXYQEp2S1LFL1ECacARpvAY2sUewijqMecRBTMIOYBR6AIPg/egF7EXXfy96/vvQ8Xkdp3hTjp6b43++3rVIffXbXzK23k1UpQeSOHWMZfuQJB3GIUMb13wD3AsN8Sg2xqdst6UtiNSiGtyIb/IlrSOE/IFYyifTkC/l0bBWTPNGJe0bNXSvyxk+3sDcahNH55tYn1SwMVTLib5K1nrKOd5dwtHOQlba81lpzWOts5DTfWWcGxJmy1VcHhNmyHIuje22uC+OK7kw3sjFiWZ2plu4PtfKjflWrs23sDPbxIWpBs5PKDg3XseFyXom+seIqBKq3zdJlF/j3OIEj84M8NmNBX71gWDFOsHDt8bY2Kyiczqash5P0pvDiag5KlbMgk0ttHKJwFJnPDJ1cUrSwiFeE/sYTWwijmAZJPjQD2PodQg9d1W03YSAEzWSq6N5+NHfLFLvPHlASXcenpmOWEbpIRHsNYKtJcMKt8z/DUvcMgVY4JljgV+BoM4VyNpF9LCmdfiQ2eNP3kAwZeNRVM8mUDufgnwhHfl8BlWzqZROJVI0EU/RRJz4glQxn0LtSgZCNGbDeh7K9XwUaznUH8tCsZZFw1oOjcdzaFjJonY2mfLJOIomosgbDyNzNIiUIV8S+tyJ6nAgvEkiag6Ca42JaDAnpllCYpsDOZ0eVPcFMzyTxqm1aq6cbOaNkx28eaKTN453cH25mauLTdxYbOb2UjNvLLfw5kqbOHa4e6yTe8e6eXu9nwcnBrl/vI97q93cXenk7ko7d1fauLvUxO15BVcmKtkeLObW0Xae3TvFH3/9+fOXn5/8+hPajhXgVamDY8lhnMuO4FKuiWulJq5VGrjVauJepyUSsYdCF48GPYSja50WzpVHcCw+jDRbDUniYUzD1dDzO4ymqyqHpPs4YL6H/YavidGVqjqvcUh/L+rmQkiQBuZB+jgkmOKVZ0VgqYSwahsi5FKihXFPqwsJna4k9QiE7CoqwpOHXEjsdySmy56IFltCFdaE1NsQprAjvMGBcGG01SwEtbgQ0+ZKbIcbCd0epA74kjMudN8iKVuKofpYAvL1ZBpOpdF8Np3WrUzat7PpvJBD56U8Oi/l03m5gO6dIrp2iunaKaLjciFtFwto3s5FuZWJ4mwais0UlOdSaNhKpWotjoz+wD+6xJkf/eEL/xSqoqKy93uL1Leir+/mxT/40Q8O/uuP/mnHSKJGjjKAlvlkWubTaV/KEtGxnEfXSgHti3k0zmRSO5pESa+MzOYAYqtcCci1xj1ZsEnpYxeuh12IAXbBRjiEmOAYaopThCnOkaa4RJnhEWeJV4IEz0QJHgmWuMVb4hRtioPMGI9ECSF5bshKfYitCCC+JpiE2lAS68JIVkaQ3hZFRkcUKa2hRNd5E1Bsh0emKc7J+jgl6OAYr41dlBAZeRiLEEFQdkCEeYgqFiGqmIeqYhEupDR9g4iDWEYcxEp2SIREdohdqGElUxftJBah6piGqGMceBhD/0Po+x5A13sf2l6vo+XxGpoer6Lh9ipHXF5B3ell1B1f5rDdS2g4vEx6VRQffPw3i9S9x7eo7MsU/blGga9jHLwHK9lBbOMPY5+igVOmNk7ZuiJcBEuUUDWWWhBUJSW01lG0eSW1BZLdH0PRaCpVUzkoZ4rpXqhiZrmR1fkmjo/VszZQw1p3JSttxcw15TLTmMVMYzozylQWmtM52pnDScEaNVzC1mAJp7rz2ejK51RvMWeHKjg/Xs/F6SYuz7aKVqnrCx28ebSf+xuj3D81zlunxnlzfYibq71cXWjn9GQ3OQ3nRGIOq3yDnr5V3jrez5PNIX58fZZfv7fGf31yll9+fpoHb40zs5RPiVJGaHEnIZXXxeuCyy/imxuGW7KxmO5mF6WFbYQm1qEaWAWpYx6gLoZ3GHgeRM9TFetwQ/oXu/j9//29SBqCRWr13CIx5WGiItkoQBPzUAMkEaYiLMMElbI+poJ4LEgLowD13b9Pn/2YBBzEIVYQANoQX+tNenMwWa0h5HSEkd8dQUGPTEReVwTZ7aGkNgcRU+dLYIkL3rlSvPNsCSgW0qHciFEIARX+pHcFkdMfSsFIJKWTMVTOxlMzn0jlTLz4tWDlKxyXUTAeQf5YBLnDYeQNhpLXH0x+dxBFXUFU9IbSOBzLxHwOp9ar2TnZwO2NFu4ca+bucgtvLbVyb6mdO8sd3Fnt5O7RLt463s2DtR4ervfx7olBHm4M8/DkCO+dGuXR6VEenRoR8fjUMO+fHBLxwalhPjg1xPsbAzw83sObsw3cnFbw9plRvnj3Cl//+Q/Pifnme+dI7/LBo1SweumKanJBUe5ZpY1njTYetVp41Gnj+VdSVgrkrINrnSYutRo4l2tgX3AESao6plGH0fNXQ91FlYPWe9hn/DJ79V9kr64w/noFLTshDU5LDJlxTrfAr9iWsBp7ouodiFU6Et/sQEK7MwldriT2uJHU505SvzuJ/W7E9biI4rjIFgciGx2IVDoQ2eAoQtboSHSLYOVyJb7DnYROd5J6vEgf8CV7JIDc8SDyJkPInwqhcDqM4rkIShdlVKzEUHUsjrqTybReyKXnWikDtysZerOK4TtVDN+tYvjeN3irmuH7VQzfr2To7QoG3y5n4O0yum8XoDyXQVpP0FMdWzVhFa5ERUXln76bzPL9p/pWd+AHP/zHuhde/RecgvTIbfGmrD+Ist4QyvvDqeiPpLw/gtLeUAo7A8ht9yaz2YNkhTPRVVKCCy3wEny0Cbo4RGmL0Zo2gVpY+2tjIyBQF2mIHvZh+rsVc5QJLjGm38AEp2hj7GUG2EXqYy8zxCnGGLdECzxTJXhn2OCbZYu3gBxbvHNt8M6zwTNHgnOaCdI4XaxkR8ToSSFpyTTwACYB+zH234ex316MfPdi7LsXE799GPv+DUY+exFg7L13N0faYw967q+j4/Y62q570HLZi6bzXjQc96Juv4fDdq+jJn2dw9JXUZO+ymG7V1G3fwV1h1dEAla3f4kjdi9yRCrgJQ7b/AhLf3VGFjv53R92LVK//9NvWdwaJVHui22sGsYhr2IddQBp3EGkCYeQJh7CJvEglnEHMBda3CJUsYg+hCRGHZs4DRyS9HBNM8MzU4Jfth0xZd6UNMUzOiVnc32Azfku1vvqONpWzlJTEXONeUwqsxmtT2NInshgVRzD1XFM1iWy0JzBencB50aruDxdz9ZoNScHKjk1WMOZkXq2JprZnm7j4nQHF6fb2Z5q48JMB5cXeri63M/11UGuLPZyeb6Dq4sddPetElr1hkiyuQ3nODs1wLvH2vlgo4cnZwf48toMX72zxu8/Oc/Pn5zmzIk2iho6CK+4+E3VfJ2g3Cy8UyV4JBvjlWaKb7oJvmnGeCXp4xqrhYNMAzvRD61OcnUId9678Zwwnn3xEVVdhTjHWIn50tpuBxC884KfVMi5tg7XwSZSE1uZOrYyNaRRh5BGHcRGpoqN7KCYTe6ZYUJkuRNxcm+SFP4kKQJJqg8goc6PeLkvsbVexFR7IqvwwC9HirVMBwO/A+h4vI6O1x7x3DhAiOlUwzxEDYtwdawijmAfp4tPthUhpY5EVrsSI/cgrs6TuFoPEmo8yG0MpK43lr6xTObmillbrODcSi3X15TcWW/hzvFW7q62cG+plftLbbyz3MU7q708ODbIgxPD3D81KpLogzOjvHd6mPdPj/LRmUmebs7w9NyCiGfnZnl2bpqnWxM82xr/BmM82xQwwdOzUzw7M80Ha8O8Pd/C/ZVuHl9e5qvP/ras4jd/+CWLF/tIbnMTbX2hSktCG8wIaTAlSGmEf4MBPgpdvAQ06OHVqI9nkz4ejTq4K7RwlWviVKGBNF8dq1R1jKLU0Ak8iIbHAdQcXuegzUsclr6Cjus+TIOEGFk9HDONcCsWglUkhDRIiWqxI67dgfguB+J7nUgYdCFuwIXoHmeiu12I7nJF1uZMRLPQvnYjvnU3ajO5WYjd9CKlxUdUead3BZAzEErBcISYeVA6ESO+MJVOCvkHMorHIykaDadgJJS8oWByBIyEkTcRSfFcLNWryTSdyaVnp4LhW3LG7yqYvN/A1DuNzL7XzPz7rSx+2MrikzYWn7Wx8KyV2Y8aGX6rmroT6X8KK3fbevnAj+JUVFSEtanfW6S+FYN9By8W4zd/+A87qtovEpBmIgp0kuUOJMudSK1zJq3elbR6N9IUrqQpXEhTupImmP2VziQK889aKVGVNoQXWxGcY4pvqhGe8Xq4yLRxCNPELkQLaYiwyEFThI1wFH4tVBvbMB0RNmE62IRpIx6FB6jgsZRpII1SxyZKHeuow0iiDmMlLG+IOYKlTA2LiIOYh6mK9irTwL2YBO7BJGAvJn8lZZ/dpCFDz9cx9NyDocdeDN33YOi2F0PXfRi67MXAeQ96jq+jZf8aR6SvcNj2ZQ5JXkLV8kUOmL/AQYuX0XI0Rt1Oi31mP2K/+Y9QtfoPDlm/gJrti6jbvYi6/QtoOLyIhuMujjj+B4cd/pWoQnfuPLz2nDg++PwhDZO5+OabYCp7DVPZK1gn7scmaRfCuVX8fixi9mIWuQfTsD0YBe/B0H8vBn4C9mPoryoGVpj4q2Efrk9KsT/tPfkcX2jj3FIva311LDeXstRYxKwyn3FFNqOKDIbr0xmsTWWoOoXR2jSmGzJZbitgrbuUjd5yTg1UszmqYHuqlcvzPVxZHODq8hBXlwe5ujzAlcV+dub7uDDbzfmpDs5NtbM908GVxS6uLHRwaaaZk+MdRFTvtrNl1Tfp657m6nQNby7W8+7xVp6c7ePLa9P86uEGv/v4Ir/76TUuXD5PetNlkZhDK2+RWNFNbmUweRUeFFR6UFztSUm1B8VV7uSWOZKcb0NkpjmyHBtGFhv59W9/Kd7fr/mac9c2yJTLxEUhdpGaeKeaEJIvISjPlLASM5IabElvsyOtzZaUVkviG02Q1RsQUq2Lf5k2vsU6+BcbEVQqEKgdwcUO+OfZ4Ztti2+mDX5ZtgTkCEEn1nhlmiON0cY4UBUD333oee1D12Mvuh77xdQvIevbVFBh+x5Gx30feh77MfVVQxp4BPdQHXzD9IhLtKKxPoKjU6XcPNXOO9v9vHOmm/tr7by53Mybi83cWWrh3nIr91fadrHawVurXWIb+p2NEd47M8l7m9M8OjfL+xfmef/iPB9cnN3F9ixPL8zx7MICT87P8uHWFB+cneDDrQmebk/x8YVpnm1P8sn2NJ9fnOWLi3N8fmGKD0/28+7xLj64MM1PH13l6z/uvlgKN/qTnz9ieFNOwUQw2eP+ZIx6kT7iTtKAE9FdNoQ2m+6Sc72eOGcW5sruInRxk+vgUqmNY7GWmAlulXQYE5kq+oH70fHZj67PAQwDDmEp0xRFfu65gtbCksBagZBtCG+REtVpT2yvI/EDzsQPuoiIG3Alrt+V2F4X4ruFdrYHaX0+ZA0EUjAcRsmojIrxaKon46mbSaJhLoXGhVQRDYupKJZSqFsWNAKJVMzHUjwjo2hamC2HUTApWK6CyBkNJGskkMzhQLKGg8kZDaVgMorKxSTq1zNpPltA16Vy+q9XM3xHzujbCsYfNjDxnpLpx43MfdjCymedIibfbaD2WOb/sQ83E3bTO6qoqPz7d5BWvv9I3/YOCKKvH738L1i4qpNY7UBmkwsptY4k1ziSXOtMWp0bWQ3e5Db7kd8aQEG7PwXtfuS3+4jVc7aw4abRnZR6V+KqHIkolhKYY4V3mqm4jMI1VgfnKC0cIoRFFerYBB/GOkgNqwBhi9AhzH0PYSZENXqrYSrA95sFAUEHMf1mQYCwJMAlLYuAknUCS7dwz8jCOuIg1uEHvsH+3WOYKpLQg1gFH9xd6hCgipmfKqbCpiWvA2KAvqHbAQxc9qPvJGyz2iduvtGwfRV1m1dFpfghi5c4YPICew3+jT16/8ohs/3Yx9bjnjGBQ1wt+u4mYpWs6fwKWq4vo+P+MroeL6Pr/Qp6fq+g4/sSlrKDtM9V8Yvf7Hpr/+frP3H62jxZzf44ph7GOPIVLBP2YJO6H5uUfVgn7cNayMiO34ckdh+Wsn2Yh+/DNFiwj+1Fz3cPOt6viy10I5+D2ARpI0tzprk1i+XpJrZXB9ia7uRYt5zFlnKmFYWMyDMZqEljoFaoltMZqc9goiGL2aY8jnWVcnZEzvaEkktTTVyaaWVnrpOri31cXxnmxrFxbq1PcnNtnBvHR7kmVMfLfVya7xIr6Y3BWla6Sllqz+dEfzmbYzWcGiyjomFRrJhDK94gt+44y71VXBwv5tZCDffXmnm42csH16b5xYfn+POv7vLTH79Dy8QthPZ3WNUb5DeuszAiZ2u6kJ3lCm6t1XL9WCVb03ksdsczqAyhvzmC1blKPn5y5/lLz+9//2s2N8doa42nqMiZomIH6pS+YrCKsjOAtqEQeqdlDC/HM7IaR9dMKA0jXlT0u5DfISVdYUVyrYTkGikJlXbElNoRmmeNX5oZ3ikmeCYZ4ZVshHeyEX7Jhvgl6uMdp4tHnB5uCQbYR+tiEaKOiZ8aJj6HRPuPa6g+boG6+AUbkJBgQ2WxP0PtKRwdK2VroY5rx5u4u9HOvbU27qw2cmtBIQqubs43cGuhiVuLLdxaaePNYx3cO9HN26f6eXhmmEdnx3h/a5qPzs/y5PyciKfn5/l4e55PLy7w+aV5Pr00xycX5/jk0jyf/PX8wgzPzk/x7NwkH5+b5NPzk3x2YWoX25N8tj3Bs7MjPD7Ry/tnR/ji/ml++7MPn99jQfR17/MdBnfkKE5lUXkslbKlRIpmY8kZDyV5wBtZhz3BzZYEKE3xqTfEU66HW40uLpU6OJdp41ikjW2WBpZJu1u1TGWHMAk/hJmQjBatga2wvSxND9dcA7xKTPCrMiewzoqQRgnhrdZEdtgg67QlotOGsA5rglstCW2TENVlR0KfM2kD7mQPe1E46k/peCCV4yFUjYVSPRZGzVg4deMRNEzJaJyNoXEhDuWSICiNoWZBRtmsQLaB5Iz7kj3uQ9aYN2lD7iT1OhHfJSW2Q0J0q4ToFitkTRKimqyJabYT7ZgJHe6k9PmQOxlKxbEE6s9m0Xq5kM5rZfTcqGD4Xi0zAkF/0MLgzdo/5w3EXD+otz9dRUVF6/tq+dsy2HfwemG2/MMf/dPOQc1XiciRUtYXTF6rH5kKL9LrvMio8ya7wZ+8pgAKWgIpbA0QUdAaSEFrAHkt/uQ0+ZLV6ENavReJNa5ElToQnCvBJ90UtyQDnOP1cIrXQZgZ2oQfwTJUTQwTMQk4IIbbCwH3xkJEnwB/YbWdKsYBqpgECMcDon3KyG8vxv57cUktFB/8YqZ1djV2UWrYRx/GIeYwTrFHcI7TwDnmCE5R6tgLcYNhuy8Bln6qmHurYupxABM3VYxcVDEStk9J96Fu9TpqFsJKwr2omu/hgMmr7DN6ib2CJ9vkBVTNX0DX3YSAok3xZ/sXncA83ByjoNcxCX1drG7No/ZiFr0X05jXMYp+ldBqGy7dP/X8ofbTX31C/1oVUQpr7LNUsU7bg0P2Aewy9mOdvPcbUt6/S8ihu9W/EAEqrHE0CziINEIHlzhj/FKtiS3woLgumq6+YpbmWjm7MsDFlVHOTfWxMdDKUlstU4pShmvy6a/Ioqc8TUR/ZTqDlemMVmcwrchlqaWI413lbPRXc3qons2xRrYmW9mcbOfMRBtnJ9vZmu5ge7aLC7OdbE60cHJYwcagnOO9FSy25TOjzGRKkcZSaw6nhdn0tILVySEqWjZIqtthdmySB+vNvLvRwuMzHTy5OMKXbyzzmw83+fOXV/ifn1/j8b1LZDZdJ6zyNrlNl9lenuHL7U4+32rm0zNKnp1u4NkZJZ9tNfP5+Xa+uNTHrx5t8fV/78ZvCjf5v7/6lJ/eO86T8728t6HkvdONPNps5dG5Vh5faOf9y+18eKWLJ9d7eLzTzt0tBVdPVnL+eDFnlvM4MZfNykQaM8NJjPfHM9wTQ29HJG1NISjr/aiXe6Oo86GtMZCBtnCG2mUMdkYx0BNPR0cMZZW+pOc4kJbpQFGxF63KaKb7czg9U8314608ONPL47MDPD7Vy3snunhwrIU3FxXcmq3l1nwdtxaERLU6bswreWO5jbvHenj7xCBvnxrm7dPDPNwc4/3taZ5eXuSTy8u7VfC5OZ6dn+fT7Xm+vLTIjy/O8eX2NF8IhHt+kk/OT/D03ARPNsf46MwoH50d4enZUZ5ujvJMxAgfbw7z8dkhPj4zyNPTA7y31s39Y718eHWFX35yl6+/SaoT7vF/ff0VFz47xtBdBe07ZTRuFaI4kUvVcjqFM7GkDQcS3e1KeJsdIU0SgpRm+NUJ9ig9XEu1cczXQJqljiRVDcskNXHlpWWcOlaxR5AI6zMTBJeDHs45hrgVGuNRYoJXhSne1eb4ys3xqTPDW26C119Ra4x3rTF+dWYENlgQ2ighssWW2DZ7ErucSe9zI6vfk5wBL3IFDHqSM+hB9qArWUMuZAw6kzboRFK/PfG9UmK6rYnqtCSy3QJZuwWRrWaEN5sQ2mBEcJ0BwbUGBFUbEFghJO4Z4FOsj2eBHu55ergXCC8Sgq3Niqh2J9LHAihZiUV+Mp2mc7n0XC9n6E4N/TcrqV3N+q13knTs7/7u7zxVVFRe+g7Syvcf6dvegR/+6AcOP3r5h1i6aJHT6EfVUDjFXUEUtgWS3+JPfvM3aPIhT+lNboMPOQofshV+ZCv8yVIEkFHvT2qtDwmV7sSUOhFRICU4R4JvhhmeyUbiqkbneH2RmCXhh78h5f2YBu7HNEAQZ6liFaom5itLZZrYy7Swi9BGGia0uzWwCRW2UR1GEqKGVcghXFOz/xc5K7GOFGaFh7GL0cA+Rgu7aE3xZ9lFCUIwTWwjNLAOU9+9PlgNqyA1zIUXAKH96PIaGvavcESYHdu8ykGrv+18PmT9IoelL4liriOuL2EdF0NIxW6Qhk/hFJaxGlhE70MSdwBJwgEsE/ZjFr8H2/RDKGZz+PKrj58T89WHJykbjcC3TBfLlD1Yp+1DmqGKNE0Vm+SDWMepYik7gEXYAWxkh3FL0BNfbhKr3MhS+FHcGkZVVzQN/Ul0jmQxNl3GypKSk6sdbK30cX6pj3OzPZwea2e9X8lqp5y55nJGawvoK8uksyiNjoJkOvIS6MiLp7sgjr6ieAbLEhmpTGFCnsF0Qx6zzUXMtBQz01LCfHs5Cx0VLLSXs9JdxYmhOjaG6ljrq2Kls4T5lhxmGzOZa85kuSOPE/2lbE3IubLYwp21Lh6e7ueN44O8f6KNj0608uRUFx9vDvDZxVG+2Jnky8sjfHGhj59e7uWLy2PMzp6mtO0KxxY3+OxSP+8dq+GthRLeWangk81mfnNzhP+6Ocavb8/z55/+be4JX/P7j9/kJztTPFlv5v2VOp6uN/LjzS5+vTPEf10b4bfXRvjDzXH+cGuc31wZ4quL/fzq8jC/uT7FH+4u8Ic7c/zn9TF+cXmAn1zo5NOzzTw5qeD9NTmP1+S8e7Sad1YrRTw8XsPjU0oen2rm3RON3FmWszNRxqXxUq7OVPNgo4OPr0zwyfUpnuyM8Wirj4cbnTxca+edoy28taIU2/s35+XcmJdzc6GO20uN3Flt482Vdt5Y6uLN5V7eOjbIOydGeHR6gvfPCG3oaT7amuPZ9iKfX17hi8urfHFpiS8uL/LFpXm+uDjDZ0Jr+twYT88O8+HpQd7f6OfRei/vHe/m4bFOHqy28/ZKm4h3Vtt571gn769188F6Dx+c6OPxyWGe7Czx8yc3+O/fffn8369w8tHv3mb1SS8jD4QdzxX0XS+j63IxzVu5yDdSKFmNJm8uhOwpP9JGBQGWA1EdEkKVpvjXGOJZqotr4W7SmRBJapOqhW2SDraJekgTdbFN0kWarINdmi4Ombo45ujhmKuHQ54uDvk6OBTo4Fiki3OJHi7CCtIKQ7yqjPGuNsG31gx/uTkB9ZYE1lsSrLAiVCn8bOFoSXiTFeEtlkS0mRPRYY6s0wJZlwWRXebfwIzITjMiO0yJbDclssWUiCYTwhRGBNUY4F+hL8bfCmQs5BO45WjhJOzZzhB2bf9177YWDllaOObo4CGQtNyaqDYX0kYCKF6KpfJYEiUz8X+RVfvc36/1eqGKiorR9zuXvy2DfUev/8E//33dS6//K06heqQoXMho9CCz0YOsJi8ylZ6k17uRWutCcpUjyZVOJFc5k1zlSnKVG0mVbiRUuBBX5kxMqSPRxQ5EFkgJzbEiMMsCv3RzfFJN8UoxxS3RCJd4YUm5Dg7R2jhGa+MUqyu2AUWhT4qxuK/YN92CgAzr3WUZOVJCcmwJypaIO5m9Uo1FwnKI0cQ9PeU5OXvndonzaIGIhZaiXZRQne+SsqDQFiAVBD+RatiGqyGNVEMqE86FHcb7MRMEYp6vY+DyGtqOr6Bhv6uqVrN/CTXHl1B3fQkNz5fRCXgN58xSAso2Cam8iUtWLuZR+7CMOYCFgNj9mETtwbvAhI3r8/yF/xEfbELi1/iZJmIb7LFJO4BZ3GvYpOzHNkUV2+SDSOJVsYw+iHmkKtI4DYIKrUlv9KNmOIG2uWx6VvIZWC9k+HQR46fLmT1Vy8JqPemyHrQAACAASURBVIvzDazOKtlYbGfn1DC3t2e4vTXD9ZOTXFwc4dRoN0vtCsZqS+kuSqc5K5r65BDk8b7UxHpSG+NBbZy7CHmiF4rUAFrzIuivSGK8IZe5tnKWu2o42iPnaK+ctf46zow1cmmug9vHB7h3coQ7Jwa5dbSHa0vtXFlo5uqckuuzCm7O1XFvuZmHa508PNbB/ZUW7i0quTNfxxuzNbwxW8mduQruL1Xy3rFaPtqoFyvjR2uC/UrI5a7m9lQx9xareOeogkdrSj7caOLjMx384u4af/n9L56Txn9/9QWfXVvm3WPN3Jsq48FcJY9X63h8tJ4Pjiv45HQLn59t4+NTTXx8Uslnp5v42YUufnttkF9d6uXHZ1v44nQTX2628vOL3fz66gD/eX2QX+z08NlmMx+syXlnuYJ3Vyv58EQdz04peHaqgQ9PKHh0vJ73jiv4YKOFLy4O8n+uT/GTa5N8tjPO0wvDPN7s5+FGD/ePt3NnpVnE3dVm7q42cWdFQAt3V9u4d7STe0d7uX90gAfHR3n3xBSPTs7w+MwM75+d4YOzMzw5t8CnF1f54vJxvry8xpfC8dJRvri0zKcXFnh6doKPTo/w4akhHp8Q5sTdomr79nQDImaUvDnXxJ35Zt6ca+TeQjPvHO3i0Vovj9b7+fDMMB9fmRW3iv3xN4+B3z6/x7/5n1+y+dECnVcKaLmYSct2Jk3nM1FupVF3OpGajVgxcat0JZSihQDyZrzJmnQnZciJ2G4pEc0SAmrNcCsyxD5TF5tkTXHPtIVMHfNINSyj1JHEHEESp4kkTgOreGEntQY2KZrYpGkizdTGPkdXJGrHPF2c8/XE30sgQK8yE7zKTfGpMBNb3/41FgTKzQmqNyOo3pTgBhNClSaEt5jtVsMCKXcK5Gz+nIwjOkwJFwJRmo0JazAiRG5IcLUBQZVCdWyIX4kRPkVC2I0Bbjm6OGdqiRkGDunaOKTr4JSph1OmgRgQ5JChj4Nwnm2Ac54hPhUWolc9stGFoDLHP5r76S7/4w//MVhFRWXP9xap7yixfpuPJW6R+uE/7OzTfBHHCB1xjaFfhglBWeaE5UsIz5cQlmdJcLY5QVmmBOeYEZpr8TfkmBOWa0G4sAUmX0JkkTXh+YIAzJzALDP8MwSYiwTtmyasXTPCNV4P5zgdXOJ1xfmzb5oZIbnWyIrtiS5zJq7CjaRqL1LkvqTW+ZImoN6bFLkn8VXOyErtCMrbnV/7ZCc/J2e/ghFsI3WwDtdEEnYEyxA1sWUuCRd2FQsK3MNIo9SwlR1EGqWKXYwq0mhVpIJVSdiZG34I86ADonJbx/01NJxe4bBge3J8mSPOr6Dp9io6Xq+i6/Ma1lF+OKdW4JU7gVmwGXo+r4nQ8XoFPd/XyG2K5aP/pWS982iHsr54PLJ0MQ5/BVPZq1jH78cm8QC2SQexSxE2UKnhmKaOV54ukVXm5Ha50zAno+9ECqNnsxnfzGf8dAnTG5Usryk4ud7J9sYg185McPX0GBeO93FupYutxS7OznRyarSD9d4WllrrmZCX01OURUNKNNXRgVRG+lAZ4UVlhAfV0d7UJwXSkhlBT3E8o/IsZpoLmG3JZ7Yll4W2PJa7ClnrL+HkcDlnRivZHK/i/GQ1O/P13D7WwoMzPby71cetlQbOjxWzOVTA5mAB54aKuDRWzo3ZOt5YUHJ7QcHt+Tpuz9Vya6aCmzNl3F2s5P5KFbenCtgZSOVsexwnW2I405nE9kA21ydLuLNQw4PVej440cxnF4b4/ad3nxOGcPLVh2/w0dYo76+18vhoA4+OKnm4ouDtRTnvrjbw0UYbH5/p4uMznbx/vJF3lmp5fGyXtB8sVPLuUjVfbnXwy50BfrHTL1bMTzYUvL1Qyo2xbG6M53BnppAHS+U8OlbD++t1fLjRwJNTTTw93cLTM618vNnJ5xf6+PR8Hx+e7uDhWjP3V5S7WG3i3uouAQsk/P+z955BVWXr9jf33Hv7nnPu/6S2W9s2i4LkaEAlR8kZRKJIzjnnnCQnQRBQchSMoGDOijnn2G1s25x+b61tH/tWvR/7W1dTNWqutfZam71m7b3GnM98njEOt+VxYEMuB1vzOdJRwrHOco52VnKso5oTXWsY717Lqb51nB1s4dzm9Zzd1CxqL27t4MpwDzd29nFztJ9bo/3cGevn3u5+Huzt48HeHu7uaufmcDNXNtVxtreC8Y5ijq7P58C6bPY1ZLK/MYvDLbmcaF/Nqa4y0Tnn+6q4vGkNdw608/DCFu7f2MXjxwIxfx5YCn188NIoMQ2eeKw2xKfcBN8KY/wqjfGrWoZfjTEBdSYE1AtkbIxfvSHetbqsrNbCpVRI2FqCY+4S7DOXYJ20BONwVbR95FjqJslCR3FU7WahYiesM89B1WkuysvnoLpiLgvdJEUzah1fWQyDFDAJVRSJzphHKmERrYxFjArm0cqYRSljIpBmuALLIoSQsjxmcYqYJyiIZuqCappligLWaUrYZKhgm6WCfc4vyFUREbawL5C3fYYKDmkq2CerYJeognWsMpaRylhEKGMWpoxxiCJGQQoYBSliGChAUKVTRj9QCb0AZfQCVDAImo9x2CIsYhZjk6iBY7o2jmk6WMdqoOWqeOm7uV8niYmJLRQTE/vzb3l+/3Ht77QH/vTVn1IFXeypEv9CQXsqKobTUV02nYVmM1CzmoW6vbBOK4H28nnorpBG30UWQzc5jNzlWCa40njIYbxSDmNPeUwErJIXlbUYe8oiwkpZ0evLVgrnymIkggyG7tIYuElj6C4jus4mcAFOEeq4xejgmWCAT4qJKHwbkm1FeL4NEQW2hBfYEpxjhW+aKR4JhiwXvJWDlmIV4vl/yHkdyhazkDeejqzhVKT1vxdZNsoK2dimU0VlVAusp7HIbiqLHKah5iiYZcz4Jbt7Jio2gofuFKSNJiGpNxEJ7W9FYW4JjUlIakxCQn0iEku/RWLpN8wVMrKXThAdn714ArPU/sVU1b+iaDST6pYiXr7+vP754vUzmvrKcY0xYKHdVOQtJqC2YhpL3WagsXImWl6z0PWbjX7gbEzCJbCNl8U9S5WgMi0S1hqT02bH6g43ytp8WdseSVd3BiNDlRwdXs/JkVYODzUw3LqantoUOqoSaSmKojoxgKIQD3L8XMj0cSbL14W0VcuJW2FJpK0x4ZYGhJjpEGqhQ5StAakelpRFebA2PYD6dH/W5QTQURJKX2UkA5WRtBf5szbdlTXJK1iTvJzGDGeas1xoTHeiIdWRxjRHWvPc2FQVyJaaEPrL/egp9qGryIfuQj/6igMZWRMjWkc9uCGdAxtS2deSzN6mePaui2FnbTBDhe50ptvTHG9Jc6INHZkuDJX6s6shVhT6PduXz/mBAm7tbeX9s19DrJ9ePeKHExu5srWUsz3pnGwTQs6pXOjP5upQIVcGhXKtXM52Z3O6K5MzXVmc6coW4WxPDhf6crm6qYg7w6Xc21HGjS2FnNgQx+6aAMYqfBgt92K0fBW7q3w40BDCsZYYTncmc2kgi+ub87m6KY+L/Vmc68ngTFcq461JHG2J52hTLEea40RRgUPrEznUlsaRjkyOdeVyvLuI493CLLqcY10VHG4r4+CGEg5uKP4Fqzmwvoj964s42FrMkY4KTvTUcqa/gbP9jZztb+Bcn4C1nO+v48JGAbVcHBTWjoWyp3ouDKzhdFcFxzas5khzAUdaCjneVsLJznJOtJUy3l7Khb4abm1v5tHeXp6f3MqzK7u4eHITIzs3cP7i0S+Dn3uP7pJeG4eqvWDE8T0LHGew2GW2SHRHx09Qw5PCJEYWi2QFrDNVsM9fgGPRIhxXq+FYpIZj4RKW52mwPPuzypZ1zBLMghdg6PW5Xn2hw1yUrGcjZzUDGavpyNlMR8lxJmpu4uj7S2ERLotNpAwO0dI4xAoDV1mckhVYkarEilQVHJOVsUtQwjJWAdMoWYwjZTGOEuxSZTGLl8csQf4XglbCKlUZ6zRlrNKUsExTFME6XQnbdGXs0lRwTF+AU9pCnFLVcEpehEPCQuxiF2AbMx8bERZgHb0Ai8j5Imlf03AVTMJUMRYQqopJ6HzMItSwiFqMZdQSrGOXYhuvjnX0Uox8VN8qG4oP/flff3YWExOb8UfS1++UWH/jbc38z//6j9H/9/evmCr+NeJyk5itMBFxlUnMWTgJSfUpyOhMR05vJvL6s1A0nI3KMnEWmEmgZjmPJTZSqNtKoWEnhaaDFFqO0mg7SqHtOA9tR0l0HOehu1xKZOum7yyDAMHiTTim7TBPBOEc/RUymHgoYuW7EMcQddxjdPBLNiIk01zkUBQhEHO+DZECOefbEphphXeyOW6xxiyPMMQmSAcLf6dfyPkQFuHtKBpMR1pzKrMWfE7imqb0DTMFfe6FE5m7ZCJSmpOQ1Z2MvOEU5JZNQXbZFGSWTUaYKUvpTWSeMEPW+RZJrc+1yeJLvmb2on8xe5HQfs2shf9kpgBhX+1rZi+ZwBxhLVp9Am4RVhw/e+jLQ+38tXEyq8Ox9F/AAtspLHKcht4qCQz9JDEKkMQoaC5GIXNFpGwZI4V9ohwuGSr4FqgTWqZHfI0FBevcaeqKYXiknOP7Whnf2cbxLes5unEdB3vXsLuzlB2thWxZl01nSRy1Cf6sDnEnx285aZ42JLiZE+NkTJS9IeE2+kTY6hNlZ0CsowHxzkZk+lhSEulElVDjnOROTaIb1fEuVMQupzzGgao4R+qSVrAuw43mTFcRGdcl2lITZ0FltAnlkUZUx5jQkGRJW7YTvUUrGSzzY3NVCNtqI9nZEM8+IeO4JU1kjrG9Oorh6ijG6mLZUx/LtjJ/urNW0JRozdo4S5qS7WnPdqN/tTdDpQFsLgtkR3WYaF329rEt8OFXP+DnN45zeXsVh5ui2VPjx+7aQA42RjDensSprhSOtSZwqDmWA02xjHemcmlTEZe3lnFxSymXNhdzeaiQSxtzOdedxtGmKPZU+TO82oPthW6Mlq5iX7U/R9aGcrQpkmPrhbB7moj0Lw5kcaE/gzPdyaJ15+OtsRzbEMOJ1jhOtMZzbEMCx9Yncqw1mfGODE715nF2oIhzQ6Wc31zF2c3VnBqsYnygmvGBWsb76zjZV/8F4311nOivY7x/DSf7ahnvrRIlZR1rK+TI+jwONedwuCWfEx0lHO8o42h7GUdbyziyvpgDDXnsrcvmYLNQWlXOeG81J3uqGe8s59iGYg43FXK2t4b7e7p5emILT05v5874Jo6MraemNony2kyu3bz05Tu85+goy4NMkNH9DsVlU1C0mIKC7VSUVkxnoecslvqLoxMyB71ICQzj5mGSIo1FhhzW2QrY56qyIn8JrrmauGbq4JKih1OcLg7CwDpEnWU+i9BwVUTJSoJ5xjOZazidOYZTkDCajLzlVNScZ6HnLYF5sBRWYVLYRkjjECODU4I8LslKuKYp45KuhFOaInbJclgLpW8J0lgkyGKeKPdZYzxFUTRbFs2YBQIWQQWHdFWcMhfikqmGW+ZiPDKXsjJTnZUZ6nikqeOeuhS3lCW4Cm2aOi7pguOUhkhtzC5pCdYJi7GMVcM8Wg3zKDXMI9QwC1+EWdhCzELmYxaiKmpNAudj4KXCIiupu1OlvskXExPTFBMT+9tvfH7/cfnvsQf+8z/F3P/rqz/x92/+wvfi/2CK5D+ZIvEPvhda6X8yXW6CyHhippJgPvENcxZMQmLRd0gtmYyMxhRRqZGi/kxUjGYx32Q2C83EUbOYyxIrCZZaS6Ju87l+WcNW2JYQQdjWsP28rW4zF2Ffd7k0Rq4KmK1SxTZgMS4RWqyKN8AvxVQ0axaSywIzLAnKsCIww5qANCt8kszxjDfBNdIApxAt7PwWYeNn8YWcraIGWWQsjazGbMTnT2WawiSmyH3LFPlvmKr470zrCcxc8A0zF37DbLVvmbN0InOFmbHWJOZpT0JK5zOEbeGYpOYk5oksKycjoTUZSd3JSBl+h6zJdyhYTBZBy1ma8g05PP35seih9v7jGzaOtRKa64CxYFjgPgPTIClsouSxi1PAPkEB+yR57JPlcUiRFz1cVqQLD5r5uGeq4Z2jSWj+MjJKnaitC2GgM4ex/ir2963lYHc9e9srGW4pYFNjBoMNafTXJdNeHMO6zFBqEnwpjfAgP2g5mT42pHqak+JhSqqnCZk+5uQEWJETaEluoCX5wVYUhdlQFm0vIuLicCsKQ8zIDzKlMNiU1WFmlESYUxphRmmEKeURplRGm1Ebb0lDsg3rMxzoyl1Bf6EbA6s9GCpZxVCpL1urwthRH8tIfTwj9Qnsbk4T1ece68znWHsuB5pS2L02nl0NcYw1CHaTsQzXRTFUGUx/aQC9xf505K2iI9eTvgIf9rTm8uj6rypqn9485/qhfo505rCrPpJddRHsbY5nT1M8uxrjOdCWxom+fM4MlXBuSzmnh0o4MVDE8f5CTg0Vc2l7FeeGSjjUlsFYfSzDVeGiz3O0LYuTvYWcEzKVh+u5PrqO62NNXN/VxLWxdVwdbeTyjnoujtSKcGGkhgsja7i4o55LOxu4tLORK7tauLG3ndsHerhzqJ87RzZ+xvHN3D81zA9nx3h4fg+PLuzj0fkD/HBmP/dO7uXO8T3cOjrGjcOjXD04wpX927iyfwuX923myt4hruzZxJU9Q1zePcTlPZu5tGczF3YJ2MKlPdu4emBEdP2d8T3cPrmXm+O7uX5sjOtHRrl1dBf3xvfz+Pwxfr5xlnc/XuXjT3d5/fga1y8d5MiRbezat4nzl09+IWUhT+LM5eP0bGmmbeMaOjetpX1LA+3bG+jcuY7uXU307W1m44H1DB7awNDRVraMt7PtZAfDp7rZeaaPsbOD7D2/lQMXdnLg/E4OnB3l0JkxDp4aY9/4KLuOjrDj0DaG929l274tDB/Yxs5D2xk7Msye4ztE5x05u5vjF/Ywfmkvp67s4+z1g1y4dYiLtw9z6e7RL7h87xiX7h3n0r0TXLl/kqsPTnHthzOi+uubD89z8+EFbj26yO3Hl7n75Cr3nlznwdMb/PDTTX786RYPn9/m0fM7PHp+l8c/3xc5wj158QNPXz7k6atHPHv1iJ9eP+H5m6e/4Bkv3j7n5bufRXj17iWv3r7g9buXvH3/ireiQeRH4NP7d+/f7n/35l3Y27dv5YA/BEV+j8T6W+5p5syZM2eJzxpV11xKTn4m/UPd9Ax00NnXRmdfO90DnfQMdtE31MXA5h42bullcFsfm0c2sm10iOFdm9m5Zyuj+7ex68Awew7vYO+RUQ4c38Wh8T0cPrmXI6f2cfT0fo6dOcDxMwc4cfYg4+cPc/LCYU5dOMKZS8c4e+UEF66d5NKNM1y5dY5rdy5w8/5lbj+4yp0fr3Hv4Q3uPbrJ/ce3ePDkDj88vcuPT+/y8Nl9Hj69z49PP7ePnt3n0dMHXLnz4As5e2Yd49GTH/nx8Q8iCNuPnz7kybOHPHv+hJ9+fsrzF8/4+dVzXrz+mZeiH9Mr3rx/LfoxvfvwBqH2+APvRTrXgtb1ewEfP+Pdx7eI8OENwrnvPrxGqPP8//99Er3P2w/Cj/QV7z6+4t2nf+Mlbz/9go8vePvxBW/+T/v6/Qvevn/Bu/ev+PDhDXx8Cx/ewYf3v7Rv+fThDZ/ev+bTe6H9v3jNx3ev+fD2FR/evBTh/ZuXvH/9gnci/My71wKe8/bVT7x9+Yw3/wfCvujYi6e8+fkpb1885d2LZ7x79RPvX/0kat+9fMa/8f7lMz68esbH1z/x6e3PIgnHJ89+5tXLV3x695JPb1/w6c3PfHz9XHSOcO6Hl095/+IJ735+wvuXT0XXC2T76e1zPr35iY+vhXOe8Pbnh7z+6Qfe/7I88GsffxRd8+rpPV48usWrJ3d48+w+b3/6QYRXT4Tjd0R4/eQe75//yKdXj/n05imfXj/h48vHfHzxIx+eP/iC988f8G+8++kH3v30gDdP7/H68R0RXj2+wxvh/zz9pX18i1ePbvLy4XV+/uEaPz+4xosfrvPiR+HYTV4/uiWCcI6AN0/u8k74jCI84O2zB7x7JnyGR7x/9pA3jx/w4oc7/HT/Jj//eIdXj+7x/MFtnt6+wZOb10UQtp/dvsHT29d5eusaT25d5cmtKzy9dZWf7t7g5Q+3ef3oHm+e3OfN4/u8eXKPd88e8PHnh3x6/ZRPb5/x7vVjnj+/z/1H17l65yxnrx/nws2T3Hl4jXcf33zpYmH70u3THDi9k32nRtgzvp3dx4fZdXwbY8e3sGt8C7tPbmHX6c2Mnd7E6JlBdp4ZYOfZAXacHWDkTB8jp/sYPtnD8Hg3O072Mnqqj7FT/ew61c/YeD+jx/sZOdzLtgPdbN7TycbRVnpHWujc1kj71kY6tjXSMdxE50gj3TvX0TO2jr7dTQwIA4L9wqCgicGD6z7jUCMbDzey8VAjA4ca6T+wlv4DdfTtr6V3bzU9e6rp3l1N51gV7TsraNtRSduOKtpGqmkdrmH9tiqaN5ezbrCUxv5iGvqKWdu7mrqeQtb0FFDbk09NTz7VQtv7ebumJ4/q7jyqunKoaMukbEM6pS1pIpSI2gyyKxN+SsiMrgsNDTWJ8I74o0TqtxDY7/XaOXPmaMnKSuO+0pn2zia2DQ/QN9hB70An3f0ddPa209HdRkd3K21dG2jtbKG1s/kzuppp62mhVYRmWnuaaOttor2vmY7+ZjoGWmjvb6G973Pb1tdMe38THQO/omuwiZ5NTfRuaaZv6y/Y1kL/9vUi9G1fT++2Fro2N9Ex1Ej7YANtG9eK2s5N6+je0kzX5ma6NjXRObiOjo2NtA000NpXT1P3ui/k7JC4n9L6XFavyaawOovcynSySlNIL04gfXU86atjSSuKJq0oivTV0WSWxIja1KJIUgoiScqLICEngvisSGIzIkSIyQgnOiOEmMwgYrICiM7yISJjFXF5gfRs2cBPL55+eaiNXzhCTedqEsv9Cct3JrHKi+ymIArawljdHS7ywy0ZCKN4IJTVvcEUdgWS3xFIXmsA2c3+ZDf6U9AQQmVTHK1d+Wzsr2RTdw3DvXXs3tjIvk2N7N/cwIHN9SIc2byOo0NNHB5o5GDfWvb317G/v5a9fdXs7q5gZ3sx29fns7kxk8G1aQzUJ9FXE0dPdQy9NTH01cTSXRlLb3U8mxvSRBioEcqkYumvimNLfTI7WzLZvSGHvW25HOws4FB3EQc68tnbKuhqp4sMFI4NlHN5tJmjo1tILN1DRsVONnd3cGSwgv2d+extE0wWMtm7PpPdLdnsaslh74Y8Dnev5uy2WtHM89z2GsYHi9nfns5QRRADFeFcPbHzS98Kg5QL+/vYtCaSxhRb1iVbM1jqw+7GKA63JjFSEUxH2gq6M1zYWuzP8bZ0rm+v5Pbutdzas5brO6u5sq2ES8IadF82Z7uFNeI0TnWkcKI1kcPrYhmrCWWkPIDR6jD21sewb60Qeo8SHd9ZEchwmS9bS7zYJITu893ZmOfOpkJvtpUEMFIexM7KIEargkXn76mL5EBTIsc7shjvKWC8ZzXjPcWc6C7hZE+5KMx8qLmAvQ057Gsp4HBnGeP9NaKyqU0lSXRlRNKRGkFnaiTd6dF0JIexITGA9rQgurND6csNZ6ggiuGyRMZq09ndICSXFXOir4bLo238OL6V59f38OT2Pk6d6qV3exllHQnE13rjVWSDV5E1yY0hbNzfzst3L0T9/P7TW/p3b8AxQQdtoYTJWxZNTxk0V8qgsXIeGl6/lAkFSYhqlHUiJNCNkkA/ThKjJCmMk6UwSZbGJHEeJvHzMIuXwipRFsc0RVwyVUS5FG4ZKqxIUsAhVg4bweUtQAq9lXNY7DQDFdspzHeYxsIVM1nkOgs1D3GRI5VQnqQbLI1BuAzLBFc4oZRJqC9OVsQ2VRl7IXkrTRXHtPk4pgnJXErYCe5cQmg7TlZU9mQeJY9phJBQJs+yYHkMAxXQ85NHx1sWLU8pNNwkUXeREPnBLxWMcAQFQuc5qLtJorlSCp1VMuh6yaLnJYe+tzwG3vLoe8mht0oWPUE211MOg1Xy6HrIoeE474O89vSjf//mL6FiYmLyf5RI/V6Z9Tfe15/+Syz1q7/8iUnT/sws6b8xU+pvTJP4G1Pm/I3vZv8/vpn+v0yY9le+nvpnvp72FyZM/yvfif+NqfP+ySz5CYgrTUBc+WvmqExgruq3zFWdxByVycxVmYLk/GnMWzgNmcXTkV06HXlBhF5nNvMN5rDYZB6aVjLo2Sti6KSMsYsqpm4LMV+phsWqpVh6a2Djp419oC52/jpY+2hg7rkYY9cFGK5QxcBJFSPnRRi7LMHUVQMzVy3M3LQwdlbHYLkaunbz0bJWRNNK4Rft5UPYxh9kobEUgvG6zNIponC8+PyJzFadiPj8ScxZ8N0vELyiJyKE7mcoTGC6/ASmy37DdNmJTJf9julyk5kh9z0z5b5HXPF75oi8pb9mhuo/mKL0V9QsZOnatOELcTx4eI+8yjT0VyxijtYExHX+KTLQ0HKbi6G3NCYBcliEymMRqYBltKLI5tA6RgXbaFXsI+bjGLYQzxhdotIdKSgNZF1jEp3NmfQ3ZdG3Np2+ulT61qbQvzaFwcYUNjeksn1tBsP1GSIDis11yQzUCqQaR295DF0lEbQXBtOaF8CGPH/aCwPpLhYStcJFpNdbGkp3SRjdpRH0lEUyUBHN5tp4tq9NZse6NMaaM9i9IYv9QmmPoEI1WMGpTVWc2lzD6c01nBqs5kR/OYc6i9jXmsfBjgIO9JRTWNb9ZaAUkbWR/jVZbK4R3j+UwaootjekMNqSKXIxGh+q4MJIHWe3VTM+WMqhzhz2bUjnUEcWl/d18eHF5yUCoZOf3b3Ekf4qtlWGM1jgyY6KQA4KWd7rEziy3eQtiwAAIABJREFUIZGDLfGi+uLTA3lcHaniwcFmHh1r4/GxVu7tbeDKtgrODhRyqiuH0505nOnO4Wx3Lme6czndmS06fqYnj7P9BZztL+Roe6Yo3D1SE8H2qlC2VgSzpSyALSV+bCnxZWupH9vL/EVEvqMykB1VQeyoCmSkKpDhqiC2VQaztSKUrZURjNTGM7Y2lV2N6exryeJgay7Hugo52V/KmaFKzmyq4khXMTvq0+kviGZDkj8NkatYE+JOXbA7jWGetMb60ZEYSHuiP22JfrQletOT4c9QQRjD5Qnsrs/mSHslF0c6eXFDEAq5Cdzk3uNDDOyuoWB9JNFVHnjlW+CcpU9AiT1F7UmMX/01P+L2w2tk1EegL1huCmpc/vLo+8uiJ5QGBUijEyiNVqAU2sGSaIXMRTtUHN2IOSyLl8QsRQaLFFksU4R1XnmsBS/pZBVWpM3HM3shq7Ln45mphHuqHM6JUjjFS2MXJY1poCQ6K+ewaPl0FjhOY7GroB8vzpJVc1H3kUTTXwqtQGm0g6XQCZFEL3wehoIHeqwc5vEKWAqIlccqRh7rWEVs4hWwSVDAOkE4roBZlCImgoNbsDx6fnLoesuh7SmLpoc0moIBjpsU6q7zWOo6jyVC6yaFhmCO4ymPnpcihj7KGAhlm96KGHj9AqHaxFMB/VUKomOC3rpF8HysQheJKl20l0u9mrfg+/VfffWfVmJiYt/9xsf3H5f/Tntg5n9/9R/X/zXpf5BQmoDckknIqU1CZtEkJFW/ZabcP/hu7l/5etp/888pXzFx9v8yTeprJFUmIas2GQWNSShqfou8+gTkln6DrNokJJS+Y6bMZ8yWn8wcpe9FBC29aDpyS2eiqDULFd3ZLDCcw2JTSbRsZDFyVsHCczFW3urY+Gpi46eDjb8Otv7a2Plr4xCow/IgXZyC9XAM1MXeTxsrTw1MnNXQt1NFw1wBtWXSqOpLoKQ7GwXtGchpTkVecwqqetNZYDAL65hRbGL3YxO7B0VNKSSUJzJTdgJTJL9misS3fC8x6RdM5Lu53/LdnAlMmvM1k+b8k+/m/ovJEv8QQVh3nyb9NbMVvkFSdRJySyejpD0ZRd3vkNH6FjmdyYSlenLl5q/yhaN7R1gZ4oKsxhy+lvgzkxX+wZwlk5HVmoay/kwWGAuSpOIstpuLIKqi4y4r0na2D1rMyghtwhPNyC1YxdraWLqbMhhsymZjfTp91Yl0lcfSVRFDT008vXWJbFybzJbGVIYb09lWn8LmNYkM1sTTXxVDT2kEncWhdBWH0lcWwWBVNEM10QxVR7GpJpottTFsFvarBFepKDZVRTNYIbweK3qvHU3ZjG0oYKytSJRgtqkhk87yeJryw6hO9WF1tDM5QbZk+FqQ6WtOfogdpdErqEnypCknkOqifFYk7haRs2P8GCkJWdRn+tG6OpKNdWnsEOqfO4vZ11PG4f5yjvSXcqiniEPdBRzpzuNkv6AWtoafbhz/MugRyniuHhtmd2sOO9dEsntNOIdbPtc7n+vL4dJQEde2VXBtpJqbo/Xc29/Cj0c6eHCkndv7m0XqY6c3CnaH2RxoTmN/UyrH23O4OFjG7Z1reXhgA48Pt/PDgQ3cHK3l/GAeh9bHMVobxEiFP9vLBBL2ZaQygLGaEPbUR7BvbRT76qPYuyaSPWsi2FUbzq7aMEZrQ9lRHcJwVTDbq0IYrg5nZ10Uu4WEuOZkBJERAfsFkZENaexbn8mudRlsr01mqDSW3txIutJDaEsKoiMpmO60cLpSw2hPDqY7I4yN+dFsKo5je0UCo3XJHFifzXhfGRcF/ev93Ty5sIN3j8b59P4Krz9cZOx4K6mV/qxMtsAqVBMdb0UM/ZXxTLOmvr+ER89/+NLPW/f3YRepI/IV1/CURNNbEm0/SXQDpdANkkIrQAIN/7loBM5BPVicpSGzUQ+bjVbkHHSj52IUL4VZogyWiUJSljz2SQq4pqvglbMAv/wF+Oap4Jklj3u6HG5pCiwXypvCZdHzlWSpiIzFUfedi4afpAiaAVJoBcmgI9Qxh8mgFy6DXoS0SLTEIEIaowhZloXLYRImh3mY8F6KmEfIYyocC5VjWbAABQwDFNDzlkNnlbwIuqvk0RNmt55yaAtGPB7SImivlEV4TV/oIx8lEYx8lDH2VfkVwr63Msu8lVjmrYixjxIWgco4Ri1iRawa9mHzP+kvn3d+8ox/xIuJiS0QExP7n98pr/xxW7+lB/7rK7HUP//vn5gq+VfkNb9BUedbFLQnoqA9CTn1SUgumsBMhX8wSeIvTJr7V6ZI/w2J+d+ipD2F+QZTWGg8mUUmk1hoPJGFyyajpPMdkgsmMEthAjNlBWIXsru/Z67KdKQWzUJuqTiKWhIiAlUzEUhZGkNnecw9lbD2UcbaVwUb/4U4BGuwIlwP9ygjvOLN8UuyJjjdgYgcF2LyPYgr8iS+cBWxeR5EZDrjG2eNo58ey5xUWWIugYrRNJQMJ6Nq8j1qVtNZbD2DJVYz0XdzQXuFE5r2Nqhqz0R6gTAAmYiEaJY/idlKAr5DXHky4qrfIz7/e2YLM+r5E5i94F/MXTIBef3JLDCfgaaDOAZukph6SWHpK4W1vwxmq+bhEqZB//Ym3r7/vDYnrF/Xra/A2nOZSO5zisK/kF46C2UdSdQMZFA3kUfDTAENK3nUbeRRt5NFe7kwWFHAZqUq7v5LCQ43JDnBnsLMlawpCGR9cTgdxZF0l0bRXR5Db3UsXVXRtJVFsL4oiHXZPjSkr2Rtqjv1KYJ7lDst2V50FAbSWRhIR4GfCJ0FfnQX+tO7OoCNpcFsKgtlS0UYWysi2CrMkqviGKxKpLM0noa8KMrTwsiO9SfMazkr7U3xsDPBy9GCIHc7Qj0d8Xe3xd3BFGtjTYw0VdFaIIu6sgTqCuIslp2O/vx52Ac2/TJrPkhwUhuVWclsKE1lc0sZOzqr2dlZxa7uSnZ3l7GrYzW7O/I50rea05tKOLepmFuHOnj//LPmuMAar5/e49zoBg53CIIlCZzpzeT6cDm3Rmu4s3stDw+38fRkH09PD/LkzBCPzgzx4GQ/t490cmm0keMbyzjQnsfe9Vnsb83hRE8xl7fVcWf3eu7sWc+t3S3c2N3M1dEGLm6v5sKWci4IGt9bSrm4Rcjo/owLwufbWMh4dzZH24Ra7SQONCdwoCmeg+viOdSUwOGmBA41xbJvbcRnYheyvqv8GKkJYOeaYMbqw9jdEMX+lngOtaZypDOTo105HOvO53hXEcfbC9lTn86WkhgGCyIYyA9noCCcoZJodtancGBDDke7CjnVL+hbV3B5Ww3XdtRze+96fhzv493dvXx8foIf7o6xc1cdSbkeWHstRd9ZhUU285AzmoamoxL+Sa5s3fWrhKyQv1HZmod1sIaIhEwD57MsUFlUv7ssRB6DEGl0giREpLwkcDaLg2ezOEycJeFzUI+Yg6aInCUwjpPCPF4G63hplifLsypblcAiNcJKFxNSshC/AmU8s5VwTVfEPkERIcSsFySFpr8EmkGSaIdKoRMqhV64NAYRMhhFy7IsRpZlsQJkPiNGGqNIaYzCpTEOl8UsXA6zcHlMQ2VZFiSNYYAUBv5S6PtIoeslhZ6XDPresqLws6GPPIbe8hh6CaFnafT/DS8ZDLxlMPSRZZmvHKb+CpgFKGEeqIxFkBIWwra/Iqa+8ixbJYuhpzT67pLouUtg7CONdagCjpFKWAfIv1FbNmvj//7rKycxMbHpf5RI/Rb2+p1eKwiK/Pdf/mN0wpSvkFX/J6rLvkFRfwKKet+gpPctCrrfIqshZGD/k+kKf2ea/N+YrfJP5DQnMn/ZZJZaTkHD9ns0bL9Dw3YyGjZTWGT6PUp63yGrMQnpxRORWjSReQsnMm+RsD8FRe1ZLDCcyxJzKXTtZTFxV8TSSwFrX3msfGSw9JHB3FsOKz8VnMLUWRVvRFC6NdEFrqRW+JJXH0ZxcwwVbQnUdCZS25VEdUc8RU1RJJf745dmh2OYDmZCYb+PNDrec9DxnoWezywMfMRZ5iWOofts9J1momM/HW37qei7zMDYUxyTVRKYrJLGyEMKfTcpdFwk0XYVZq+S6HjMRXfVXFFZk2mwNFaRctjHK+GUpIxzsiJOcbLYR0pjGypNZq0nV2+d+jLTELJYU8vCMPFcgLLpFNSsxFnmpoqNl4ZoMOEcaIRzsDErwoxxDNXHNlhTpHDmFLIUz0htQhNMSMxwIDt/JUVFPlSs9mdNUSCNRUE0FQbTVBBIY54/9dk+1KZ7sibVnbpkN+qSXKhNdKImwZHqeAdRWxPvQEWMLWWRVpRGWFIWaUlltA01cXbUJS1nfdZKekuCRDPkkXVZHOyr5dBQMwNNFVTlpZMYGUJooC9hIQH4+q5iuaMdhga6LFmshoWlJat8/HBy88TA1BIZJVVmzZVEQUUFPQN9nJbb42hriZl98JdwtmPUZlKSiuipL2Xfpk5O797MuX2bODHSzr6+aobX5zLWms2JjSVc2FLG1eEanl4WrB1/Taz7+eZJbu5q4crmUq5tKebOrjX8cLCJH4628vTMAK+u7+D9nf28u3uIV7cO8PO1Pby4tocn53dweU8nB3qrGKrLorM0gc7iBFrzo1mbGkhVnBflUR6UR7lRFeNBXYInTak+dOQGinyqd9YnIqh2XdpWzt29DTw81MLDw+u5f6CJ23sauTZax/ktZYz35nK0M4XDrTEcaIlkf0skR1pjON4ex7G2OI6sj+XguigON8dyojWZs91ZXBks5NrmEq5tK+Pq9nKubq/g6nAl10equTVWx+1dn9XEru1Yw5XhGi5ureL81koubavk6nAVl7ZWcGlrtShz/OHJAd7f3cfHn07w8aej3L+0kR0b86iu8CcmwYZVIcuw99FFy1aJxRay2Hkbsbo2g1v3rn/5Dp+6eISMslA8Y03wS7XCJ9USjwRjHGO0sIxYgEmYAgYhMugEz0NLCGWHSaIdMQ+tCEm0wueiEzYH/fC5mEZLYh0vIyJlt0wlvAvmE1iiRmjZUsJKlxBcpIZ/7gJWpqvglKiIZbQcRmEy6IfKohcuj0GkIOWpgGmMPGaxcqLaZJM4GUziZRFa4zhZkdSngSCTGSJIZcpiFCTPsiB5jINlMQmWwSRYDuMgBUyDlTAPVcI6QgmbKEWsI2WxjpDBKlwGqzA5rMOUsAr9DItgBcyDFLAIUsQqVHAnW4BjzHwcY5RxiFLALlwe62A5zP3kMfSQQdtZcMKbjYbrLPS85mLsL4V5oBz6zhK3Z8tMyBETE1MXExP7f79Tavnjtn5LD/z5f//T/e9ff4X0/AkYLJ+NnuNMllhMZaHJ9yxYNhlVw+9Q0puInOYEZNS/Rlbja5T1vmWJ2RR07WawbMVsTN3mYOYxBwtPCSxWSmDsMhuD5TPRc5yBpt10llhOR818BotMZ7PEYi7attLoL5fB2E0WK29F7ANVsPNXwspHAfNV8hi6CH7NM1loOo3FZjPQd5TB3ncp3jGmROU4k1UdSOmGWKq6E6npS6K6L4GKnjiKO2PIbgomrsqd4EIrvDL1cUlSwyFGCYdoeRwFRMrhFC6HS4QSHoLtX+xCvJLU8M1QJyBXi+ACfRGCBD3bLC1Wpi3BI20xK9M/t+5pi3FPV8Mjc5Eo/Oadq4pXrioeGUo4J8tjHyuNR+oiOoZLePHmc9KXkMU6tLuVyKIVWIQoo+8liVWwKs7ROnjHW+CfaEdAoj3+yfb4pdngnWqKV4ohPqn6BKQZEp5hSnyWFSnZ9mTlrKAwz52y/FVU5flQk+lDdeoqqhNXUh3vQU2CBzVJ7tQKtcdJblQlrqAizp6yaGuKw80pDDEhP9iY/BBTCsMsKI22oSp+OY1pHnQXhzKyLpXxoUqu7Wnj7rFB7p4Y5urBYba1N5KXEEuUvx8hft5EhQURER6AhYUxsvIyTJk6g4kTp/L9pJlMmzybqZNm8fU/vuN/vvoH0jIqePuGsHHjdm5cu09/5wAhgbHYRG4TkbNd3F7CktvY1tXO6d1buXRomAv7BjmxfT37egWryTwOdRdyblM5V7ZV8eBwDx+e3v5CGHx4xfOr+/jxeBc/HlnP/SMt3DveztOLQ7y9u5sPj0/w8dl5Pjy9yPsfz/P2zmkeXzjEpf1b2N5aS1lqFEmBK4nz8yAxxI/06HBSIsKICfAjwM2ZlXY2uFmZs9LaDH9HS8Jd7YjzWk6K/wqyQlwpjfempSCCkZY8zgpOTaMt3NjVwtXhRi5uqRWVWJ0eWM3JvhzGezMZ783iRE8mx7vSGe/J5FRfFmcHckTh8XMDOZztz+ZcfzYXNuZyeaiIq1tLuD5cxq0dldwdq+Xennru723g3t5G7gqJa2N1v6D+cyLb7npu7Wvk7uENPLkwxNv7+3j/5BgvfzjA9dN9jA0VsWFNGIWZK4iMNMXL3xBnHyPsvAyxdNfCJcCMpLwQto8OiCoOhI5+8eoZ/dsbCM20xi/ViJAcM4JyjfHLNsQjTRunxKUikQ1TwWgiVA7DMDmMIuUwjJTFMEIaw7B5LAubh2mEFNaxcjinKOOVvZCAAjUiSpcSV61DSp0h6Q0mZDSYkVZvRkKNKZGC4cRqQ7zzDfDI0cc1S48V6drYJy/BMkYFs0hFjCMUMI6QFyl8LRNtK2ISoYQg9GEWrop52HwswxZgHbEAu5hFLI9finOSJq4pWrimaOCevoSVmYvwzJqPZ5YyHqJ1biWcExRxjFHENkIgaIGopbEJl8U+SoHlsYqi110SFXBNlMM1QR7nOAWcopSxD52Ppb8qZoL0sLcSJj7CzFoeiyAZTLwl3i0ym7Lz60n/vUpMTGzuH7Pl38Jev9Nr/+25PHnm39CwEsfcRw4DV2k07eey2GoGC82msdB0CqoCQRt9h5rp92jaTMfAaTYmbnMwdRfHbKU45qvEsfSag5WXBNbeklj7SGEXKM3yUGkcQ6WxD5LBNkAeW39FEez8FXEIUsQxREkEuwBFzDxlMXSRQcdeioXG4shpTkN68ffILpnKAr25aFsqYua8GCd/QxGJCaHs5HIfUqp9San2JqlqJfFlLkSvdiAs34rAbBN8BY/oTB18s7TxFdo0HbyTtfFN0icw2YTgVDNCMsyJyLcmttyepBonUtY4kVhtT2yFBWFFhgTl6xKQp41vjiZeWUvxzlbHL0+TwDx1gvOWEJSjRkD2Qnwy57MqTQWXRHmSax04deVXz2XBRWrd1mzCys1wTFXGNkEB5xQ1PFO18U9bRlC6GaGZn41BwvLNCSs0JbzAhMhcY+JyzUnNtyOnwInCAhdKC9wpz/egImcllZkrqU5bSXWKB5UJrpTHrqA01onVMQ4URNuSF2lNfqQN+RG2FEbaUhRpR0m0AxXxK6hNdmNt2krWZXrTku1HZ1EIm6rjGGvO5EhvCee2r+Xa/m5uH9vK9cMjHNrSS099DfnJccQG+xIb5kt4oCfebo7Ymi5Dc+FilKTlkZglgfhMcSTmSCArI4/awqWYGFvissKDAL8QPN28MNQ2YL68EkZO+V9mzT7po4xu2sLNI9u5dXQbV/b1cXZHCyc313JqUyWXttdwbaSW6zvreXRuDIGM//338cUDXt/Yx8uLW/j54iA/Xd7MzzdHPxPyy8t8fHmDj89u8PLuRa4c2c229maqstOIC/Ql0tebcD8/fD08Wem6isCAMPwCwrFzcGepljFz5qkwbbYscySVkVNYwOLFmlhb2hLg609yfCL5GVlkJydRlpXOYPMajm7u4vJYHzfHOrmxvZGLGys41ZnHeHs24x1ZnOjI4rig9tWezvGODM4I69+bikTEe224hIub8jk3JLhu5XJ+Yw4XBnK4OJDHlaECbmwt4faOCu6NVXN/9xp+2LuWH/c1cH/PWhEe7Gvkx4PNPB7v5NX17Xx8doRP787z6c1Znt7fw/nj7WzrzWRdpR/FWQ5kp1iSkWZLSrojcWlOhMXbEBZrTWaBLx29Fdy5d+XfXcy1O2cobAhhZcIS/LO0Cc7XI6RATzSI9c/TwyNDE8dENWxj52MdrYJ93HyWJyzAMUEFhwQlHOMVWZ6giHOyMisz5hNQsITIUg2Sa7TJWmdEYbs5pT22VA4sp2aLG2u2e1K91YuKzT6UDfmxesCPvF5fcrp9yer0JqXFnag1DgSUWrAqzwjXTD2c0nRYnqLFilRt3NJ1WZmpj1eWAX65RgQVmhBWak5UlRWxa2xF1o9xa6yIrTUldo0hsWt0iK5VJ6pqiSik7p+3EI8UVZyilbANVcAiUBYzP2ksA4WImAyOUbI4x8vgmiiNR4oM3hmK+GUuwC9DHb9UXbyTDfBJXoZ/qqBYaCb6na9K1MHGd8ET+UXTKsXExPTFxMS+/p1Syx+39Vt6QPBc/tu//oyU6mRMPBSwECwZXeREClxLrcVF5LzYYjpLrWaibSfOMtd5WHhLY+MvhW2ABFZ+4lj7i2MbMBe7IEkcgqVxCJZjRZgiK+OU8U5WwStZhVUJqnjEquIWrYJrtDJu0Uq4xSjjHKGAXaAMZp6S6DnNQdteCG/PQUFrGlKLJiOzaAoqWuJomSli4rAYG3ddXANN8YmxJTDZgZAMJ0KznAjJchSFugNSTPFPMsI/RZ+AdAOCsgwIzjUgJN+QkLxlBGcbEZghhMVNCMmwICrXnriiFSSUupBU4UxqzQrS6paTssaa+Epjwku0CV2tTlixOiFFSwgqWkrIag3CSrWIKNUhokSbsCJNgvOXEpC7GK/0+fhlLaFlUxZPfv51/fPE5Z3U9McSXWWJV54Gvnm6BOUvIzTHjKh8K+JX25FYZkdChRXxVebEVpoQW2ZCbLEpScWWpBXZkplvR3aOA9mZ9uRnOFKcvoKS5BUUxzpSFGFHQag1+cGW5AWZkx1gTFagMXnhFhTF2FESv5wyYeac5Ex1iit16e40ZHjQmOHO2lQX6pKcqBdUvFJdaMtaSU+RD5uqgtheH8VIYzI7mnMY3VDCzrZytreVMdRcSO/aTNaXJ1KXF01FajhFcSFkhvuQFLSS+ABXEgPdSQvzJiPcj4ywANJDPiMrIpiC2HBKk6PJyyzFMX6viJydkvZRXtXD0aFGTm1dx/jQGsaHqji9pZrz26pESl6Xt1Vwc+96Xj34NaFOYI73P17g9eUxXl7cyuurI7y/c4APD0/x4ellPjy+zovbl7hycD9DjesIc/HAeNFSbA2N8XXxID4sigAvf7TVdZGQkOO7ybP5duJ0Jk6awT+//p7JU2ajrWtESFgkaxvqqVtbg6eXO7Z21oQGhxIfm0BybALlefkMtDRydmwzz87s5snRIZGX8bGWFEbL/NlW6MGmHGf6Mx3pz1zOYK4Lmws9GC71YWdFALtqQ0XrzifaUxjvSOVEWwrHNiSKcLIjRWSKca43k0sb87ixtZi7Oyr5cc8anh5q4udjrbw+2cGbM728vbCRdzdH+PD0GJ9en+Pjy9O8+mEft8/1Mr67krH+JAZbAuiodaOhzIHKIhtKCu3Iz7clI9Oc3Dx71q6LYv/BPlGtvKh/P75h5GA7UYWW+GUIAjf6RBYZEldqTEKVBbFVFoSWLMOvQBefXE388jQIKtImtESX8DI9Isp0CS/VIaxEk7ASdSIrNIit1iBxjSZpjTpkbzCkeMCS+lFXNhz2ped0GH3nouk/n8DgpVQGL2XSdzaTzvE02o6msv5AMg1j8VRvi6J4MJT83kByuvzJbPclo9Wb9PWepDW7kdy4nKR6O1Ib7MlocSS73Zm8Llfyup3J615OXpcdOR0WZLcbk7Fen9R1OiTV6RBXqU1InjqeiQtwDFXE3EcGfTdJdF0k0Hebh5mPNPZhsrgmyOGdIYdfrjzBhcrEVmiRWmdBZr0z2WtXkblmFdl13hSsCySnPoCYApcPy330D02d/m2wmJiY7B8lUr+FvX7H1/7171+lfj/ja0yXzycg1QTPGEOWB2lgsVIFoxXS6NrPQddxDkauklh4y+IQrIBzhCKu0Qo4R8mwIlIKlxhZXGLkcI6WxyVaCffYBXglLSYgXZPADK0v8E/TwCtpER6xyrhGy7MiUhaHUGms/eeJiNnQRQIde3HUTKejpDuZBYYz0LGWxcZDA89QC0KTXIjJ9CImS8AqYrM9ic1ZSUyuB5FZToSlWxOSakFIujlh2RZE5lsRVWBOZIEJYfkGhOTqihCUpUdAui5BGUaE51oSVWBP7GpH4kscSKq0JXWNFelrzURhtcRaHeKqtYip0CCydCkRJeqEFakTtlqLsGJdQlfrEVKoK0JwoQ5+2eokVzty5Nz2LzONl2+fsuNoK2UdYcRX2hJdYkFShSOpVa5k1HqSs9aX/CY/8pu9yGl2I6PBgZRaK+LLTIkpNCY615jYbHMSsqxJybInI8OB/ExnijPcKEtxFc2Qi8PtKQyxIj/InMJgM1YLIeooG8rjHKlMWEFlogvVya7UpAiGFG7UprpSJxByygpqE+ypibGkOtKYyjADKkL1qAozoC7GjM48N0bqIti3PoX9bVns2ZDFjsZUhqpiGapOYLQllwNdZRzpFeqLGzi7ZQMXhzu4srOLKzs7uTjSytltzZwYrGNvewk71uWyfW0WW9ZkMFSdRmd5JoEpA9jFf7bNDM3cwtaGQsbWZbO3JYejnas53V/GhcEKLmwsEVkk3tjbzcf/UyL18cUPPD+/k8dHunl8qJ0XJzfy5sIIL87t4NH4dm7s28SZkX4ODXaysb6a0qR4EgN8CfNwI9rfl6TISKJCQ/Hx9sLW3h49QyMWLF6CgrIKCkqKKCspskBVGS2NxZiaGuLu5kREWBApMdFkxMWTm5RETWE+wwOdXDtzgA/PrvDxxRXe3zvMi3NDorDzpY05HG+NYf/aIMaq/dlZ6cdIuR/bin3YstqHbSV+bC/1E9VAj1YFsr8hUiTfeaorldN6Hi8hAAAgAElEQVTd6SKc78vi8qBAyiXc21nJg921/HignsdHmnl+qp23l/t5d2sr7++N8uHH/Xx4eJA3t3fx/PImHp/p4sGxZm7uq+b8cD6H+pPY2RrBluZA+ht8aF/jSUOlM9XljjSt82frtmLu3jv95Tv88PktOoZzSK2zJrPRjsL1Kyhtc6Oy25uagSBqh8Ko3hxG1eYgyjd6k9/pTNo6GxLXWBBXbU5CrQXx/x97bx1c15ad+6py83L7dvrldZJ7Ay/pyrndSTrdbR8zWwZZlhmOmVkWM22xNmozo7aYLIvJDJJlZmZmtiVbtizJ0u/VWj6Q1P2v+49Xdeqo6qu51pLWtta01vzmGOMbY7hmkWT3I84ylhjzSGIsI4h3jCbFOwFF+QysO1ZQdCyUrReSaLiRRfMdFTsf6Nj3xETrM4uI/U9M7H2oYcdtOQ2X06k8k0TpsTiKD8dQdDCGwrYYvPsisG3biKFuNTqRfJeirlyMeuti1FWL0dQsQle7AEPdPAx1c9BWT0e9dSrZZVNQFk5BlutHunMySUZfIhSjWZ88lKXRA/km9A/MCx7IgtCvxfM1kgFslg0gQjuQGNPXxNuGInGMJd3tT5ZnDnLvQpR5S9EUrkZTsBa5e6WwNn30nzeo+L///L/N9fHx+fsfMbX89Gh/7Az88pc/++qv//Yv746Z9HsSBUvMs5E002ok2hXEKpYSljafwMTpbIj3Y2PCRIJTJxIhnUi0cgJRyrGEy0cSJhtJhGIMEQpfwuV+RCimEaWcRaxacA/PIVY9k+hsfyKVEwlXjiNKPZZI9RjCFSPZnDmUdZKBrE4YwIrYASyL/gNLIgawJPxrVsUMJyhtCtGKucRnLyVZu4Z0/Sak5hAU1jBk5mAy9RtIzl5JkmIpSaplSDSrSNWvJ8O0iUxLIBmWDSQbl5Ogm0esZipR6smEq3zZnDWa9Smj2JA6ns2ZfqIFHaWaTrTan1idHxLrFFKck5E4J5BkH0eCZRxxprHEGccSaxhPnGECcUY/4k3+JJinkmAOEBFr8CPOOJWS7TJedgj5oV++bj0+yZY9ctSFK0m2z0CaswhN0UZ0JaEYy2OwVCZir07CWRuLZWsomqI1KDxLybIvRGZfQrZjJTrbBkzmzViMwdj0Ibj1YXg0YbgVIbilQTgzAnFmbMSZuR63dD05ik3kZQdRqA2jWBdFiT6GIm0UXlUojsyNWFKFuOhKLMnLsX4bf7bGz8UUMxNT9EyEY1fqIvJkKyjJXkeFfjM15lAa7FHszElgf0Eqe3OT2emKZ4cjjl3uRFryMzhYouBgqYrD5dkcF1TUVTpObNVwpEzO/vw0drklNNviqTFEU64KpSBrExlpJpanHBCt5iUpR3FrlGx3JNGSL6QKCS0QszlZkc3pChUXGyy8vnXiu6kVx3f3TvPwYBl3dti4vc3E3Z02LtdoafOmsN+TysFCJWdrHVzfVczVXSVc2VnCzX0VXN+7ldONBewpsVJmUeBUpKDLiEUhiUKaGIksKRpFcizypOgvSI5FmZ6AVpqCSyun0mPlQP0W7p5p48OTK/R/vEdfxyU67rbw8nIjz06Vcm+/nasNKi5UpnFWrJst1MxOFcVdp0pSxcIkLc5o9tkjxeIjQt61gBZnhJjudTQ/iVMlaVyoVIjdqW7vtHJLEIDtc3GnzcvDU2W8vt5Iz4s2+rvO0N8lCLtO0PtwDx+u1PL2TBkvjuXxrM3Fk/1WHu42cn+Xgbu7DFxrFtLOFJyozqJtaxrbSuJpLE9k73YtVy9t43PvD+0dbzxsoWRHKLaqpdhr1+FpCqFoTyKVhxQ0nDDQcMJMw0kTTWdMNJ8x0njKQHmLDHt1LNrCYFS561F4VyD1fEOafSqJ5nHEGocTaxlOgnMMmUUBGBuW4W0Npex0MtWXZdTdUNN4R8u2e1p2PNSx85GWnY9U7Hggpel2KrVXE6k4E03p0XBKD4VR0hZO6YEICvdGkLsjBHdTMI76ILETm7l2PaaaFRiqFqCtmE12+XQ0FdPRVgSg3ToVbcVUtFumoimfSnaJv0jQ0tzJpDonkWDyJVo9jjD5GIIyR37xAGYMZlPGAAIz/0CIfAARgsWsHUS0bggx+mHEGUYQbxxFgmksieaJJBj8iFBO7l+8edjlf/71X0t8fHyG+/j4/MUfu3b/dN+PeAZ+8Vc/y/qHX/2S5YGTMBaGYC+LwZIfj8ETj86ZiN6ZjNGdgsmbjNEbi94bTLZrFXLHN0jts5A5Z6LKmUu2dyEq7wpUnnVke4JQeQJR5KxB5l5KpuDmMgcQrZ5AuHIUYcrhhCqGEKocTLhqMKHKrwmSf9l5BskGEKYcQqx2NEnGiaRaA8iwzyHT9g2ppgUk6+Yj0XxDYvZcorOEOLMfoSmTiMqaRopuKVmWDUhtQcgdYcidocjdQUida0k2zydWKxDzBMJVYwmSjmRjxnA2pI8gMHMMYcqJRGRPIlI9gWjteGL044gxjCVaP4oIzXBCVEMJVgwhWDGUMOUIItWjidaOI940iRR7AGnO6aS7ZiCxBaDKX8axS3X0f6sW7v7cwcHzxbhrN5OZM5U0lx+qwoXoSlajL9uMsfzbvsrVsdhrojCWb0KZt4wM+zxSjbNIM8xGqltItno1OvUGjOrNmNVBWLODsapCsMiDMGVuRJ+yBp1kBXrJCsypq7CmrRKJ15y8ElPSSvQJK9DGL0cVswRZ5EKyIhYgjfgGeeR8VNHz0cYtwCiotAWSTl6COWkRpqSFmJMWYE1eiC1lEc7UJXgyllEgW02Zej015mCanFHfursl7CtKobUskyOVchFHtwjEmsHR4nQO5qewz5NIszmaam0opapg8qWbRJFaTvp6zDIp4Rn1LEs5TGZ2NcfK9ZyusXKuzs6ZGiunq750Xbp1sJ6ejh96Lnd3POPmoWqOV6hpccUhVNI6WZzG8cJUjuQncTg3iWMFArGpuLPdxotDhbSf3MK7M5V8vNxA941dfLiyg9dnGnlytIZ7rRXc2FvKFcGV3uTlTKOHc81eLmzP5dLOPK7uKeDO/mIetJbw5EApTw+W8qitkJt7XVxoNnCySmhhmcLxgkRO5sZxOjeOM4UJYhOLM1tSRbf0mfIMzgr1urfIObtFwSkhV7kgjcN5iRxwx7DPLuRFh9PqieJwgaDcTuVctZSrzRrutzh5ebKEd5dr6b6/m8+vj9LfdY7+7ov0fzzH5zfH6X3cQvftbXy6UsPHs2W8O5rHmwMOnu0x8XiHloc7tDzYpeP+bj139hi4sUvPpW0qTtVncGanhmvHSuh4fvn7zU93z1tOnStnS30E+TWb8dZuxlUTiLcpjNJ9iVQfyqLpZDa7zhlouWzjyM08TtzdwrEbWzl4eSut58vZfTKPhjY95TtTyakJxr5lJbaKhRjLZ6MtnY66fBraqpmYm+fj2recgqMbKTsbTuWlRGqvZlB/XU79DRW111VUXZWz9VIm5WdTKDsWT/GBKPJ3heJt2kxO7Ua8dUF468PJqY/EVReNs1YYI/A2hJPXFE5+cxi5zZtx16/FWr0Efflc1CXTyS72J7tkCqqSKSiKJyMvENzSk5F6/ZF7pyH1BJDhmEKKZTKJhknEZE8gUu5LhGw8odIxBGcMY3P6YDZnfk2wTFjfRhCjHU+83p+Y7GlsTJj0acq8AXV/9df/Y5mPj8+vfuq5/CMm1z/20X72y5999X//9c9aBo36FRFZASi9y5A5V4qkqs+PxlwswVaahrM8DXdFCjlVqXirJbgq47CUhaEt2IAqdw3KvFWo8r8gu2A16sI1aIpXoS5ciiJvPpmeWaTap5Fk8SNeiM3qxxKjG0WkerhIzGGqQYRnf02IciAhioFEqocQbxiNxDyBNJs/mQ5hAzAPqfMbMixzSdIGEKOYSGTWOMLSRxKeMYJY5UTSzHNQuJejzttAtleI62xCnb+J7Py1ojtJmjOHFIdg3U4gSj+OKK0v0dpJxOinEGeYSqx+inguxJUisscRphpDsGwkgZlD2ZQ5nI3pQwiSjSBCPVYkb8FqTjT7kWqbRqZzDlnu+WS55lO+U8bz9jvfL2pPX1+i6bAKW9USZPkTycqdiKJgOqqiBWQXrUBRsBpl4VrUJevILlqJIn8RWe45pAmfa5uJ0jkfnXMlJscmLPYQLNZQbOZQbIZQ7NoQbKpAzJnrMCQvRxe/EFXEbGTBAUgD/cnY6Efyal/ilo8lavEoIhaNJHzRSCKXjCV25UTi10wmbrUwTiRx3UQk6yeSsmESKesnkbJuAqnC+fpJSNZOIH7VOGJXjCV+tS/pgQHo4hdToA5hW34mx+otnN3l5sLeHM7vFUY3V/bncG1/Dlf2uLm4w8m5JhvHq420FKtocqdTbojHKw/DkbIRt2QjBamBlGWFUaFLxqJx0OBU05qv5GBRNm1FKg4JXZMqrTy68F9TpF7evsjFnSUcLlHRlisQcoZIdGfKMsQuTkKLxbNb0sXOTw/2mHlx1Mvbs8W8v1JJ981mum/uoPNCI6+OV/GopYh7e7zc3ePmzh4nt/fYubvPyf1WF3f22bi2U8+FBjmnq9I5UyWU0UwVU5+EtKdDxbG0FUbTlh/JobxIjuRFcSwvmhP5sZwsTuJUaSonhKpjRRKOF6WIm4fTZZmcKc9CGE+Vpou5zSeKU760hCxK4lhRAsdLEjm1JY1LDSruH3DTebWO3sf7+fzqCJ/fHufzm2N8fnmE3qdt9D5qoefBHrpvbefT5Xq6zlXx/mQp7Ye9vG79QsxPdul4tEPNw51aHu3W83C3gQe79NzepuLWtmzutbp5dXUv/T1f2pMKf8hvX17jWIuF7fUJNDUlUtccx9amaEoaQsir30Ruw3rytm2gZE8I1QcT2HVGTctFFwcuFXPgokDMlew9VUzzESs1LTK27I6jbGcYpTuCKNq+gdzmFTjqFmKumYupdjaWxrk4dizCu381RQeDKDkcTtGhaAoPx1F0NIHCo/EUHIkl/2AEua0hePZsxLFtFea6pRi2LkRbNh9t2TfoyhehL1+CccsyrJUrcdasxtuwjrym9eQ2rsNTuxJ7xWKMpfPQFM1CVTANeYE/0oIpSAv9kBX6oyichrJgOtmFs9CUzEdb8g2qgrlkuWeSagsgyTiFBL0fMeoJRKrGE6UaR4zal3jdZJJNXwyLdOsc4tXTWRk25t5/DP5HpY+Pz3gfH5+//GPX7p/u+xHPwM//6s+z/uc//pyAhb8h0TCBdLs/EsNUJPqZonWqcK1Cl7cJc3EwtrIwHFsisJdHYC4OQZu7EYV7FVKn4G5dQJpNIJIZZLhmkOmZToZ7OumeaaS7BAjnM0WLUrAsBZIW/qBTbVNJtfmLu0+JaSKJBl8SdL4k6CeSbJ5CpnMGUs9spJ45yHLmosidT3bBAtSFC5F555DqmC4So0D28QZfJObJZDhnIMv5BoV3KcrcFShzV6LwLkeWs5hM11zSHNNIsQuuaoFUfYk3+ZJonkyCWXBL+xGjn0y0diJRGsGC9mWzYjMr0rayLK2OdVKlqL4WLWX9OITfOdkszJk/8RphRzyFTPti9h0to+fzB5GY+/nE6et1FG0LR1UgWNZjyXRNIss9HalnHlmeRWS4l5LhFtTggthsDhLrNPFFj9NOJkkfQLppHgqL4MoOxOwIxe6IwO2Iwm2OxKUNxaEIxJq5DkvqKgyJS8mOmkdW8HRSNkwmYa0vcavHEbfGl4Q1E0laOxnJOn8k6wJIXj+dtE2zyQiZR2bEQrKiFovIjFpEWuR8UsLnkhQ6h9TIhciEKl4p69BnBuE1JlBfmM3hJg+XW7dw41AlNw9VcuOgMFZx63Att47WcfNoPbdONnPv/C6eXmvj9Z1jvLp9lKdX23hwfj8XW2vZUWLBLY0mZfU8AqcOZ/mo37Bu3G+Imfk1ihVjsQZNxRESgDNsOjnR82m0pPDk+g8djj52vOHkrhp25+nYlyPneLmOmzs8PG7N55mQRnQwl0dtOTw5lMvz44W8PlPGuyu1dN3dQ++z4/S9u07/x/v0fXhIX+ddPr+5ROfdVp6creRmi5uLjVrOCIU9yqWcKpdxukLO2SoVp7cqOF6WxRGhQldRGoeL08VqXYeKhF7S6RwpzeRkhZzzdVouN5m5vM3Kle02ru60c3O3i9t7c7i52821nYJ73cnNPW4xB/lLVysr52t1nK9UcK5CyvlKGde3GXh8uID2SzWiqKv3ycEvMeQXXwi55/4eum808eFSDe/OVvDuZBkdx4t4dzSf90e8vD/s5n2bnXetFjr2mXi718DrPXpe7tbxYreeF7t0vNqt4XWrjbent9Lz9IfYMn0feXxlO6ea0zhYF0trYxz7GuPY0RhNbX0w5XXrKWxYSW7DEjwNi/A0LcG7fQXeHevw7gjCsy0MT2MUrroYXDUxuGuicNdE4K2PIK8hgvymMLyNgThrV2OpWoJx6zcYts5DXzkPY80CzHWLsNQvxtKwFHPDcsyNqzA3rhZHU8NyDLWL0FTOQ1U+A2VJAMqSqWSXTkVdFoC2bBq6LdMwbA3AVO2PtW4qjoYA3E3T8TTNJKdpJp7GmThqpmOqCEBfHoC69As5Z+VOJcs7HVnuHJQF88gunEd28WzUJTPJLpn2JRadN1m0qDM9U8hwT/2y3jmni+ugQNwy72xxrRLWxtCMCT0zVvx+79/8/c83+Pj4/OanFKkfMbn+sY/2s1/6fPWLX/5fLf824JesjR1AqnUsiYaxxGt8iddMIlHrT6pxBlL7PFTuRWi9y9DmrUDtXYYqZwkKz2JkzoVk2uaTap5FokEgE3/i9VNIME1BYvMnyTZFjNUm2wRCmkWmYFG6F5DlWoDUtQC5ZxEKzyJkwrljHunW2aQYp5Go8ydR70+SMYBU6zTSBCJ3fHEVy3JnI8//AmXhHFQl81AWzUaaO500p79olSeappBkmkqyeToplpmkWAVMJ1noYWz3I801WUzPSHdNJs3pR6pjCqnOqaI1LbEI1vMkotTjiVCNFS3nYFWUGPtclHyMddI8kizjSbKME2NHsfoxRKhGESIdQWD6cLS5G7h+94eawq/e3aXpoB5t0SISDGOI040WNx0plhmkWOaSYp9Psn0+SdaZJFr8iTcLFvx4orLHEJ09jgStH6n62UhNy1CZ12KwBmK1heJyRJPrTCDfmUS+NYFcYyw5umjc6ggc8mAMaetQJixBmbCY7MQlqBOXoElcgjZpqejqtqSvxZa1CWtWEFZpKFZZBDZlLA5tEi5TCjn2DHKcWeS6ZRTmZlNSoKM0X09VqZWddXkc2lXGqZYqzrdWca6lgnP7tnJuXyXn99Vwbn89p/fVcmJfDafbGrlwYjc3Lx/m3s1TPLxzjkd3zvPg5hnuXD3BtXOHOXlgN3vrtlKVY8GrSEAXvgzZan9kS8ahXDoO/ZopOMMWUJYVwcnmSno6f7DkOp7f59bJXVw/WM29ozW8Or+DzputfLp/mK77h3l/6wDtN1pov3mAD/eP0fv8In3tt+j/+AQ+twNCRbbP3xYp6aCn6x5vnhznzplaTjVZOVgkpdWdQosjnhZHDHutYd8KtELZZxNiwV+aURxwR9MmlNl0RonNKVpcURz0xnG0QHCj/wDBWj67JYPLNXLRgr/ZpOZWk4bb23Tc2a4XhV2XaxRcrlFxo9HIw30esQTop2s76H10gN6nR+l9LjzHEQRy7nm4n567u75Y/lcb+HSxhq6zFXSeKKH9kJdXLXZe7DHxareet3v0dOzT826/gY59BvFcIGfhe8+3K3i2TcbrAw4+XN1Bf9eL7z0+n9vvc++Qi/NVsZyujuFkbSwnGuI50hxLy7ZItjcFUdO4nvLG1RQ1rqBg+zLydi7Gtf0bLE1zMdbORV+5AP2W5RjL1mMpD8a6JRh7RSDO6iAxxOOu24ijZhX60vmidSrPn4JCUGoX+aEomoisYDxZeePJzBlPhnsC6a4JpDp9SXH4kmwfJyLV4Uua05d0ty9prnGkOseQ4RmLvGAC2oopmOunYW+ejnPbdDzbA8jdOZWC3QEU7plG/q7p5O6YQU7zbFyNc7HXzsO09Rt0pQtRFy1CXbgIbclidGWLURfPR5YnGBpTSLZNQmKbQLJN+D0EjEdiG4fENh6J3ReJIBg1jSdEPopFwQNeDhz991YfH58pPj4+v/xj1+6f7vsRz8Avfvnnk/7m737OhBlfiWSc5ZoiWoCCxRqr9iU2ezyx2RNI0E5Govcn2eBPslEgyykkGf1INPgRr59MrOAK1glWph+R6slinDZM6UuIYhzBMsEVPJYwxQSiVH7EaqYRr5v+LQKI104lyTCNFON0Us3TSDUHIBHcQrpJxGp8RWKKVI4hXCmQ31iRMAWLW3ABG7euwFy1Ckv1aqw1qzFtXUF24UIynLPFDUKMejKxGj8S9FORmKeJxCy4nIV4cIp9ikjQqfZJpNonkibAMZlU22Qk5knE632J0YwlWj2GGO0YEgzjiNaHfk/O6+VlpLv8SLROIFIzik2Zg1gl+R2bMoZS0iylvfO7FKk+Tl9rxFW1WbTOQ+RfE6kaQZyw+dH7kWCcSpJlOhL7DFLdM8jMnYlC2GwUzEWV9w3ZuYvEjVC2ZyVazzpM3s1Yc8NweqPweBPI9SbjdaXgsSXjsaTgMiVj0ydi1sRjUsVgUkRjlEagSwtClbSGzJhFpIbOJiloGklBAaRHzUUhWY46Yz1aaRBaWQhaaQg6aaB4TS5ZgzpzMy6ThHy3nOJcDSV5ekrzjVQW22jYmsPOugL2N5fStn0LbdsraG3eQosA4XhXFW37amnb38DBlkYOtTRxaH8jh/Y2cmhPA4d2N3BoVz0Hd9TStq2G1oat7Kkspj7fgUuWQnrQGtI3r8KYFEahNp29lfk8u3fze8KAPtofXuDh+e3cP1nN7SPlXGsr42prOVcPbOHKgUquHKzj1omdPDjfxuPrx3hx/zztL2/Q1fkE+oROSQIpC1/C+FEk7O4Xl2i/c5CnF7Zz89BWzu/KF2t1H6kxcrTWwJFqHYcqVBwsl9NWksGBwhRa85NoFfo+58TQ6o5knz2EnSahu9QmtpuCRWwzBbPbFk6bNx5B9HWxUsblGqVIwjeb9NzbZeH+bisP97l4fqiI9tM1dF/fTc/9A/Q+OUrvs2P0PjtK7+ND9NxroeumEBtv4sPFWjrPVfLu1BbeHivh1ZEiXh3K5/XBXN605fD2gIu3Bxy0t9roaLXzrs3B+4Mu3h/28O5wDh0H3bxpMfO2zUHn2Sp6nwoeCaFP8Jd5eX/3CHf36LjakMaF+hTO1kk4VZvI0dpY2mqj2VcXyY66SBpqI6msC6e4PhhPzRosWxehK5uDqmgGMiE+65qB0vMNuvxVmEoCsW4Jx7YlAltFBDbhuCIEW0Uw5tIN6AtXoitcjLbgG7LzZ6PMnYbc60eWQMqOsSTbRpNkHkmCYTixumFEqYcSoRpCRPZQojTDidWPJsE4lgSjsIH2RWKbTLpnKvLCADTlAZiqpuJqmkbBnpmU7J9F8b6Z5O+aSe622eQ0zsfTsBh33QqctWuwV63DWrEec9kmjCWB6Is2o8nfiCJnNZnORaKnUGLxEzfrSdYxJNlHI3GOJcXtS4p7IvFmXzamDv8csOLfj/6v//cX4T4+Pn/4KUXqR0yuf8qj/dUv/yLrf//7/2Rt5BhUOfOQOmaQap6KRFAVqyd+K2jwJUI+kQj5BMJk4wnJGk1QxnACM4YSmDmEzVIh5jqUUMVwQuQj2CwdwaaMEaxPHc7a5KGsShzCyvjBrIgfwqr4IV9ylyXD2JA6jM2ZIwiWjiBYNoxQ+TDCFcMIkw8lRDqUoMzBBKYPYmPaF2xKH0Jg5jCCZaOJzPYl3uhPim2maIHLchegyFuEInchspz5ZDnnkmmfQ4ZtPpm2BWTYFpJm+QaJQUiZmk6MVogj+xKlHU2UfgTRhmHECC+3YRRxhtHE6MYQrR1DlHo0UZrRxGhHi9dFC9my8XtyXp1VQ5xpIuHqMQTJhrMhYxDp9jmcurLj2wUN3n96xs5jNvSlS4gzjSbGNFK01tNd/qILX2ISBCQTSDFPJN02iSyHH3JPANn589AULEaTL8TLV4rQ5K5Bl7sBgycIszsChycejzeN/LwsiguUlBSqxTEvJxOvO4M8VxYFTimFDin51jRc+lh0WYFkJS4nPXYhabELxFEqWYZWuh6NdD3ylBVkxC5EEjKHhE0ziQ+cjSRsAVkJa9BJw3EaUyjKyaaiyEJlmYOaCg8N1Xki6qtyqNvqoX5rDs01+WyvL2ZbfTFNNYXUV+ZTXe5lS5GTkjy7iGKvjQK3mQKXkTyHjhyLGqdWjikrFVVCDMlBm0jauB55dDiGtEScqkx211Xyvv3N9/Pb/uIxZ9uaOdBYwL4aB/vrHRzYlsPhXQWcaCnn/OEGrp3aw51zh3h67Szt92/w/vFN3j+5wadX9+l7/1zsu9z/sZ3+rnb6P72hv/sV/R+f0ddxn943t+h+dZ0Pzy7S/vA4L+8c4PGV3dw708TNI9VcbSnj0q4CzjW5OV1r5niFhmNb5JzYKuVoeSYHi9PYn5/C7txk9uQkstcTxz7BonZEcMAdwSFvNEcLEhCEYFebDDw8kMubs9V03dhF76M2ep8cpvfJIdEyFqzj3qcH6X0ixJFb6bm3l+4b2+k8X8PbY6U8b83l0S4H97eZuNek436TlofNWh41q3ncrObZdi0vdxt4vdfM2xY7HW1uOg7m0HEo98vxATvvjxfTfX0PQqGW7776u9+KpUzv7dFwY7sgPsvkUmM65+tTOFGdxNGaJA7VJNFSl8DOujjqayMprQzCWbQKnXchCvc80i3TiNNMJFblS4JmEinGmWQ5lqBwr0bj3YipKBzHlnhRv+KtScZdmYB9SwTm0kCMxWvRFQjvwQJkObPJdAeIm2LBOhVIMEBwGTwAACAASURBVM48nGjDECJ1gwhXf02oaiDhqkFEaYcRrR1JpHok4SoBo0QRlqBzyXBNQ5E3A3XxDIwVM7DVzsJZPwt77SwslTMxlM1EVzQbXcF89IWLMRSuxFyyEWtZKNayKCxl0RiLI9EVhKDOX4ciZ5moLxHCeKmOySQ7fMWUqVTPBDJy/Ei2+ROUMf6D78zfFPz3//7fZvv4+Pzdn7J2/3Tvj3QGfvGLP5/0y7/9H3dHT/oXElSTyM6dgdw1lXTB/WzwJ07jT3T2VCIUfoRJJ4uIkPkRpfInQjmBENkIgqSDCZYNJFTxNeGqIYQqhhIsHcrG9MEIuX0r4//A0uj/YFHEb1kc9VuWxwrXBrAyYaCY77wmeSBrkgewOvkPrJb8nlVJv2Nl/G9ZEvWvzA/5itmBv2LWpl8xN+hfWBj+G5bH/gdrJQPZmDpYLFgSnDWCcPkYYjQTSTIHiJayLGceSu8CVN4lqDwrkdtXk2VaQ5phDSm6FcRmzydMGkBgxhjWpw9ho3QggYoBhGgGE2EYSrRpGDGmYUQbhhKlH0qUsBPXCBhOjFYg7rHEGFd+T87L0xqJ0ownUj2WRONktuyS8+b9DyUi7z07Qv2BVKzVi8jInUC8bRwR+rGEqEYTLBtBqGw4EYrhxKiHk2AYSbJ1DKn28eLLne4KIMszG7l3Aeq85RgK1mHOD8TiDcYuWMy5SeTlp1OUL6UoT3A3SykukIvwOtNwGpOwaxNx6JLwmNLIMafhMqbgMibjNibjNCRh1cShk4YiT95ARsIqMhNWo0rdiF4agkkeji07BpchiTx7BiXebPKdcqy6ZGyGNLwOJQU5WvK9Otx2BQ5LFm6bDK9TSb47m3y3mhy7EqdJilmThloajyw1CmlKJMqMGHSKZMyaDEzqDIyqdAyyFHSZEvSpiZjSJDil6bhlmTilaVgykvFoFZw9duQ7voD+fi6ePE5TeTGVeVZqCm3sqMll37ZiWneVcqSlirNHmrl6Zj93Lx3l8bVTvLp9gXcPrvLxyU26X9yl9/VD+tqf0PfhxRdS7npN34fn9HU8oufVbbqeXqHj3mkeX2vj5oWdXDvbzNXTTVw/2cDVw9Vc3F/GhT3FXN5bzI3WMm4f3sK11kLObHdwpErN/qI09npi2eOIYI89jP2uCA7lxXOiNJXzVXKuNhu5vd/No2NlvLnUxMe7bfQ+PcXnF6fofS4oqw/Sc28/XTd38uFqIx0Xqmk/U8G70+W8P1lM+5Fcnu+1cr9Jw506FbdqFdyskYu426DkQZOKR01KnmxT8XyHhpe7dLzco+fNfgvtbU7eHcrh3WEvnW12Ph528+l8Fb1PTgM938+z4Pp/c8TF873ZPNmj5P52KbebMrnRmMaVhhQu1Ek4XZ/Isfp4Wmqiaa4IYUvRenJzV2DzLELvmo/cMp1U3RSSBe+bdgqJmmkkameRpJtDinEBmdZlyB2rUbrXoXKvR+lah9K1FoVrDVm25aLeJVE7k1j1ZKLU44jSjBI30vHmkSRah5NgHUqCdQjx1sHEWwYRa/qaGOPXRBuEcRAJlmEkO8aQ7vYjyzNL1KCo8paiK1qJqXwF1sql2KoWYKmcg67EH4UgzvROQuGdgtI7DaV3Fsqceai8i1DlLkPlXY4iZzky9xIynd+Qbp9Nqm06KXZ/UhyTSHaMI9k1lnTvRDJyppBomdK/MnrEhX/5t/8nwcfHZ6iPj8+f/0ip5afH+lNm4Oe/+POs//WPP2fO6n8nxTKeDKcvaTZfUi0TSTZOIlHnR4LWnzjt1C8ELZ9CmGwyYbIJhMnHEqYcSZhSSBsS0gGGEPYtKQvVvTamDWV9slB85GtWxPyepVG/FbE8+nesiP09q+IHsCZpIOskX7M+eRBrhaIk8b9nafS/szD818wL/hdmbfwV09b9EwFr/onpa3/FnMBfsyTyd6yO/5r1kiFsSBYKmAxiXcpgNqQPJVA6jFCVsDseTZx2HMlGPzJts1A4F6F0rUThXInMvowMq2A5zyRaPZFQxWjR2t8sG0SQsLnQCC/0EOItQ0i0DiXRMowE03Di9SOI044iVj2aGPVYYrTjiNYt+J6cl6TuJiRrBFLHXI5dqPveNdr9+TUHz7nx1Cwn0zOOeOtI4q2CGnw8odmjCVGNJDR7BMHKIQQpBhKkHECIaiARmiFEa0cQqxtLvG4CidrJZFpmofMuw1G8ibzySPIKI/F6o8jNicPrTiDHkYTbmojTnIjTJBFjxE5jGnZ9GsbsJLTyGDSyWAyqRGz6dHKscvKdAtGq8dpUFLq11JS5qC51UODOxmFMw6QWPiuNHLsUnVIg1VD0qgQcxgxsxjSMagnKrCiU0igMGglGXTK67Hh0qniM6kSsOgl2g6CuTsSkisOkjMWijselTybXlEa+JYtih4Iyj5Zyj45yt47KXBP1hXaaS3PZVZ7D9lIP20tdbC91c2JfM53tP/RcfvnsMbvrKynPMVPk1FJZZGNnfTEH9lRx/GAT50/u5vr5Nu5dO8bT22d4/eAiHY8u8+7xZT4+v0H3m3t0v7lPl4C39+l594j+7uf09wpW9H163t7g44vLdDw6xYubLTy6tJ07p6q5caSUq60FXN7v4dJuBxd2WDm/TehBbeJss5nzO+xcEhpJtORy52ABD48W8+hYKY+Ol/HkVCUvLzbQeWcfvU+O8/nlWT6/vURf5w36P94WC5L0dVzn89srfH5zmc9vL/P51XmxSEn3zb28O1vL68PFPN3n4l6zllu1Mm7WZHKrNpM79VLu1Mu4WSvldp2Me41y7jfKeNgo5fE2Gc93KHm1V0d7q4V3hxy8P+LmnejKdvL+sIOPp4rovrmbvv+0seRzJ9239tF+0MbrFgMv9ut5tlfL411q7u9QcHublGtNGVxqSuNsUypH6pLYWxlDdVEQBblrceeswpqzEn3OclTupWQ5FpJpX0iWYzHp5m9I0s4mVilkWPgjEG+qaR5ppnmkGOaQqJ1BrCqAaLk/0Qo/YrInEaMZL2ZzxAj5weYRJNqGI3EOI8U9jFTPUFI9Q0SkuIcgcQ4mwTaIeOsgkuxDkDhGkOYaT4bHj0xPAFJvAPLcAJT5/qgL/dCU+JFdNAmpZyyZztHiqMwbj7poMtmFfihy/ZAK9wqaFJsfSaZJxAkhL+04YnTjiDOMI8kixJTHIXGOIdUzjgzvRNJckwiTj+uatuS31b/4m79Y4uPj808/pUj9Kez1I733O9HX74b9DWuTBpAgxGmMI0k2jyXNNJEUw2QShSYO8vEEC3WcU0ezIXk0m9LGEZwpFBCZQFS2L9Ea4Y9SiAVPIUo1lXBpAKGZAQSnTWVzih+ByRPZKBnLRsloAlNGEZg6gk3Jw9ggGcK6JIFgB7FRMpgNksGsiR/Isujf8U3ovzF706+ZvuYr/Fd+xdSVv2bmut8yf/NAlkYMY23CaDanCzVofQmR+hKs8CVQMZ71WSNZlz6Y9akD2ZT2NcEZQ4mSjUGim4LUNodszyI03kVkiy776SQLAiutsMEQLP8hIoTjaM1o4oUXzDgeiXEcyebxpJjHITEKhD+CGM1wotTDxThxVPY0BDHY4pRjLElpxbMlnqcvf6gp/ODZKap3S9DmzyDZPByJeQTJFiFOLuQ/jyRCIxDzMEJUgwnLHkyUZigx2hHEa0aTpJ1AmtEfuWMWKvdcFEK+uHkWCuMcNKaFmCwrsZjXYzEGYtWHYDdE4zYn4rGkfokz6xKx6BIw6xKw6JOwGiQ4TKm4rZnkOOTkOlXkuQSrVkOBW0ueQNB2lWjh5jhVCPA4lDitUpyCJWyX4bZJsZvSMWmS0MijUWVFIM8IRZYZhjwrHIU0EpU8Gq0qFoM6DqM6DoMqBr08AqM8ApsqCnt2FA5VJHZluDjmm5Oo8EipKcimrkhDTb5KHHdWWlA7m5AY9tJUXc7hHUXcv34K6P/ekmt/+YA7lw9z/exebpzfx+0rB3lw8wTP7p/j1ZPLvH1+jXcvb/Lh9W163j2g/+NT+j89+4KeF/T3vhRB3yvoFwhfgHD8jP7eR/T3PvyCnvsiaX58dZGOxyfpfHqKj89P0fXsBJ0PD/P61n5eXNvLy+stvLrRytvbB/nw6Djdz8/Q/eos3a/P8un5aT49P8Pnl5f4/EYg3pv0vb9Lf7cQ5xZEVi/F4753d/j8+jo9Ty/w6dFpPtw6xJsLO3lxspaXx7bSfqyczuNltB/M4ZEgFKuRcak8hctbUri6NY2rFakiblamc7c2iwcNcp40q3ixS8vrfUbetlp5f8jFx2O5dJ0ooOtkIV0ncuk6VcCny3Witf5FDPdlmoW64u/OlPOqxcSL/UZetAgw8XSvnge7NNzZqeTaNhkXGjI5WZvO4epU9lYk0VAaS0VRBAUFIeQUheAsDsZcHIihcAO6gnVo8taIHq0s+2KSDXOJzZ5BlNyfsKxJhGZOJCh9HJtSRrMxeRSbUoXmMiPYnD5MDHGFZA0iTDGISPVgYgxDiDMPIc4ymDjBUrYMIt4+hETnUBIdQ4m3DSHGNEi0nKP1g4nSDRHfMyEOHaoYRIhsoFgYJFTxB8KUvydGPxCJbQjprqFkeYcjyx2JPH80qsJxKAt8ycrxJdk2hhjdCMKEblhZgwjMGMTmLMFjOJxI9SjRmo/RjyHJKgjAfIkzjGd1zJA7vx3ydzIfH5+xPj4+P/+RUstPj/WnzMBf/PzPsv7qb/9C7Je8Nu1rkRwiVCOIFmIwyrFEK8YSIR1DUMYoNqaOYF3KcNaljGBj+iiCpOMJV/kRo51Ogn4Oifr5JGoXIdEsI1G1gljpEiLTFxCWPIuwlAAi0v2JyJhIRMY4IrLGECkbQ7RyrJjnFyIbxSahwEfaMNYJ8ej4wWKJuwUhv2Pm+n8lYJXQDvG3fBM4iBWRo9mYNJmIrJnEq+eTYlhEmnkJqeYlJBkWEqueQ6RiOmFZ/gRnTGZz6gSC0nwJy5xIjGIyEo0/meZpyB0zULqmI3MKuYVTSDJM/FK9LGssoVnjiJBNFFOeBNFYvH4SiaYJ4suV6hDcy+NF5aUgJonOHkW4fBRRyomsz1ITlm3CVL6Dnr4vDRX66OL05VqKGiJRuANINY0hwzaBTMdkMp3+ZDoDSHNMJ9UxkzTHbDJd85DnCEKXVRiL12EsXItOKNZi/waVeQ7Zlrlkm+ejMS1Ca1qOybwOpyOUXHccuc4kkZRN2THoBKGXNAK9LBy9Ihy9MhJjdhxWfQouqwy3XYnbrsJpkWM3SXGaZORYlaLlLFjQHpsCr0NBkVdLcZ6OQq+Gwhw1eW4VTrNAygki6RqyY9GpotEqo1Ero0VCVsqiUMmi0Shi0Cqi0SmjsOni8ZgkeExJeAzx5BjicOtjcKgjcGmiyDMnUWxLo8yZSZk7iy05chrLjOyr99DSkMPO2kIM7kZkzgNcvvFDiEAQJnW+fkj7kxu8e36DzhcCAd/lU/sDet49pvv9E3o6n/K564UYM6ZP6O4lKLmF/x8BguhLgJDSJuC768KxcF342Q5AUG1/N7ZDnxCDfkF/11NRJNbf/Yx+geSFsesJfZ1CytUDcezvEsj96Rfi7XuD8Dv097bD5w7ofwd9HdAnnL8V0d/7Jb7d9+EJfe13+fzqBr3PL9Pz+Cxd947TebONzustvLuyj/ZLu0XCfntxF28v7qb90p7v0XF5r/gznddb+XCzja7bh+m6e4xPd4/z6f5Jeh6eoffxOXqfXqD32QV6n56l9/kl8d/k8w9qd4Ga+z+9FDcKn19e4fPLq3x+9S2E8xeX6X15me4XV+h6fpkPzy7T8eQirx6d5/nDczy6f5r7905y78FJ7j44ye0HJ7h1/8SXUTw/xe0Hp7n94Ay37p/hxt3TXLtzkqu3T3Dl1nEu3zzKlVvHxPNrd05w4+4JbtwTPucUdx+d5t6TM9x/do4Hz8/x6MUFHr28wOOXF3ny+hLP3lz5Fld59uYaz95c5/nbG7xov83Ljju87LjLq457vH53nzfvH/C28yHtnQ/p+PiYzk9P+dD9nI89L/jU+4pPn1/T/fkNPX3t9PR10NP3jp7P7+jp66Sn7wO9fR/53P+JPrrpE0MAQgtSQUj4nXhOvNgKhAG/Bf7sT1m/f7r3RzgDX/3HV1/967/9pmX2/ABKauwcudDAiUvNnLqynTNXdnD26i7OXdvNuWt7OXt1L6ev7OH01b2cubafczdauXT7EFfuHuP6vVPcenBO7DN8++FF7jy8zJ2HV7jz4DK371/k9v0L3HlwkbsPL3L/8UXuPxFwgYfPLvHw+WUePr/CoxdXefTi2he8vMGjFzd49FwYb/Lo+S0ePb/N05f3eP76AS/fPuZ1+1Pa37+go/MV7z++5kPXWz5+aufD9+jg46cOurrf0dX9nk897+nu7RTziYWXp49P9NNN//cvz39+gX6wxL43yf5/ORBeZuGlFiD8fl/Q399Df98X0NcDfb3wuYd+Ab3dIvp6P/G5p4ve7o/0fvogoufTB3o+faT70we6uz7wqesDXR87RQjH36Hr43s+fezk0yfhmvD993zofEfn+/Zv8ZbOd295L+IN7zpe/xd0tL9CwLtv0f72Je1vX9Dx9uWX6x2vef8thHu/O+7seE1nxyvE8d1rPrx/w8fOtyK6Otvp+tDOp48d4rN3dvXz+fu1Tlj3uunr/Uhfzwf43AX93d/P13fzJo79PSDg//h//69z/MM9/+f8//C9boGtvqCvi/7eTvq7331BzzvxnH6B5D/R3/ue/k9vvxTpEDZs/V3Ad/hucyCQtEDOr+nvfknf+0d8fn2bzy9v8PnldT6/us5noT3l43N03j3Ou9tH6Lx7lE8PT9L14CTv7xyh49ZhOm4eFsd34vEh8fzdrSN03jnGx3vH6RII+dFpeh+fpfeJQMoCzn8h5WfnRPIVBG//iUyAbj6/uSnGnHufnPoyPhU+4xQ9D4/Tff8IXXcP8fHuIbGf9esbLTy9vJu7F5q5cbaeK+dqOXdmK0ePFdN6KJc9B1xs22ejcbeVpr12tu13sfOAl10Hc9ne6qV5v4fGfW5qd9oob9RRWK0kd0sWOeUZeMrTRbjL0/BsScdbkY53axrerankbE0hp1KCpyoRd1U8rsoYnJVROCsj8VRH4q2NIrcumvy6aArqoyloiKGgXkAcBXXx5Fcnkrs1EU95Eq7iROwF8VjzY7EVxuIoicFZFoVrSwSeyjA8VaHkVIfirgrDURGGtTQMY2E4hvwI9CJCMRSEYC0Jx14eibUkCpk58EVwxDLLzICZUydNmvRTitSPkFf/5Ef656/+edK//+7XrNk8j8I6OXUteqp2qajdo6Z+n46mFh3NrVqaWzU07ldTv1dF5Q4FpY0yCmozyavKIq9aTmGtipIGPVubrdTtdtO4P5emlnyaW/Np3O+ldo+Tqu1mKpv1VDbrqNympnKbii1NckoaMihpSKOwPpncmkTcW+Owl0ZjLYrEWhyDqSAGgzcKrTsajUtADFp3HMacRGz5KbiLs8jboqCoKpvi6myKKpUUVSkoqlGKv1dhrZLCOhVF9WpKGnWUNBgorjVQVK2juFZPeaOB6l1m6vfbaG5zsO2gnaY2C1V7siluTiOvLo6c2gg8NUG4azbirl1PTt16vI0byNsWSNHOUAp3CEURIsmpi6SoKZkTl5q+Lygi8Pnth6fZcTCHwrpUXFuiyauSUFSXRWljNlu26anYbmbrDhuV221UbrOwtUlPeZ2S0soMiiuSKCqPJ780lryiWPILEijMk1DiTWdrnoL6IgONhWbqC8zU5hmo8goxWhXFDil5plRydBK8miS8uhRyDZnkWeTk2rLFWLLbqsJtyybHqaXAa6Qo14TXqRFRmm+lvNBBkddCvltPrkNDjj0bt01JrktDkddAoVdPvkcjosCjoSBHTYFXQ1GuRrSq3bYs0VVemKulpMBAWZGJilIL1RUOare6qKt0U1clwENDlZv6Khe1Wx3i8fb6PPY0F7FnWzG7mgrZ0ZCHcO1QSy0vn/1Qc1wgj8cPr3LlfAsXT+3i8pk93LrUxt2rR3lw7ThPb57mxZ3zvLp7gdf3LvL63nle3DnD0zsnePHgNJ0vrvLp7S263tyk680tPr66xZtHl3h65wyvH16h8/ltPr66x8dXd3n/7Brvn17i4/PLolX48dklPj65wIdHZ/nw8DQfH56i894xBEJ8e72NN9cO8OZaK2+vt/Lu5gHe32zj3fVWuu4IqU4XxF7Q/R9v0P/pBv1d1+jrOCfmJPc8PED3rT10X23mw5lKXh7M51mLi1etTrFa1+v9Vl7sNvCkOVt0T9+plXKrOosbVVlcr8rkelU6N6rTuVWbIcaa7zbKuNek4P42FQ93qHm8S8+zfSZettp40+bk7SEP7QfdtAtpU0fz+HS5mc8vr/2nrWg/gpX86VI1XWdL+XSh4ltsEc+7ThXx4UQ+7Ue9vDrk5sE+C1e2qTlem8HeLQk0lkVRURyMJ2cVOusCMgUPm8KPqKwJhKWPJyh1HJtTxxGY9gWbUsayKWUUGyUj2JA0lPVJg1mXOJC1iQNYm/gH1icNYKPkawJThxKcOYLQrDGESscSkjWG4MzRBGYIHr2hrE8bxNq0AaxLH8AGsYb1AIIzBxKWNZjwrGFEZI0gImM04WljCU0eS3DiGALjx7AxZjRrI0eyKnw4K8OHsjxsMEtDBrA45A8sDR3AyqiBrEsYwqbkoQSlDyckU+gPMFr0moXLhXG02CsgXDleLEwUZ5gi1tsPShvbO3Plfxz+23/4RYiPj8/vfioo8idT2I/vA4Seyz//yz8r+Id/+TkBy79iY9rXbEgZwKaUAYRkDiJSOoQYxVBiRQwhSjqE0MzBrE8ayIpooafyAJZHC7Hgr8V2juslIwnJ9CVG6U+CdgZJ+tkkG+aJSNIL5edmiMKOWEHYoZmGRDeNJO1UEjVTSNT6iaImIXUiWj6O4LSRBCYPY2PSMNYnDGVt7BBWRQxiRdjXrAwfwhohvhw+nI3RowlJmEh0qj8JWdNJlH9BnDyAGNk0ohUzSNR9g9yzHn1RJObSROzlGbgqFLi2KHGUyrAUpGLMS8BeLCFnazre6nRcFfHoCgKRuZaQbp1FknES0RpBTDaUGN1QYk1DSbANI9k1mvQcX7IEIYg3gEzXNJyVoVy/d/j7Ra2j8znNLW7UnvXi3MRk+5NmXUiWczlSoZOUexOqnBD0BVGYiqLFVBFTwWZMeesw5K5E51mMzrkInXUxeuNSjPqVWHTrceiCyTXGUGSWUPT/sfeWwXHeabq3qvY9552pmd2ds1j77tndmbOZzCQxk8xMMcQMMUoWM0OrpW4xtLrVklrMLBkkWWQxs0WWxbLIJLNjimOI83vr/yjJ7J6v+ZaKqu56GqSO+6n0c/V93xdo5WSEy0mPkJGkcUIXZInG+xxB7qfwdzqBv8NJglwNCfUwJ1RuTYiXHSqFI2pfNyJCFERpvIkO8yFKoyRC5YVOrSQm3Fcab0eEKhAVGapAp1YQE+4j7aLTE9SkxoeSJEbekX7SyDs1PojEGD9pd50cG0B2moYL2ZE/gvDli/GIKs5PpKwohStFqZRdFlKq1LkqnDtWlGRQWZpJ2eVUSvKTKS1IpqIonYbK84wOdvDte9Fpzv28fvWUqfFuhvrquN5VwWBPFSN9dYz3NzA52MLt0Q5mx7u4N9HNg6keHk/38XC6hweTXTy9dY2X90Z4dW+YV/dH+ObROK8fjfN8doSv7gzx7O4IL+6N8/WjSV4/uMGre0O8unudV7f6eDF9lWc3mnk0VMODa1e431fCw2slPBm4wtPBCp4OlPOwr5S7XYXc6bzE3auXeNh7mWcDV3g9Ws3bG7W8nazj3VTtXM3U8/5uoyR9ej1VxesbFbweLePFtXwetWdwvzGB2boo7tdGcr9Gy92KUG6VBjF12U+qmyWB3CwNYqY0kMlifyaK/JgqDeRWeQh3KkO5K6w2xd+Uq7gpvLErQ7lXGy6B8xMBzk0xPGuO52vh8jXdwnff/IVYJ/Td7+928HakgLcjhbwdnSvhu/1m8ALf9OfydW8GL7rTeHY1mYftsdxpieRGfSj9VQG0lSkoL3QlN8uSmLgzBInVk/9eHBU7sPbaipnXZgw91nPGfRWnXFdIMbCGTosxclqEifMCzGSLsFQuw9pnBTZ+y7H118c+YBWOgWtxDtqIc/BmnIO3Sj4IQkFiF7gBa3/hmSDkl0uw8Fsyd/RZgrliMWbyxZjLlmIurlmu+pg5r8TEcSVG9voY2K/glO0yjlst4ojFPClDfi5L/mMOW/yJo9afcML+M844L8BItliSi1p4L8PKdzm2ASuktZaQVwpvfSehl47aJBkWCSmkqUz/1dqdf0j6q7/S26Wnp/ePPz9U+eUd/eQzICRSf/t3v5peuPJfOGW/FAvv1ZjI9TGVL8fUcwlmikWYKRZg6jUfI495GLp9xmnnzzjl9JkEysft5nHKackcEcxjFaYeqyRgtvHZiJBS2fhslcrefzsOgdtxCBaM7s04qbbgrtmBXPs5ioi9+ETswy/iIP6Rh6RSavcjU+/GKWgrdn4bpF2vIJ2ZKvQx9dTH1EMfY7cVGDmvwMRpJeYua7DxWIejcgNOPhtw9NuEg/8W6b/pJKIRw4ST2DnCs11IvhxAerGG9CItGUURpBWEkXg+kOhML8KSXNAkOROVJSMqyw1Nqi0BcYZ4RRzBI+wL3DU7cQzZiG3gKqyDVmCjWo5dqD726lXYhc45ggmns7yKYJ68vPsDbtA/0kh0lrPkiyvyp+0C1+MWtgOZZjce6i+kEA656hCK0GP4a08SojtLeLwRMcmmxCYZE5NwjrgYQ+KjzpGgMyYxwpwkrRWpWjsyw13IDHclI8yFNLUzKSoHkkJsiAs0J9LHiDCFIRqvc4R5GaNVWhDuY0uknxOR/m5EpfedcAAAIABJREFU+MuIDPIkOtSbhIgAkqOCSIj0l+RMCaIrjgkiMXqOACaOybHBpMarSBHksNgQ6XZGkobMZC2ZyWHSfUEiE7KptAQV+bmxlBelU1ueIzGjm2vzJWCtLs2isiSTqtJs6ivP01pfyNWWUno7yueqvZyu1lLE71eXZVFbnk1rQwFXW0oY7Gvg2ZO/nFtxkl89v8/szetMjrQyPdLKvZleHt3u59Gtazy53c9Xd67zUoDu4xtSff1onBcPh6X6+vEY3zwZ5/XjMV4+GubF/UGe3x/g+b0BHt/q5f5UJw9vdvPV7V6ezlzl6UQLj0breDBQyb2+Mu73XOZBT4GUBT1SEc+QyIiuTmSsLoXJJsG+zuVB10UeduXxoCOLe20ZPOzI4kXvRV71XeJ5T54UnvGsO4eXfed5ff0SX4sauMTbkSLejpVIJKyv+3J52pbE46ZYqcN91ZHANz1pfN0h/K513K8J564Io6jRMlsTLgHuvZowblWqmLkSzM0rwRIgCx9syQu7MpTZGkHciuBJUzTPWuN43hLHyw5B+irj/cPhH9UE4hx/eD7F29Ei3gye583wJd4MXeTN0IXvbwtwzufN9YtzDmPdmTzvTOFxWwKzTTHMNOgYrdXSXRZE7UVP8lPtSY42Ras9g2/IUVx892Kl2Iaxx3rOydZiIl+HpWIjDj5bcQvYhTx4H/LQQxKPRK45iIdmPx6he3EP2Y1zwC4c/Xbh4LsHO59d2Ch3YO29DRufLcxdh9Zh5Ss66RWYCa8F+UKMZT/UIgxdF3LaYR4nbD/jSxtR8/jSZj7Hredz1HIeB00/YZ+pyJf/M4esP5HiaL90/ITjDn/ihPOfOO32CWc9PuWs/DPOesyVgfwzjLzmYe4zD5uA+TioFuGgWoyF94IP+899dO1f//AbJz09vcW/GIr8ZAj7eb6AyFz+p3/5W3YcXoqVci9m8p0YumzgtNMKKVtZyJiEbOmk4585bvcxx6z/yBGLP3LE7GOOmX/CcYt5nLJZhqHjGkzdtmDp+Tm2vvux9zuAvc8+bBQ7MffYiIlstUQaM/ZaKoU/SEYk3kvnNMfBwkVsF/KwfXiGHcQj7ACu6i9wVO3CJnAb5r4bMFKsxkC+gjOypRh4zJmRGMuXSmMsU49FmHgsxtRzKRbK5dj4rMbOby32/utxDNyCc9BOnAP34BZ8EK+wMwTGWhOeLicmx5foHG+isuRo0xwJiDFGFnoYp8A9kiTDOXgbLqFCHrZJMqK3CxKWmGuxD1mPfehG7EI3Y6/ZhlP4Thy1O3DQbMUmeAOKmMN0DJT8uJt7/fYrqtvT0Waa4h6+VZJQCMs+eeQmPMK24KXdgbd2D76afQSEHUYTeQpdtDHxcRYkJViTFGdFUowlSdEWJESak6A1I0FjQbLamnS1PRkaB1KD7UgKsCE50JbkYHtSVI6khjqRonYiMdSBuGBbYoPtiAt2Jj7EjXiVJ4lhviRHBJASFUJabChZiVrS4tTEhfsSo/UmMSoAMZrOTAojL0PHpZxYLmbFkJeuIytFS3qiWnpOAHJWspac1AjOZ0ZRkJdAWUE6VaW5NFTl09FYSk9bJV0tFdLttvpi2huL6WmvZKCnntH+ZsYHWxgfbGZqtJ2bN64yMdzGUF89fVcr6ekoZ6C3hrHBJiZH2nhwd1TaJf/4rYdvefPqHq+eTvH80SgvH4/xSgDtkxsIAH52b4hn94b55vGEVC+FDnl2gGdSXefZ7HVe3rvOq/sDvBLH2V5e3Ori6WQrD0bqmR2s5t5gNbf7SpkQmuS6FIarBABHMVgWyVBZOCNXIpioiWGmPp7phgRmmlK43Z7NnY4cbrdncbc9i/sdWcy2pnOrOZnbranc68jgwdVMHl3N5H5bGvdbknnQnMzDpiQeNSXxtCWF550ZPBde3q2JPGqK42F9FA9qw7lfHcajuggpGep5S4KkXRagPVeJfNWWyPO2OJ40ie46/MdOWQDy3WoNd6vFUS0Bsxhn368L50FdhPT6z69m82aing8/OtWJM/1WknG9nSzh7cRl3k4UzR1vXObt+GXejhbwZuiS1Dm/GczjzUAub65l8qIriYcdsdzrjGOmLZqBejVNxUoKM+1JjTVCqzmOT+AXuPhsw8pzHSaylZjKV2PptQ5rz43YK7bj7n8A77CzqJLsiczyJDbPm/TCEPIroyipT6S0MZWShlTyq+LJLNISn+srTb/8o83wCjslfabdVftxDdmNo/9mLJWrMZItlbrdU87zOSWA2W0RJ10W8qXDAr60X8iXNgv50noxRy0WctBkHvuNPmW/8SeIrvmwxcccs/2Ykw5/4qzLJxi6f8Y52TyM5aKBEd3zUswEW1y+GDOPhVh4LcRSuVCaQh42/+M3K7b+8/lf//avDuvp6f1/v0ikfp64+pPe1VyK1K/r5y//N4zdtuCi2o+N/15MFds45byGI3ZL2G85TwoBP2j+KQdM/swRk084YTafU+YLOWmygOPn5nPYYAEnzVdi7Lwdc499WCoPYe97FCe/Izj4HsDKczcGzhv50m4lR+2Wc8x+KSdclnPWQ0QsChb20rmEJuUS6VuttB/yXImB2zJOOi/mS8dFHHecCyD/0nEBZ1yFnGoxZp7LsFIuw9ZXMKHXYq/ahJMIjtBsxzlkG87BW3AN2oZ70A7kIXtQhh0iQHeKkHhTiZihTXckPMOZiExHNGlW+MSIfOadCJOSc57zMFJ8irHPp5j6fYqZ/2eYBczHRrUEB+0qaTzlrN2EW8Sc/7csSjj5bJRMQHIqZDx8/heJ1PTdXs5X+KJKOSJpwpXCyUsYt0Rswj10A+6qDchUm/EK3YGv5gsCw48SqjuFNsaQiBgTIqLNiIqyIDbKisRYW9Li7MmIcyIn3pXz8TIuxntyMV5JQbIfxWnBFKepKEwJ4UKCPzkxCrJ0HmRGepAdrSQ31p+8uGDOJ4ZJBhwXUnTkJUeSkxxBTkoE2cnh5KSEcz4jikvZcRTmJUpAm5cRTVZyuLRTzkoJJz83jtKCNKpLc6mruCABcFN1IU01lyV7zbb6Ujoay+hsusLV5goJlAUwX+usZaS/hRtDHUyNdjE91v19dXFzoou7M33M3rzG7akepsY6GBtolmpqtIOZ8avcmb7G1y/+4tcsIEMQql4/u8XLR+O8ejzON19N8e7FTT68ujNXL2/z4eUtPrwUOuRJvr4/wtPpXu6PtjM72MjtazXc7C5lurOQmx0FTLeeZ7w+g9GaFMZqU5lozGSyOUsC42slGvqLQukvUjFQHMJgiYqRK2rGK8OZrNExWRvNZF0s040J3GxJZaoxhamGFO42Z/KgLZeHnXncu5ormYfc7cziXlc2s1czmG1N5W5TIrMN8dyvj+dhXTwP6mJ4UB8ldchPmuOkcfOj+kieNkXzvDWel+0CfBN50hLP845UXvdmS8dHjXHcq41ktjpMqjuVambKgpgq8Weq2I+Z0gDulKskcH9cHyn5Zj+qi+JxvY5nLQm8GbzM+/vX/puhyIev7/F2sloC4Lc3iueAebyQtyM/gPGFOVAeyuONqMHcOXDuz+JlbzqPu1O5253MWEcc7bVqigvlpKdbERF9EmXwbuy91mIknADtPuO0w3wMnBdh7LoCE7fVmLlvxN5nD3L1KYJjrYjN9uLClQjq2nPoG61h8m43dx4NcfvREDdud9M1VEVZczoZRSoiMl3wjzPGQ3sM55C92AduwzZgEzbCHlhkKPuI688KjD31MfZYhYlsDWbuazF3W4u582pMHFZiaLeCMzbLOG27BEPHpZxzXoyB0wIMnOdh6DwPY9cFWMiWYCvXx1GxDhflRlyVm3FTbsXdZxsy/63SFM/YZTl7Tnx8439/9DdKPT29lXp6er/+SRfwX/7453kGRLf8j//y1+w8+imumq14RO7AMWQrlj6bOCdbxymnlZx00MfAaTXnnFZj4rgac8c1WDmuwdxGn3OmSzhlOJ/Dpz9l35ef8MXJ+Rw21ueUzQaMnLdi4bELO+/9OPodwzngJE7+p3DwPY6N8iBmnp9jJNuAgZs+Z4XxiHzBHEHDYx5n3Rdg4LYQA7c5u87Tzks56bSUkw5LOeW0lNPOSzjtLIggizCSLZHG25Y+G7AN2I5j8G5cVXtxDf0Cd9VeZKq9eIbuQ6Hej6fqCzxD9qJU7ydAdxxtsinRmc7E5ypIEeS1Ql/iL7iiSTXGK/IL7IPXYum/FFPfBRgqPuOs56ec9fwMQ8V8hAGJddCy77vfzSjjdkoGBWHZR+kYyOODJLWBb7/7mrb+PBIumaOM2oJ72CoUURvwjtko2W16iBSr0HW4hW5AphYuSNuQh3yOUrUfP/VRgjQn0WgNiIwwJjrSjJhwM2K1liSG25KmcyY72oPsKA+yIuVkiorwkHbMmToPcmMVZMd4kqZ1Iy1cRna0L+fjQ7iUHEFBWjSXM+Mozk2i5EIKpZfmqiw/hdL8VIovpnIpJ4Gc1CiyBXinx3D5fApVJcLruoCm6iKqSs5Tfjmb2iuXaKktoauliuvdTYwNdEo13NfKQHcj/VfF3reeod5GxgZamRrt5NaNbm5N9DJzo4upsU7GR9qYmezhwewI9+8McXu6j1uTvdyZ7uPB7QEe3Rni7lQfD+6M8t1/2S0LZvSLxzM8uj3Aw5tibD3A89kxXsyO8fzuCM9nh3l+T0h2rvPs7jWe3urhydRVHt9o58FQPbe6irlRn8nQlRgGi8MYLFJzvTBESn+6XqxmqCKKqaZUZlozmGhIYrIxkZmWZGaak5hsiGe8JprhyggGyjQMlmkYr4pkqjaaiZpIJsTtqihuVccyW5fEvYZUZptTudOczC2RbtWezGxnMnda47jVoONmTTi3KjXSDvhOxdy4+U6VRopfnK0N56EYN7cn8rUgWXWn86ornZdX03jZmS7Vi440nrel8LQ5gUf1MTyo03GvRivtlyeLfZko9JZIYMJk5HZZMPcrtTypjeJ5Qywvm+J51RzLN91ZvJ2s5cOLW38ZSPCBb78a491MNe+mrvBupoJ301d4N10mZTu/nRARmaW8nSjh7WTxXImOeqxQyn1+M1zA66ECHg1cYKInk87mWCoqgskrkBGTbopf+EEcvTdh5LKEL20/4bDVRxyx+iPH7f7MWdeFGMmE18EKjGViVbYOa+V2XIMPEppkTd6VUKra0mjvL+LaWDVDkw0MTNTRM3yFpu4LlNTGkXTem8BoE+z9dmOu2IiV7wZp/yz8/J1DhVe/MCvZho0Yfyu2Yeu5BRvZBqzc1mLhshpzUa6rMXdbhblsBeYeyzDzWIKZfAmmskWYuC3C2Hkh5xwWYOK4BBvX1Ti7b0Am24qX5w68fXbj6b0LG8dNb/fsn3/ld3//qzN6enq//4X09fPE1Z/0rkS3/Nvf/o/6Py34R846LsUtbBPOqg1SapG7+vPvCVuHcA09hEvwAVyD9uMasAcX353Yyzdi7rACA8uFHBfjnbMfsfvkH9hx4vfsPP1/2Hvuzxy1XIyhy3psvPfgGnQUT7UBfpFm+EdZ4B1hjEx9Cnv/fVgot2HitR5jr9WYeAmd9BosFWuw8FqNmecKTOXLMPFYgrFsMUbChMRlEWedFnHKbm7cdNx6ESdsl3HWSXzb3YClcgs2vtuw99+BY+AOXFQ7cdPswi3sc1w123AQJikBa6UPpHfUPrTpRiRdciOnNIgLFRHkXokkKT+IsDRnAuJN8Ik7gZt2NxZ+qzkrW8gxxz9xzPEjTrv/CTOfBZJntlv4Bsn1x1O3kfQSe0k/+cNV7cHTGxTVqQlLO4lX+Bbk2o34RG/HP24ngYm7CU7ZS3DKPlQpB1ClHkKdchR1wjFU0UdR6Y4RpjtFbLQJKTF2ZMS6kBXrRk6sBzmxcgmQBSjnxHiSG6cgL1HJxTQfLmX4khXvQZLWidRwN7KjlOTF+nIhIZBLySoK07QUZ0dRlBNDfpaOS1lR5GdHcz49kqykMDISw8hMjuCCAO6L6dSUXaS5pojWulIJkKtLL1BWmEVJfroEzHXll6THW+vK6GmrZqC7ifGBTqZGupkc7pLSokRnPHq9ha7Wcrrbyhnqa2B8qJXJ0Q4mRjsYG25j8HoTg/2NjA21cmO4ndGBFkavNzN2vZnR/iZp5P1wdvKHUysd377+iod3Rrh9o4vbY53cn+zl4dQ17k/0cG+8g7sjzdwdbmB2qI7ZoRruDVVz61oZ012FTHWIKMocbjSmMVqTwGC5joGycIauRDBaGcVEnQDe2LmRdUUMQ1UJDFUnMlidOHe7Kp7R6njGamIZr4pmrCKS4VINIyVqxsrU3CgPY7JSK9VEhZbJ6ghm6nTcborhbkscsy1x3G6MZqpay1SlhptVYdxviOJZRyLP2pN43BLPg8YYZut03KmJlEhfT1qTJNtN0R1/3ZMtZSq/EIlRHRl81Z7OV20pPGlKkEBZkLtuFPkxXuDNWIGS8XwvCZyni/yZKQpkujCQmctB3C0J5UGFhqf1UXzdk8e7Wx3w7csfz7PQWYuwDBEf+XasaI74NZI/R/4aK+atVGK0XcTbSVGXeTOez+vB87zsy+ar7mxpZD/TlspgYzzttZFUV2koKPEn7YIbulQz/HSHcQ7cgpl8Oacc5nHU5mMJnI/Z/pkTdp9xyn4+ZxzFZ38xZ52XcNZlOYZuKzGTb8QxcC+BccZkl/hT1ZZMW99FegZK6RuooLe/ko7uEsrqUiR1hjbNAf8YQ3xiThOYeBZNpgW6847E5XsQf9GT6Bw3wpJt8Is4i0fwQZyU27GVrcfSbRVmbssxc1+KuedSrIT1r+8KbHz1sRa7a7nopBdh4LCQc/aLMHdYhoPrGuTe21D678bLZy/m1ptml+r/p1pPT2+jnp7e3/ykC/gvf/zzPAO/+c3/MPiHf/oNuw4vJDT5hJQLnFvlQmGjD0XNKgob1WSXBxGR44pfnBnumi+x89uDqcdGDF1XYihG0aJzdVrECQfBzP5MOp50EJabizhht0QCzDOOAjA3Ya7YgaX3LiyVu7BQfI6V9y6svXdiqdiKpedGrLw2YqXYgJViPRZeazCTCF7LMPVYgrnXMqy89bHyXomF10pMZCs457oCQxd9DJ1XctZp7raRbCVmnmuw9F6Hre9GHAI24xS0RRpru6i2Ico5ZAtOwZtwEOQr9VYCEo+gzTIhOs+Z5AJf0ks0JBeqiM5VEppij3+sEd5Rp/CMOIq75gDOIbtwCNyMje9azL1WYuohPpQrMPNcikvwBkrqw3n95vH3F7X3dF0vISHXEUFmcwvegW/UEdQpZ4nIMiLmghnx+ebEXTIj+vw5IjPPoEk+QUjMEYIjD6HRHScy+gxx0WYkRVmTHGVHWpQDaTonsqLcJUDOifYkM1JGmtZVYmLHqmyJC7UlJdyFDJ2cjAg5qVoZyRo3MiLl5CX4cj7Jj5xEP9LjfEmJERVAeryKvDSRDJVMZXEOjVWFtDfMjaE7myskYBYALaq+soDm2mLEuFoAdkNVIfUVBbTUltLXUc/kcDcPb4/y6O4Y92YGuT1xjYnhDq62XJHG3q11hfR3VTM9dlXqjKcnuhkfaWfoehMDffUM9DUwIgB5sIXB3np62sslYthgXxMvnz36ETDEjWePbzEz1sVwbx3DXdVMXmvg1mAzs8PN3O6vZaqrlIn2AibaLjDZlstUew4znTlMtWcw2pjIQE0c16tjGKiMZrAyisEKUTqGK3SMlOsYLNEyUCS64XCGyiMYLA9noCyMa8Wh9F4OpqcwiP6SUIYrwhmrimS8KoKRci2j5Vqm62O425rI/Y5k7rclcbc5gduNcdwRo2YRvdiWysPWZO43JXKvMYF7DYnSjvlJm2A1i0rnq86544vuLOn+YwG8bak87UhD/N6jllQetqTwoDmJB42J3KuL4XZlGDOlIUwUBzBe6MO4BMoKSTolrDqFNeetkmBmr2i4X6HlYVUkT+si5yRSw1cknfR/PcnfPhmXgjEE8evtjRLejotu+PIcSIvHBDCPfz/e/mH3LI2583kzlM831y7yoC2d8do4usrCqC0IoPC8gqwsN1Iy7IlLMSM8/gzBUUdQhAkuyDYcfDdiKV+NqYs+Jk76Elva2EEfY4cVGDku55zTMoycl2EoymU5xu6rsFZuwVNznLAkW5JyfcgrjqSkKpWqxvPUtuZT03aRiuZMShuSuVwXS361jvOVkeRciSCzVCt99tOKQ0gtDiQh34vwDGuC40/hHXEAj9CduIjrhv9abH1XYumzDHOlIMeKnfIS6fNvKsBZSLpchIxqPkZuCzH1WIa5TMiu9N/v3P9J0z/902/N9PT0/vxLt/zzxNWf9K5+97tf/f6v//bX9X+a9+84KI6QVuxBbqUPhfUqyttjqWhPoKghhryKMJIKvNGk2qEIP429/14svDZj4bURC6/1c7pDwcSWrcZMtgZzDyFxEmzK9Vgo1mPmJWLN1mDovoqzbvqcdl3Oaedl0jj6jPSBWoaJ63LMZMsxky/DWL4EQ/kiyVfb2Ev/+y56HWbKzVj5bsc+aBeOIZ/jELIdu+BNWAeuQ2gEbfzXYC28un1WS8QO0XFbK9Zj570F14DP8VTtx1tzCP/wowRHfklAxFF8Ig7gFb4Xz4g9+McfR5NhTGSONVG59kTn2ktmAKokYynwwivsSxRhp/DXGREQbYJ/lDE+kQZ4hZ3ALWS/RBSz8l6NiGEcHBdmPnM/z1/ep7whAXWCGS7+X+Dqvx/fCEM0SZZE5TiQcMmFpEJXEvMdibtgS3SOJVEZpkSmGBOZaEh4nAHh0aeJiDxFZOQZoiONiI0wJ15rS5LWhbRwDzLCvciIUJKt8yYnypvcaCV5MUpyYxRkR3mSES4jReNCfLA9kb4WqL2MCJQZEOJlSlSIC0mRPqTHqbiYGUvF5RzqygtorCqWQFbqkGsuU1d+kYriLIovpZCfG09hXhIVl7OoL8+nra6Mq81V9LbXMXqtnZmxfmanh5mdHmJmrI8bQ11MjXYzPtBOT1sVnU1ldLdV0t9VK3XQkyNXmRnvYWasW9o5Twx1MD7QxvhAKzcG50p4Ww/21HFr8jrffSsMQ+Z+3n7zjNmZ60wMNjLcVc61lkK6Gy7QW59Hf0Mug1LEYw5DDZkM1acxVJ/KUH0Kg/UpXK9L5Fp1HL0V0fRc0dFdoqWnOIxrpVquXwlnuDKS0UodoxURjFVGMlapY/z7Gq2MZKQ8nOErWgbLwrheov7LGLs+hptNcdxpTeReRyr3r6bxoCudR12ZUj28ms7Djrl6JB3TuNeSwu36BG4Kr+vaGO42JvKoLZ1HbWk8aEnlieiGr2bx1dVMvurI4Gl7ulSiQ37alsqj5iTuN8Rxu1rHdLmGCQHKJYFStzyar2Tkgpyxi55MFnpzuzSQB9VhkizqVXsy33Sl801vJm8GzvN2opz393vmXMh+OMm85tuHvbybLp8bYU9dkTrnbwQ7e0SQvr4H5pHLkr75zbU8vunN4nVvFq96s3nWm8O9qxmMNcbTdSWM2ot+FGbIyEiwJzZqjpUdGn6S0OgThCWfQpt+Ck3al4QkHyUw4QC+IhEu7HM8gnfg7LsVa/lGTFxWY+i4Qtr3GjotwdB5CYYuYmq2jJN2yzhuvZwjlvqcctiEtbfwxbcjrUDFpfIYCqviKa1Lljro0tokLlfFcP6KUGcESR1zZK4zmmw7tHl2RBc4Ep1vR8R5S7TZRoSknkCp+wK3kK04B2zAwXc1dt762CiWY6VcgaViuQTQRh6LMZQtwNhzsZTFbuC2lH3n5r+Yv+pf4/X+H72denp6//CTLuC//PHP8wz89re/2vi7v/8tKzZ+hLliKw6q7Vj6rMMxcKtkFK/QHkQZfhiviMPIww8iC9snpb44BW3HKWgbLiF/IVc5BW7BKWALLoHbcBHPBQnS1XapHAPFSFl0lxuw9tmAlfd6qZs1VwgDgVUYy0UJz1tBvljGOY+FGMrmYyiCLNwXYeAmZFgrMPUSftzibzdi4zeXZuUQvFXy47YPWo9twGosfVZioRQd9RosPNdLTHBL+RasvcS3789xC9qLl3o/PuH78Y74Aq/wXcg023AXe13NNkm2pdTtwVv3BcqIL/COEL93AC/NF8hVe/BU7UWhPoBSfQyF+gQeIUek8b5T4F4cAnchCzskfQN//uovxCRhKZhfHkl4si1e6uO4+B/Cyfcgzv6HcQk8gnPQEVxDjyPXnkQReRrvqLP4RRsQFHsOVbwxYQlmRCSYE5NkRUKKA8nJTqQkOpMa60JqtBtpOnfSI91J1bqSrHYmWe0igXBa+Nxj8SH2RAdYERNgRWyANXEBNiSqHKV9c2qEJ8nhCpIjfEmLCSE7OZJLWQkUnU+l9FIGVwqyKMtPo+h8opSxnJGoJi0+BHEUwRZVRdk0V1/malMFfe31DHS3MHKtQ6rBnhYGupsZvtbGjcFOpkd7GB/oYLCnkevd9RITe+iaGHe3MT3SxbQA7uttDPc2Mdhdz1B3HcO9Yiddy2B3DYM9wvO6nZfPHvwIF+LGgztjjPTW0N96md7G8/Q25NJbl0V3dRptpbE0FoTTlK+lpUBLa6GW9sIw2grUtBeE0lkYSleRmu5iNddKwxgoFx2xGGOHMVSqlkhdw6UhDJeFSgA8UqnjRm08k2LP3JDIdEMSM01JEsP6VksKN6W9cyIzzfHMtCRwuzWZux1pEigJctfdznTudWbwoCuLRz3ZPOnJ4WlvLs/78nh1/RLfDBXysv8iT7tzpO7yXmsajzszeXI1i4ftAqTTedKRydPOzDlgbkvlcUsy9xviuVsbzZ26aO7URjFTFc5UuYbp8lCmy0Pm9MsVIdyrVCOIXiKg4uuOlO8BOYc3/XOkLQGw72438eH5f18VCEtRKVrydi3v7wqNdT3vZxt5f7+F9w9aeX//+xLxk3fqJPB+e6OIV0Oy16QmAAAgAElEQVQXeHotmwfd6dxsTWSoJoLWQn9K093JirUlLsIcXbgJYeEGhISfIkh3gsDYEwQmniAo+ThBqccJTj1CQOIBfGP3otTtwkOzHcfAjVh4ruKMwxKOWy3kiNkiDhovYJ/hAvaemcee05+x5/Sn7D71J3ae+IgdJz9ml+E8Dlvpc85jO7b+B6TPnEJnQHCyJWEZguntSGSWE7psZ6JzXIjNdSP+goz4izJizwvPAwciM6wISzYmRITfRB7BR7sfeeguXIO2Y+e7CQsvwShfJU3yzjot4YzjQk45LuSE/QKhg/6waf//6fnnf/2Ng56e3sJfJFI/T1z9ye/qt3/zK+9//t9/w9bDH3NOtowTDp9w0OIP7DP9Dw6Y/Z5j1h9JjEMbpb7kJ+0TeRB1sjG6TAfEjiYozhqvMENJEmXsvonTTvqcEgQth0Uct1vEUZuFHLFcyDHrhZywW4yh6wosFGux8xUmAFuQh32OBIJRu/EW+ckRn6PQbkeu3ox7yFpcQ1biHrocj7DleIYvR65djjxMH1noKul5F/Ft1WcTNspNWHhvwkSxkXPy9Ri4r+G080pOOCznuN0Sjtstlv494sNx0mE+p5zmYeAqJA1LsfTRl1x57IPW4qRah4t6vVTOqrU4Bq3BMXANjgFrcQpcj6P/Bux81kre3hbyVRi5LJcYmicsl3LSciWnrNfh5neatu7qH4FD2ILWtuYQnelCQNQZ/CPPoIo1xy/CCPeQL7H3PSAR4E47buCY7WrOOK7H1ENoL/fgGnIY74gzqOKt0KV5kJLnT3Z+CFnnfUlNkxEXY0tEqAnhQecI8zVA5XUajfIc8Sp70iJlZMUqSY/yJEHjTJzKQZJLpWpdSNU6ExNoTbi3GRG+VsSEuJAW5UNqtD+xGi8SwpVkxQaSmxhMbqKK3KRQzqdoKciKpTgvSSKKFZ9Pobwwk/rySxLr+mpzOW0NpXQ0lUv75Z72GrrbquhqraKnvZrBngbGrrcyPiiqhbGBJm4MtiBY1hNDbVIn3NdeSXdrGd0tQlZVxvUu4dxVw3BfLcN94jWquDXRx4d3wrJy7uf1yyeM9TfQ3XCR1vIUGotiabgcTceVBLorE+koiaLxYihVmb5UZfhQn+NHQ4439VleNGR50ZSjpP2iPz2XQ+gv1TBQrqVfdL9lYQxXRTJarWOkKpKhykhpvD1cFcd4XRLTzekSo1pEMt5uz+RmWzrTLSlMNYnUKPF80hw5rCWZ2+1p3OvO5n5PDve7cyQGtmBhPxDg253DfcHK7sjkwdVsHnfn8qzvAi+vC6LUZV7/F6B+2JHBo85MHouuuTubZ93ZfNWVyeP2FGYbYpmq1DIsGOJFwQyXqBgrDeVGqYrxokBGC3wZK/RlsjiQu4Ls1Rgr6ZS/6RPs6YK5MfRkmWRoIhKrJI/uH04y7/nwUnhzt/D+XuMcIM828P5OPe9u1fHuVj3v7wgzFHGs4/0dAd41vL9Tzfvb1by7WcHr8RIeX7vAdHMq18t1tBQEU5mjpCBdRk6yM8micxY54km2RCRbExJnIu2AA+MNCRWTo2xzonMtiMw1IyzjHAGJJ/DQfoGNzyaM3PUlWdNeg4/Yeuzf2XL439ly6PdsO/SfbD/8R3Ye/YQvTi/imNkqTtuux8BpE4aumznntgkTueCi7JLY2kHiS3CKFTFZziTnyUm7oCD1vJK0C0pSL3qRlCtsOe0ITzAmWHcSP+1hFKH7cAv8HAe/bVgpN0oe/CaytRi5rOacYHI76mPguJzTDss4ZLzg9bJN/5bzP3/9Vwf19PT+5SdfwH95gZ/fGRBj7N/93W+mFyz7PQa2GzH32MxxqyUcNF3AXqN57Db8lL1Gn3Hcegnm8g14hh1Fk2otOWGlFgaSnB9AXJ432lRnFNqzWCt2YeS6nrOO+tKu95TjUo5az+eA+SccMPuEY9bzMHBehrl8NbbKdbgFbkWp2Y1/xD4CdfsJitpPUPReAqJ24qvbjE/kOnwiV+MTtRLfaH18Y/Txi11NQOw6ghO2okrajTrpAKrEI/hEH8YldD9mym2ccV3DCQd9vrRf+v2Xg/kctfmMozafcsz2U45Z/0kq4VZ2WjAoZcsxVazEzFsfSz99bERYR8gqXNQiQ3ktrhrBll6Pc/AG7HzXYqkQI/u5D9wJq8UcM5nPUeN5HDn3KafMFqFLcGL2/l8kUoPj7ejSXHD22YuF81pcPHei9D+Ep98B3Hz2Yu+1E3O3jZyxW8UZO30MBeNdtgE77204+X+Oe8g+fKNOoU6xJCrbmcQ8T1LP+5Ce5UdKspJ4nTsRIfZEBFpL4Q9xodYkaqyJC7UhRmWLLtiWKJUDCWHOJGmdSVQ7kBRqT4rGkXRhRqKTSUERKeFy4kJc0QU6Eq9yJlmMvUOcSFC7kxUTQF6imtyEMM6n6ijKS6aqKJemqkJaaotoqSuiraGEjqYrkhxKALGQQ/V31dHXWUNfZ7VUAz11jPQ3MXStnoHeWsYGm5kZ62RisJWRvgYGumro6xCSKsHsLqa3vZT+q1cY6K5gqKeS8ev1PHv8X+034eHtEfpbi2gpTaT6fBhlGYFUZAXRmK+hpSCMposqarP9uJIqpzTJnbIkdypTPajLUtJyIZCOfBWdP3TO33fPPUUa+ssjGa6JZbQuntH6BG40JEus7OnmDAmUJxpTvn8shenmFKaaU5huSeVmW5pUM60p3GxL5VZb2ly0Y2cWs13ZEijf6czkTkfm9wCdxd3OTGavZkkg/eTaBb7qv8Qj8butadxrTZUkVLcbE7lZn8CdpkRuNyZwqy6eW/Vx3GmIk/bKYtf8ojub5905ktxqojKCG+UaJsvVzFRouFmu5uaVubpVoeVBfSzP2wSrW9hpCg1yKe9uVUs5zx9eTf+3pC7h1/3hWT/fPm7n2yedfPv4qlTvH3Tw/l4r7++18H62ifcSWAugrpLAWADyu9vVcx30rTpej1cw23WeoZp4rpaG0XQ5hNrCIK7kB5B/wZf0DDmRCY6oom0IirJBnWAvOfAlX1SSUxLAhYpgLtUEc7E2kNxKJYkFjoRnCqe8Y3hF7JYcv6y8BZdF7JpXYi7fhIOvUGQcR6E5g0+4Ad5hhig0hnhpDJCHnsA95CAugbtw8NuCnfdG7L234BawFy/VcbzVp/DWnEGpPomXNCE7glJ9CG/NQZRh+1CIKZp6NzLV5ziJLHqfudWeYIwby9ZjLNuAsacwSlnNSccl7Dj+8di//uG3nnp6evp6enr/788PVX55Rz/5DIhu+R//+W/YeWghTgG7EONpS8Vazrmv4IT9Ig6afcaesx+z88R/suPER+w5+ycOWSzklPMqDNzEvniN9D+ciF8zk+tjIV+BlecKrL2WY+29XGIrWiiXYu61FEGGEJaaxm7LMHZbjqmbPuayNVjL12Er34Cd53ps5Guw8VqFrY8+9r76OPkvxzVoOTKVPl5hq/CNXEdg7BbUybuJyj5GwkUDEvNNSMwXpvE2RGRbEphgiFx7DAf/3ZjKNnHGYaVEPPvSZjFfWi+QXHwEq1NoI03kSyVfXeECZOW7AisByv4rpWQr0Tm7ajbirt2Mu3aLdHQO3YCt/yosFMsxcVvGOYclGNouwshuMRaOy7B0XIanzy4am3P49sMbqdd49/41Te1FRCe54+F7BEfZTpxlO7F13oSpjT6GlksxsFjCGfMlnLVcjrHdaixcN2Cv2IST3yZpf+UkpgJiRRCyC6+wIwToDNHG2xCXLCM51ZvEOC9iwt3QqR3RhdgSFWJFjMqaBI2DBMRJIrlJ7URUkDWR/uZE+Jqg9jIgVH4WnY85cSJu0dcWnY8dMf5OxAe5Ei8ykcM9SdEpSYkUftpKUnU+ZMYFU5AZTUVBOjVFOdSXXaSlupjOxnJ626vp7aihq1UYgdTQ391Af1c9vZ210n3x2LWuevp7Gui7WsdATyPSXnmsh4nBTm4MdEjEMMHYFgB+vaeG691iZ11Kb0sxw1evcPdGNx/einSnuZ9vXn7FcGcl7WXJNOeHU5sdQHmaktIkGaWJblSkyakR3fH5AOovBFKbG0B9biAt50Nov6ii/WIonflqugvD6C0Ko79EjLF1jFVFS2zs0XKxW46U7t+oi2OyIYGppsTvu+EUbrbOAa84ig55Qsim6uKYaEhgsjFBOooO+mZrOkKr/KAnV+qYZ69mSl30zdZkbrUJA5JU7namMnt1ru51pUns5YedmTzsEJXBg/Z0ZltSudUgADqemdo4JgUD/EoEI8Uahi+rGSlSM1asYqwomPGiICZKgpkoDmKiKJAp4aNdoeZeXRSC0f2qJ5s3A/mSm9i7qXKpsxUj6Q/PBuDbpz+cYun43fu7fHh5nQ8vrvHh1QAfXomM6EE+vOjnw7Nevn3axbePhN93y1wXfbOad9MVkqTq7WQZb8ZLeD5UwP3eXCZakxmoj6WrJorW6kjqK8IpKVKRle2NLt6ZwHAbAiOFF74LmkQZunThwR9MTrGWi+WRc3vgwiCJWZ1x2Z/0ywpSCp2IvWhEWNZhglJ34ZOwBa/YjXhGb8IreiuK6M/xjv4C76gDKHQH8Yo4hGf4fjzC9iBTb8dDs00qedh2PDU78QjdhSxkL7LgfbgF7cMlYC923tux8NiAhVz4ec+Vpdd6LOXrsPBYh4X7OkydV3PGZjnHLZZxxHwZX9rqc9ZlFWdcVnDIfP6bVdv/veQ3/+t/ntTT0/v3X0hfPxnCfn4vIJG+fvfr+nlL/gNz9534RB9FEbkfr4h9eIXvx0t7ALn6MHLVMWRBx3H0PYiJ+w4OWeqzw+BTNp/8iI0n/8CWU7/nc4M/sN/0P/nS5s8YuczHUr4IO+9lOPmvxC1oLW7BG3AN2oiTvzAH2ICN2BF7rcPUY7W0ixEMapHnbCT2MlI+s3h8NWbyVVh6rcRakCq89bH1WSGBtp3vSuz8V2EfuAankI2Snaendg8emt24hnwuuXs5+G/HTliAKrdgrdiMldcmie1trdiErfdmyaJTMh0JFdGOm3FWbcRJ/DuFR3folrn7Ieul0baTajX2QSuwDVyGtf8SrP2XS+NvYVh/xnE+J20+4ZTVnzlr9RlhMcZM3+r/8aL26PFNKqtTiU90JTjoLH6+X+LjfQRnl+1YWK3irPEizhgt5pzlKiwcNmEngNt7N26Bu3AP2YGb5Bu+DVf1LlzVe3BV78Ml5IDEOA2ONUOX6kRilhfpOb5kiA46SUGMzoVwlQ2hviaolAYEe57Gz+04vm7HpFF3ZIAJCRobEjV2RAVYovU2ReNphFZhis5PgLfdXNeslpGq8yYrPpC85FAuCmlVTizVlzNoKLtAU0U+DVcuUVNynprSPIkY1tFYwrXvu+Pejir6RHVWc72rdk67fL1FInOJkfbotSZGrjUxMSiIYj3cHO/l5ngP02Nd3Bhqm+uqe6oZ6qlitKeKib5ans6O/3huxY27k/20V6RTe15NdZafNK6uy/Gn5UIwzReCqM3xpy43kIYLKhouhEoj7baCMK5e1tJeoKHtkorO/FC6CjX0FIsRdgRDlVGM1cZyoz5eAtepxkTpKIBWgK54brwulrG6WEZrYhgVEqm6OOn3fzj+AMrjdQncqE+UaqIhmcnGH0qMupO/L6GJFiAeL5UAfqGPvtkqOvE5jbTQSU83xM85hYm/q49noiqKkbJwrl8OpediED0XAui74Ef/eR+u5ym4nuvJ9Vw5gxe8GM5XMlbkx6TwxK6L5FFnMi8HBcmrVALkbx828u1XHXx4dZ3v3on4TJGg9cPPN/DtDN+9Gea7NyN8926c796P8+HrIb592iuFbLy/28IP9e5WA++ma3kzUc2bySrezFTz9WQ5X41eZrYvj8mOVAZbEulpiqOjMZ7Wxjjqa2MoLdNKK5r4dBmRSU6o4+1QxYuRtiUhCVZoU62IyrEmOseCqBxzorIFcdKamDwbYvIsCM8yICTlKL5xX+AZuQt3zS6cQz7Hzn+HZAksNMuW3mslS19L79VYeQvVxlqsvMUkbCtOgTuRhe5FEbEP3+j9+EXvx1e3D+/IL5CH7ZYUHbYBG7ASKgzlaswUc9co0WCYuazG1GEVxjarOGelj4Eou5UYu6zC2GUFZ+0Xs/fkn+78cf7/CtHT01uvp6f31z8/VPnlHf3kM/DXv/uNwT/+y+/YvGc+TgG78Yz4Ao+wndK+N1DIhjIN0GVbEiGCHlIdCEu2wz/KBCf/w5xz3sJhs2XsOzePLww/Ye/ZP7LP4CMOmXzMccs/c8rmM87azZdE9uYuy7CVr8FRsRFn5Sacfbbg6LMZWxF4rliLqWIVRl4rpCxnI89VmMjXYuKxHiPZOsnYxEjclotx0AZMvDZgqliPidjtSiYDQte8VJIhmElShKWYCZMR9yVYeCzD2ksfG+Uq7LzX4OC7XvLMdvTbgign4cAj/LP9N2Lnsx5r5TqsFGulo73YfwdtwTVkKzL1VuRh2/DUbsUzfAueEVvw0m3HU7cdj4itOIeul5JjhJe4eK3imigpalJc0r7jPZ1dV4hJcEWmOIS141ZsXXZg47wVc4d1GIuO2Wo5JvZrsHHfhpNiD25++/AI3Is8ZBdy1TbJBcw1ZBMuqk24qcWXiK24hW2TdNhCj+0ZsR+/qBOoYo0Ij7VCF+OATudAmMoSlf85ApWnCfI+i8bfhIggK6JDbIkNdSRO6qBt0fqYo/I0IkRuiEZpQmSANbGhziRoPUiOUJAR48f55FAuZ0dRnp9EVWEaVYUZVF/OoupyDhUF2d+PtPPpbCyhr62c/vaKuWNHBQNXq+jvqJTu97ZeoaeljK6mEnqaSxnsqmL8Wj3T1xu5OdjMnZFWbg03MzVQz8S1am70VjDec4Ub3aXc6LzM3cEG3r38C6Huu/evmRlqpKc6heYCtQTCVZk+VKYrparO9KUuN5jGixpaCyPpLInhamkM7UXhtBaqac5X0ZwfQluBao4EdjmUq0VqekrCGBAs7NoYhqujGK7SMVYbI3W/My0piBLgKUBYPDdcFSX9rgBsCaxrY6TnppqSmWkRY+8MppsymGpKZ6IhldGaeAbKdfRc1tBVGEpPkZrBikgJ4EeqoxmqiGRQ/BuKNQyVzJUwO+kvVHHtUhDXLgVLx74LgfTk+XM1y5v2dC86MpV0ZHvTka2kK9eHaxf9GcgPZLggiPFiFdPlWu7UxfKwNZVn3Xm8Hiji7XgF72bqeH+3iW8fdfLhxTB8+4PEbw6Yv3v/gA/PB/jw7BofXgzy4evRuRKj7UddvL/f9v04W3TMnf9XtUkj7q9nqng0XMBUVwaDzXH0NEfT3hhJY52WmmoVV64EUFSi5MJld9LybIlKPUdw7BEU4btxV2/HKWQTDkFicrRe+pw5B2xHptqHp0bIqo7hqT4irXzsfXdKMs7TDqs5ZrWSIxarOWKxjiMWGzhiuYYjVvoctVnGMVHWKzhuvZqTNps5a78TE9c9WMp34+C3SyK1ii/pwuxHZLI7h67FNngVloH6mPkvx9R3GSbK5Zh4iunfckwdl2Nqp4+5nT6W9iuxdNLHymUFlm7LMHNexEmzT99t/PzfGv7uH35loqen9/Ev3fJPhrCf3wsIQ5Hf/PZX9f/xx7/noOEi7Hw3YOu7Bnv/tVLH6BE2FyghU+/CJXAnjn7bsfcR6Uw7cfLdjaPPHhy858pW8TmW8q2YuG7AwGElJ+2Wcsx2kVQn7JdwznkVVh4bcPDagov3NlyUW3FUbMLGc63EqBSWm+ZKfWmkLNxzTITFppMwD5gzChEEDUvlFzgGHUemOYNn2Bk8NSfxDD2Op+ow8pB9yERKle9GrL1WYi5i19wXYeGxGGuvpZKEQUgZnPzW4egriGJC2rBRKjvvDVh7rcNcdOpOKzCwFz7f+ljI1mOr2IKj7w7cgvbgGbofT/U+ZCqxS9qOXLMFT+0WvCK24qXbiqduK+7hm4k6b8H4rc4f2gy+en6P0qoEgiKNsPTYyjmXtRi5b8DYfa2ktTRyW4mx20pM3ddIIzJrL3FeNmDpsQpLj+XYeC7DRrEEW8Vi7H2X4Ri4HIfgZdiHLMMhdDn2qhXYBepLxDR58A78VUfQaIzQhVsRG25Pos6ZlGh3MuI8yYxTkBYlJ0krI17tRnSQI2qlJaFeZmh9LIgJtiM53I1UnSdpUUrSo33Ijg+kMCOc8gsJVBUkU1WYSmVhGpUFGVQVZtJYdoGr9aX0NJfT3VxGZ+NlOhsKudZ5haGeGvo7y+ltKeVaWxndTcW01VyUqqvxMn0tpVxvK2e4s4KJ7mpuDzZwb7SZ20N1TPeXM9VXytjVS/TVp9EjjDyaMrk33vp9pvLcKX7xcIrR9v+fvfcMriLPsn317sz01PSdeWPu7WlfXV228d6DEAiQEBJC3nvvz5F0rMyR9957b5H3SMghJCGsMMJ7CspSBQVVFP73IlNleubj9IcXUVEZsSJTRydB5x8nc+fee621OzjeX8DhlmRG62MYro1itD6WsfpY8XikNprxxgQmmpKYaE5isjVVzJSPdmZyrCuLY11C9pzGTHsKRztSONmTzqneDGb70jnTn8m5wWzmBNLXoED+EoJ0PpdHBPJXkahxFljcZwQmd/+8tllgbF8+mCe6gF0ZzuPqqBDQ5zNhobx9baKMq4fKuTxWxvmDhZwdyBaZ4Kd70kSplcACv9ifxaX+XC715XKxJ4dzHRmcaUvlbFvKPFqTOd2cwIn6aI5UhTNRIudQiZyJMgWHyhUcqlQwXRfOyaZozrTEcb49gSs9qdwayuWTwxU8PCEMnhCcukZ4fnuCF/cOiz3il1/O8vrbW6IX9g9fYoQ55J/Bq5vw8gavn9/g9dOrvHp8gVcPZ3n54Dgvvzz6Xd95Rixnv/xsep6h/fFhXnw4yuNrfdw73cilqXJOjuRxdCSPI+MFjI1k0TeQSF2LjJJaX8oa/KhsDqBmfwCltZ6k5lsTErNT9Kk2dPsLes7vs9dzCTaSdXiodJEIhkUxJqhjzVDHmaOMMUESaYCnXAfbwDVYBqzEKmgtNlLBuVAXJ9kO3JQC2WsrXuECe1oP33Aj/MLN8I+wIkBAuCn+YXvwUeviKSQHCmGy1UocZctwki/BWbEYF+ViXJWL8VAsxle5HGnEOiLitpGSYURRkTXVVQ401jvS1uYmorLGjug4gwd6exYUaGlp7dLS0vqPn15U+fkT/c0r8MY//73Ov/3HP7Fmy1t4q7RRpeuhSNuFMm0HCqGMK4jn47cSEL0Z7/CN87T/4LU4CwYh8m34R+5BKkh94i2RJ1ojT7QSfw6INMI3UjAN0Z9HuB7eqh14K3XxUwu6wx34h+sSqNkhlpn9o3Tx1WzFO2Iznur1eMhX4SpoEYOFALke59AtuMq24abYiYtsB66hO/CU6+EfZohUY0xo9D5CY0wJiTZGEqVPQKRgRLCBQM1GQhO3oUrVJyxtr/gkLUvYR2icMaHxxsiTBBN7oSS8l5AkI4Ji9fEJ34aL0DsPXoe7fJO4Ln7hOgRqhBvATnHvH74VH0GrLfTJ5Stwky0XXcjcVcsJit1EU38CD/7K7P/UuYMUVAWLRBL/sG0iySQm15n4gnnE5tqjybIhPNUUWawBgeHb8VVo4xmyEeeAldgLQ0F8/4KD/wc4SxbgKluEu3oJ3lFL8Y1bRmDScoJTV6JIXU94ug6xmYakZNmSk+tDQW4wBZmh5KeFUpgaQkGylPyEQHJi/MiO8iY31o+ipCBKUoMpzZBRmimjPEdJbaGG/RWJdNZn0tOYQ3dDDq3VadQXx1NXFEdTWTJ9TQUc6qtlarCJyQMNjPVUMdpTyeEDdcyMNHNyoo1TE+2cPNTG7OEOzk51cXKshSMH6pjqr2FmsJ7TY62cn+zm/OFu5ia6mJvo4PKRLm6d6uPq0XZODZdzdKCA4wcKODFYyIXJRr769EdCnVBq/fDiJLPC+3oymO5IYrojmZnOVGa6UphqjROZ11P7YznanshMazzT+2OZao77r2gSXosVWdkCM/toWzzHOxI52ZXE0bY4jrTEcqIzmdN9QoDO59JoCdcnBJJXFTcmKrh4sFDMeCebYhmvjWSqMZqTHUlcOJAjlrsvjOQzJ6KAudFiLo6Xc2WiiquHq7k2WcM14fhQOZcEc5PeLM50p3HpgOCzXSji6mAuF3ozON2exPGmWI41RnG8UcOxhkiO1UdwtC6MmVo1U9UKJipljJYHM1ou5VBFMFM1co41qDndGsXl3mTuCB7Yx2r45nw7z28M8vzD8Xn50ydTvPziOK++uQo8+DEmi0cCV0KQpgkTvO7Byzu8fnaD18+u8frpZV59c45Xj8/M95rFfvPsfL/5/nyQfvHpBF/dGODDs82cny7j2HAOhwczGB5Ipa83mfauJJo7EmntTqV7IJuevkzaO5KorVeRU+hJqEYfe78VmLgvxMh1AUauizDzWomzdAsesu14huiI8ArVwSNEG9eQTThJ14kMaCfZWtyU6/FSbcRHvVkcjOEfsZWAyO0EaXYhjd4j3jtCY8xQxFmhSrAlIsWJqHRXotKciUx2QJ1giSJ6L6ERuwgO0yE0bBPKiE1EaDYRFbWZ+BhtUuN1yU3dTXH2PioLzakqtaSyzJLSUlOyco0Ii9n20sZh6fHfvvn/BmlpaS35WSL1N4ewn+Y/8Mt//kXU7/74bxjbrUSRvAdVmhEqgV2YuQ9lmqDF3YWPZiuuqg04ydeJ06UcpOtxDN6Eh1yXgHBDQmMsUcXbERbvRFicM6oYR2QaK4LCDQkI0yMwfAf+qm34hG7BW2AZSzfgE7wRf7k2ErUuIRphTvJelAmmKJMskCdYEBJnRlDMXnw1evhE6eKp0cEtbDOO8vVYS9Zg6b8Ga//NOATtxD3UGG+lOT5qc9xlBjgGaeMQuB7n4PUIAVWeaEhkhiWx2Q4iNOnWqISAnGAkQmBiqn7eiMIAACAASURBVFKtUWfYoc60JyzLAXWWPYo0G2QpFshSTAlN3Evgd4QPL2FgerBAzlqBo89irD0+wNrzA2z9FmIftARl8l6Onu774ab28NHHNHelEhqzB2vvJVh5L8NLsYOQmH1EptqSlOdKVqkPeeV+FFT4UlDmQWaeHdEJe5Cpt+AnWYWL5wIs7f+Mme1bmNq9zT77tzB1ehtr7/dwDV1EQNQKMShHZOsQU6BHfPFekossSStwITPXl5wcKXnZoRRkyynIkFOQKqcgeR4C+7osQ02tYEBSEk1TWTRttYn07c+gvyWT7sY0WqsTaCiLpq4kivrSaJorEuisS2OwrZCRzhKGOooZbCtgqC2Pkc58DvUUMd5dyGhHPiNtuQy3CshhtC2Pia4ipntLmOkv48RgJaeH6zgz0sCZYcH0o5nLky1cmGjk7GglJweLONafz8mBAk4dKOTUgSJunjzAq2+/+mF9v/7yQy7OdHD8QCFHe9I53pfJyYFcTvRnM92ZwnC9hgPVaobrIhipi+RgTRjDNWGM1IUz3qDhcFM00y1xzLQJQTuJo+3JHO9M41RPJrN92Zzuy+FMfw6n+/M4PZDPmaEi5kZKODdcwtmhQs4Ir/flfPe+bM4O5IjladEpbCifiyNFXBgp5txQIacP5HGqN5PjHckcbYnneFsip9qTme1IZbYzjdPfkc7O9uVxtieHUx1pHG9JZEZ4YGiMZroxiqn6CCZrwzlco2aiSslYuYzx8lAmq5UcqQvjWJOGE62xzHYmcrY7mfO9qVzqT+PaUCZ3xgv57GgVj8+28Oxa/3cBWSgxH+HFR9PzLOxH5+H1Jwh+4/91+wYQStvfQ2glfAyvPuT185vzAfrF9fmM+rWQVV/j1TdzPPt8hvvXB7lxqpnTh0qY6EujrzmK5moFZWVBZOd5kZjhTGSKregFkF7sTWldMOV1wZRW+ZMjuOylmOOr3CrKEa39lmLps1iEmeci9rktmG+jOS9gr9NCjJ2F15Zg4rYEY9eFmLgtwtJnCfYBgjXmSrEi5h6yGXeZjjj5zlsl8E50kMRtIzhRGAkr8Er0RQ+CyBw70TRIk26POsGc8AQTNEnGaJIMiUrYTVSCHpGxO1BrthGi3IKfdD3uvqtw8lyGo8dSHL2W4eK/EjfJWuz8V2Fkv+DJso2/rf3FL/5un5aW1m9+mlHl50/1N63AG2+88db//tc3bi5a+Vsc/NcRFLOdwGjBXm6HaASiSN2NMs0QZeo+FMkmyBL2IonejfBF9pRp4xm6BR/5NgJUekjDjQiJNCEkwhRp2D4k4YL0xwCJRg9JpK7ItA5UbyIobCNBYesJUK3FTylgPQFhm5FohHLxbpSJ5sTmeJBRLiWvXk7RfgVFrQrSqn3EAOmm3I6V73psfDfhLNmJp8wQX5UZAZHW+EVa4abYg03AFva5L2evy2IsvYSLcRNCmV2QKMlj9xCWZEhkqgHqRF1kMZuRRKwnQL0e//AtYvYemrQPZbotYVlOROW4E5frSWqRH1klASRluhCm2YckZBuePmtx9liJo9cqPII24afcjiJ+H03dGXzx8KMf7mmzc2Mk53nh4LcKXbPfsX3f79Ez/zOGNu+LE7icfDfgJ9MV5VLhicaEJxsSlrgLRZw2IYLlqGo5LoELsPF4Dwuhf+/4LmYO72Hp9AH2novwDF6JNHIDqkRtItK3E52tR1yuIfG5+0jIMSM+04LEdGuS0hxITXUjM9WX3DQphekKSjOEkrYw6lFNSaaKqgINTRXxtFQlsr8yntoiDZV5YfNl7fxIagujaa1MYaClgMG2YgZaCulrzhf3470VHB6ooH9/Ji2VsTQUa2gui6G3MYPRzkIm+8uZHqhkqq+cIwMVHBus4sRwDbOj9ZyfbObiVAtzE/WcGatidqSc2ZEyZkdKOTFUxNH+PI725TI7UsXnt8/+sLbCwYN7F8W+86mhUo735XP6YClnh8uZHSzhWG++aCRyuDWdKQFtaUy1pzHZkcrhzhQmu9KY6srgSE8WR3pymOnN42hvAcf6CpnpKWC6K5/p7nxmeoSgXyDqoI905YjGJIfb0jncmsZkm1D+zuBEdw6zvbmc7s/l7IE8zg8VcGmkmMujJWI2fW4gh7M9GZzuSObE/lgx0xWy3GN1YZyoj+RUcyxn2wXdcRoXerO50J/H+YECzvbmcqorixPtaRxrSWKmKZ4jDbEcaYjmWFMcp1oSOLU/npNNMRxvjOF4UxyzHcmc7xNGThZye7yUuxPlotzq/rEGHp1pF/vJz64P8/zGOM/vTPHio2O8/EJgWV/6jvD16L+s8TwB7AtACNgChKAs2KD+tyAtBOrXd3j97VVePTrP8y9P8/yLk3x7f4bPbg1x/mQdw70pVJUHk5DoQIjaCO8QXdxDtfFUbhFNgPwFwyCxtSSwnLXFipW7fCuuMh1cZdqiDNNDuUWUbfpH7iQoWtAN7yU4bh9SYbRs9D6CIo2RaPYRHGVKiIh9hEQZzkNjjCTSmMAwI7wV+riGbBFlnc6yVbgoVyA4dHlGrsInZj3+sZsJihOsenciSzJAnWZIeLqRCFXyHkLidokP/8IwHxu/1exzW4aR8xIMHBezx2kRhq6LMfVZjrn/Cky8l73WMXv/wq/e/BeVlpbWGi0trV/8TTfwn0/+aa6AkC3/3//8JdsN38VLvQ5vwWlLmIwSsRLfmLUI7lkR2XtJL3MjvzaQwgYpeTVBpBZ7okwwwVO2FaeAtdiLhhqrcPRfh0vQZtyl2ngE6+AZqoO3Yit+aqFPu4WgqI0ERQvm7qvxjVyBR9hS3NRLxYvAWyMMK9+Ab+RWAjX6yGJNCUu2IzLVibBkB7G0FBptJvZ8POQ7cA3RwSVYB+fg7bjK9fAKN8Yn0gTvCGO8wvbgodqFm0IX11AdnKWbxQza1m8VNj7LsPVbikPgUlwkS3GTLME1cBFO/guw8fkAS6/3Mff6ACu/JdhLVuMq24JfuPDAYENspgfJ+QGk5geSnO1FZIIdEvVe/GQG+MsNCY4wITnXj2OzgqHIK/HG9vibB+zvzBd/v934T6za/h+s1f01G/XeZLvRuxhaLMbcYQ2OnpvxCNTBJ2QbPvIteCnW4akUyGzL8VQvxUO1BHflUtxkS3GWLMUpYBmeIeuRhG9HGbubCOEJPsWI6FRDNMn6RCTtJDxZmEi1i/Dk3UQmGRGTYEZSggOZSZ7kJgWQlyghKyaQNI0fqVG+pMf5U5ARSlG2ksJMFSU5EVQVxlCeH0Xpd8eN5Unsr0qlpVrIotNor02nqyGbttpUGoojqStU0VQaTk9DEuPdRUwJgbi/iomeSsa7Kpjsq2ZmqJ4To/XMHmoQcXpcCMbzODtez4+o4/RYDaeGKzg5XMGZ8WpunjvIi2+EADG/vX7+mM+uz3Blpo0zw2WcGS5nbqyGubE65sbqRZwbq+P0cC2nh2sQjs8dquPc4Rrmpuq4eKSZy0fbuHKsi2sn+rh6rJ8Lk92cGWsTS+ynx1oQcGywjvHOYsY6i5juq2C6r5ypnmKO9JVwTMj8B8o5OVDO8d5ijvcUcaKviNkDpcwNV3JxtJKLw+VcGC7n0kgll8equDZezY2JWm5N1nNnukHErck6bh0WXqvj1lQ916cauTLZxKVD9ZwbqeJUfzHHu/OYac/kSGsa0/tTmGxKZKopkWOtKZzs+E7q1S1k7AJLvEwkmd2equPuTCOfnGzli7M9PLp8kKe3Bb3xSV7en+PVw8u8+voar5/d/i5TFgZVCP3kv96E7FkI1oJ0Slh/Yf/wu9eE1wUIVYzv8YBX33zIN59f5MFHZ/j87nE+ujPN1UtDTE3V09ufT0NLKhUNcZQ3xFDWGEVZczTlLTEiyvZHU7Y/lvKWRKrb06nvzKWpu1BEc08RLX3FtA2U0XWwmt6ROvrGGugbqRcxMNrI4FgzQ4daGJpoZWismYNjDYyO1zI8VsnAwTJ6Bopo786juT2T+pZUqpsSqGyKpao1htrOGBr74mgZTKDtYCJdo6n0jmczMFHAgcOlHJiooH+8ku7hCtoPlCL8PXXtOVQ2pVFWn0R5g4AUKprSqGrNoLYzi5YDhTT15D2raszqSU5OdoqLS/sT8P/8NCPLz5/qf7wCv/nNb9767e9/Naa9fRUJWf5Ut2kobVJS1BRKQVMwhc1SSttk1PZqaB9OZWCqmOFjNYweb2BouobOgwXUdSZRXB9GQY2S4jo1pfURlNRpKK6JprhKQBQl1VGUN0RRtT+G2vYY6rpiqOuOpqYriqrOSKq7Y6jvT6DxQDJNA6nU96ZS25FCTVsaNa0Z1LRkUteaTVNXLvt7c2nuy6KpN5OGnnTqezJo6M1m/wHBeL6U9iEBJXQOl9EzWsnARB1Dkw0cnKznwEQtPcPltPYX0tCRTX17Nk2deTR3FbC/q4jmznwaO3No6MikoTOT5t5sWvtzaBvIpXOwgO6DJRwYq2L0cCOHpto5fKSbiakexid7GJ/qZfLoIKfOTXDn3mVevX7+wx3twVf3OTo7TveBBupbiqlrKaaxrZyGljIaW8tp6aikq7+OwdFmRg+3Mja5n/HpRsam6xmdrmZkupKR6SrGZmoZm6lnfKaR8ZkmJo61MH2yi2On+zgpTMuZG2L2vIADnDzXz6m5fmbP93Pm4hBnLw1z7uIo5y8e4uKFSS5fmOHKhaNcOX+cy+ePcfn8Ca5cOMmViwJOce3yWW5eOc+taxe4df0it29c5O7ty3z60Q0+++gGH925wr07l/now6vi/u4t4feX+OjDy3xy7yqff3KDLz+7w8Mv7vHoy4959MXHPLx/j4f3P+LRl5/w9cNPefLoc55+/QXPvvlC3D99fB8Bz76e/1l4/cWTL3n+5Mvv3nNf3PPqR0/s+UV+DS+/4eW3D3jxZP4c4fjV04c/4OXTr3j57Y949fQRr54/4vXzr3n94hteP/8GgdUtjI18/fxb0UlMcBN7+ewbES+efs3Tbx7x7dcPePrNQ549+Yrn3z7mxdPHvBD23z7mpYCnj3jx9JG4F/TVP/67wr/9PQS50VMQtO0ins2T2F4/Q/xswl78/giBUMDz+Z+Fzy28Xzj35VNevxD2z+Yh/u678344V5A4CRAeEP97kP3h6/n/84Hwd70SFQvCNfPi1VOev3zCsxffiHj6/Gu+fTaPJ08fI+Cbbx/x+JuHPPr6S756fJ+Hjz7jy4ef8OXDj/niwcfc//LeX+Eu97+cx+dffMhn9wXc4bP7t/n0/i0++fwGH392nY8+vcq9Ty7z4UcXuX3vArc+PMeN26e5cee0KHe89eEZbt09y61757h1b46b9+a4fvccV26d4dKNU1y4epy5SzOcOX+Y0+fGmT07xqmzo5w6O8Ls3Ciz50cRqmYzp4bvjk0MZg4ODu/s6ur6WSL1P45eP+ETN27c6GxgYEBDQz0vX/61TvGvr1Xhwvn+4nnJawS84BXPecUzXvGUl3zLi1dPePHqG56/FC6i+QtIuIi+fvIVXz95iJA1zl9IX/xwMT346jMefPUpD7765Dt8zJcP7/HFA+FC+pBP79/hk89v87GIW3x8/yYf37/BR/evc+/TK9wVL6RL8xfS3fPc+lC4oC5w8+55bnw4x5Vbp7lw/STnrx3n/NVjXLpxkmu3T3P77jk++vQin39xlS8eXufzB1f5+P4lbn90lis3T3Du8jRnLk6JOHvpCHNXZpi7epS5K0c5e2ma2blxjp8eZOZkL1PHu5k5NcCpuTHOXprk8s2TfPlIKPP9uH3y+S3x92NHmhmaqGJkqobR6VpGpmo5OFknYvRIMxNH25iY6RCD/thEK8NjzQwM1tPTV0VnXxkdfaV09pfSPVBO72AF/cNVHBirYXC8jgOHaukbraLrYBktfQU0dGZR155OXUcaDV3pNPdk0tqXS+dAAb2DJRwYKmdosJLhwWpGDtRwsLeKA53l9LeU0ttcRE9jIX1NRQy0ljIoMLA7KxjsrGSwq4qDPTWM9DUwPrSfieE2Dh1sY/xgq3h8ZLybUzPzNpqTI21Mjgj2nO0cO9zxnXNXP2ePHeTSmUmun5/hxoVjXBceEM5Ni57Xt68c59blY1w/P83Vc4LGWdA1HxJx+cwod64e59kTIUv7fnvF489v8Mn1o9y5MM6d82N8dGWKj69Oi7h36TC3zx/i1twhbp0bF+VXH16e4s6VKT68eoR714/x4ZWj3Dw/zfW5aa6dm+LSqXFOHxlgeqSFgz2V9LYU0N6QSUt1Ki0VSTSVJlKbH0VFloqmomj66tMZqE+jpyqJzvIYEUMNKRxqy2GyPVeUZk11ZDPdnsNMVy4n+wqZO1jO5fFqrk7UcHm0UhwVOXegiLP9BZzqzuFYexpTTfEigWy4QoWAsRqBTBbH8bYUZr/vQ/dkc7Ynm7neHM4P5HNxUNBVC1ppQRMtmJ3UcvdIHR8dbeD+qRYene/hydUhnt0a58U9Qc50gpefzfLy89O8+OQULz87y8sHAtv6x/69uNKvPuX1txd4/eIiILiACeSv70va3/WYX9zm9bNbvH5ygxcPL3L/9hEuznYzNVZJd2ea6OKVVxxARoE3qflupOQ5k5hrT0yWFepkwbBjm+hVIHjgu6rW4abegJt6M+7qrXiH78Q3Yje+4YZ4q/bgqTDANWQnDoE62PhuxMJzDebuqzB3X4m111oc/TfiLt2Kt0wXX8VOEZ6y7biHbsMteCuu0i24SDbiFrwJT9lmvGSb8AzdgJt0Dc6BK3HyX4aT/3JcA1bhKVmHb8hm/MTK3zZ8xWE92/EM24qLfCMO0jXY+i7H2mMJ1q6LsHZZiJ37Ipz8luEuXYGHbBVuoSux8VnyfJvh2yO//t2/uGlp/eO7P0ukfsLB9X/60YTe8j/98z+M/eGtf0ffdCHOAetxDtyAc9BGnII2ij1Zl5BNuIZuxEMYCh62jUDNLkLiBKOLPYSnGxCZtRtNth7ROfrE5hkSm7OX6ExjojPNicmyEx2pkgo8SCvxJr3Uh6QCN2KzHIlItkQpMKKjhRnOe1AlGBGebExEkhFh8buRa3YRpNqBj0wXb9lOvBV6+Kr18I/QJyhKT5RphcYaEBJlQHDEHiTqfUhVVoSGO6KIcUUW64I01h6fCHNcZAZY+2/F2ncLTpJtSCP3kZTjQXm9kra+RLqH0ugYTKG+K5qCOimRmXYERRsSoNktTsxSppkTnmklQp0mzIU1QhKjJ7KyfcME1rfA0t6LMskWTbobVS1p3L53+fuoIT5Y1LWli6xxc7eFmLi8i53fYpwly3GTrcZNvka08xRMVgQ9dWjMTkIjdxCi2kao0K9W6SFX7SFYboRPkB7OXtpYu6zHzH4VJnYrMLVfhY3HRhx9t+LkryPC0U841sYlcCsuEm1cpdriTcozeDsSlQEqjSnRsbYkxjuSFOdMUpQjiWF2xMutiZVaEh1khsZ/H2rvPSg9dxPmY0RUkDmJSkcyojzJSwikOE1OWU4ExdkR5KWrKc6OFMdEludqKMkOpzJfQ11pHM1VSbQJQaslh4M9pRwebmB6rJUjY+0cGesQ98fGO0Qnr7ljA1w8OcTcsX7OHOnh1GQnx8ZbmTzYwMRgHdOjzdy4dGw+q/xuhb/+6jNuXjrKpVMHuXjiANfPjHFrboJrp8e4OjvK9TPjXD9ziBtnD3Fz7jB3Lk5z9+pR7l07yu1L01w/d4hLwkCMo4OcFfTWk30If8/EgUb6Wkpoqc6ktjiBspxIClLkZET7kxIurEEQZekySgVrU0FalhJETbqUxmwZ+3MFhNKaJ6MjX05PoZK+IjW9hUp6CxT0FSg4WBbOkaYkTrSmMiM4j9VEMV4RxmiZah7lKsbKVRyuiRD7yEebYzm+P44TQi+5NZHZtmTRSOR8dwYXejK4KO4zudiXzcWBHC4dyOPKUB7XRgq5MVbMnalKPj3ZxMPzXXx9dZAnt8Z59qGgNxZ0x6d5+dk5Xn5xkZcPBLLWx//NUOQ5r7+9ITp9vX4i9J+FwCzwJ4TesvCQ9Bmvnt7iq09nuXlxiOnRCrqa42iokFNa4EdulguJiVaERRohC9MnWK1PcLgBkkgjUWoZHLsbf4222EbzEvq6Uavwj1tLQNw60bjHRzD/iNbGL0oXf40+/hpD/DV78YnYI3rIu8q2Yh+4HkuvlZi7L8fKezX2fhtwkQgBeBvOkq3YB2zA0nsF+9yXYOS8UMRelyWYuS8Xz7PyEgLnSuz8VuIQsBJnySpcg9fhIdsscmk8QrfiIt2EQ9B6bPxWYeW7Emv/FdgGrsQ+cCWOQatwC16Lt2Kj6FwoidwuWnmGxO8gOEEXv6gtWPms+GLZ+t/lamlp7dDS0vr3/+m9++fzfsIr8MYbf6/zy3/5Be8s+j9s2/ceBrYL0bNaiL71Ygztl2PuvgH3EH3CkhxE1536zngGDhUwNVvL1KlqhqcKGBjPom84jZ6DyfQMJdEzlCjuu4eT6T+cxcRsGScuN3D6Wisz5+s5MJVPfXcsuRWBRKZaEaDegY9CGx/FRrxlG/AKWYunZDWeQavxlq7FJ3g9XsEb8JSsxyNwPW4BG3ALFN63FT/FDvyVuwhU7EYSYkxIqClypQVylTmycBOCVAZ4hW7DOWgTdn7rsBeeoEN2II+zJjk/kKJaDbVtqezvyaa5J43qVg05lf5EZ1kijdmJl3qjCMEpTJgSpU63RpPtQmy+F4mFAtyJz3cmKtMaVfI+ZPEGaDIt6B0p5usnP/Y/j84eJKMoGK/QXVi4LsfWcw0OPuuw910j9uUdAlbhLFmDW+h6POWC/eZm/GRbCJTrEKLWRRmpT1jcHsISDFHECXIOA/zD9HAL0cXWdzMWHusxc1uDudtqrD1WY+e9BidhWk7ABtwDt4g9ay/JdnyCd+Afqo9UaYQqwpyYWHsS451JjXMhLcaF1EgnEhV2xARbESkxRx1ggsLHEIW3IWpfIyL894nBOTbYmni5A0lqd1I1vqTFBJEaIyExwo/kSH+yE0IoyVBTUxhHQ1kyjeUp7K/OpL0+j/aGfNobCuhoLKS7pZSDPbWMH2hkYrCBycEGpoYaOTbWypnpbmanujgy0sxobzWDHWWMdFdyYrKbLz+988NDj1DJuXfzInPHxzgvZOEnhrk6O86V2XEunxQC8yGunz3MjbOT3Dgn4DDXz05w/ewhLp0c4fTUvLXn2ZkBzs0MiPrqmZFWhruq6G4sEAd1lGVryI4PJTHchxi5K9EyZ2JlTsTLnUhUOpGmdiEnyp3iOG+KYtzJj3QmN9ye/Ah7KuNcqUtwpzbaidooBxpinWmKE+BEe7I7A7kBjJXKmKxScbhSyeEyGZPlciYrFByqkItM69EyGaNlcsYrlUwI76tSM1mtZqo2nKN1kRyvj+JkYyynm+M42xLP+fYk0Tzk1mAWnx4u5cvjNXw128ijM/t5dL6dJ1f6eHZzWDQReXpzjG+ujfD4yihf3zzEt/eO8vJLwclLCLh/tb3+gtdPLvL62aXvsuW780zsv86YX97k0YNTXDjXRltbLGkZzgQrduLmvw47rxVYuC7C2OkD9ji8y277d9hj/z4Gtu+jb/Uuxg4LsfcRzDe2o4gTfAL2EpGxh7AMXRRpmwhOWUVQ8vJ5vX7SRoITtiON10cSb4gkZh+BGhN8VMa4h+zBRaqHU5AuTgHaOPhvwNZvDRaeyzBwfB9dq7fYavpHtuwT8Ce2GL+FtvHbbDV+V4SO8Xvomn7AbqvFGDuuwNJtLdYea7FyW4W5MKHKfgF61u+w3eJPbLd8k502b7HH6V3MvBbgIF2Jp0pwJtyMf9QW/GK24Be3Cb/49XhFC+Nsl7zcafHWzK9+948BWlpai3+WSP2Eg+vf8tH+/hf/K+pf/+OXLNvwJ3ZaLEXPaiV6lqvQs1yJvtVKDG3WYOumg69UeMq1IjLBhaRsPzKLJGQUBZFRFEhGSQBZZUHkVErIqggkpciLmCxHwpLMCEs2IzLVgogUcxTxxvirdoqkMEe/9Tj4rsXJfz1uks14y3TEC9JPuY0AhQ4BCm0ChJKRXFu0tHP2W4Od10psPVdg5716/tyADTgFbMTRfwMufuvx9FtPQNAmQkJ1kCm2I1NtJ0S5nSCZDt5Bm3DzWY+TxzqcPTfh4adLUKgxao09Sam+5BfJqa7T0NQSR3NbNNUNCjLz3YiIM0Gq3oWPXCCvbUcSbYgmx57kMm/Sq4LIqAokudSTiGwLghN3ERCzhbhCa2YvDv1wR3v4+HNa+0sIS3XGJVTw6RbMS3bgpdqBu3wbriFbcQ3RxlOxHV/1TvzD9QmI0CcgXNBm78JX1Hxvx0upI7LgBeMW37Cd+Kh34qUUTFx0cQvVwS10K+5yHZGp6hyyCQfpOuwla7ENWoNN4GrRXMFRsgHX4M3iw0qAXI9QpSEREebEaqxJ1jiQLGTMoRZogvah9jdE7qOHzHMHIa46BDtvFSF30SXM04AIXxMi/MzQBNgQK3UiSuJIeKA9sXJ3smIkFKUoKUkPpyhNTV6KktxEBVnxMtKig8mIl1GYGUV1YTKNFZk0lKVRU5hIQ0kK7bXZYul8uLOKvuZi0V2sp6mQA21ljPbUcv7UBEKv9/vt66++4MrZI5w5MigalAjZ7pmpAc5MD3DuyAHmjh7k3Mwgpyf7mT3cJ2bDpyb6OD7ey/RQO4cH9jM91MLMSBtHDrZwqL+OgdYSWqvSqciNIj9VQWa8lKQIL6JCHQmX2BAhsSZJ7UJunC95cd7kx3pSkuhDeZIPJXHuFEU7UxTtSEW8C01p3rSkedOa4kFnmhfdmT50ZXjTle4poifTi4FcPw4WBDJWJGG8WMpoURCDeX70ZLrTkepMa4oTbalOdKa50pPpQX+2F4O5Pgzl+TKc78tIgT/jxUEcLpEyXR7C0So5sw3hXOpK5PZIPh9PV/LZqSYenO/i8dUDfHNjmG+ugF6R3wAAIABJREFUD/Po4gAPzvXy5dluHs718uTKIC/uTvPywRV4/eMai22s15/y+sUNQLDmFLLpeYnUi8e3+OruBe7OzTB3ZIDR/ipKC9SEqWzw9tmBo8sGbBxXYWm/HFPrxZhYL8LcbinWritwFBzugrfgr9hJSJgRqkhTVBEmyFSG+AdvxSNwDW6SZXgoluCjWUZA3AqCElYhTVqHNGkL0iQdUdIkSDmlcQIjew9BUQb4qHfhJlxrAZuw8VqDmesyDO0+QNfsT2zd+we0DX+P9p4/oG3wRzbrvcnGHW+yftsfWLf196zf9ns273iT7QbvoG/8AXvNF2FivQQT26XssfwLO03/LE6oEgLzTts/o+fwNvqOb2Pk9i5W/guxky7FIWQZDqFLsVcswyV8OR4Ry3BXL8XG94Mn63V+U/WP//h3RlpaWr/+W+7dP5/7E12BN97QeuuNf/rFzT++859s0l+CnuU6dlttYK/DFsxctmLuuhVzl61YCHDSxsJpCyb2GzCwXImu8SK0Dd5Dx+gDdlsuw9pDkEsZEhptiSrRTmRSB0XsFgOaV6gQeDfjI5TC5Rvxkm3AM3QdnrL1eAvZoWIzvoLuT6mDn0KXACEDVu0mUBjqIECtT4B6N0HhuwmKMCAwcg9BGgGG4rGQOfqqtuErML7DdZBqdAmN1kcRbYAiypBQocytEtjS+viG7sIrZBdeofr4q4yQRpkhjxfmJzuRVuhLabWchhYhQGuorpOTX+QlOmeFRAjl9HWi+5Yw4jE8Yw/xheaklNmRWu5AYrENsfmWJBba0z2Sz8Ovf+wvC0SR7uF8ivfLSa/2Jqs+kMzaQOIK3FAnWyHV7CUobDeSMH1CNLtRxBkQGrtz3j88arM4CMRWuoJ93gsxcHmP3Y7vYOT0Lqau72PtsQDXwOUEKtYTHL6Z4IgtSMI24itbjaPfEizdPsDE6X1MnRdg6bZEzKL95DsIDd+LSmNOZJQNMVEOxEY6EhfuSJzKgVi5PTEyO6KkloT5G6PyMkDpvguV2w7C3HUJc9uO2nUbKgFuuoR77CLSZw8afxOiJVbEyYUA70ZGlDeZMb6kabxJULsRJXMkVulGapQfmXFBZMVLSYsJJDU6kPzUMMpz46jMS6A8J5aCtAiK0iOpzk+kriiZ+uIU9ldkikMybl87/31MFvcf3rjI8Yl+DvU3Mt5bx+HBZqaHWzky0sbhA82MdNcy3CXYhVZzoK2Svv3l9O2vpLepgs66YjrriuhuLKF3f4lYtm6tyRRHXRZnqshLlZERF0hihCdRckciQ+yIkduTpHYmM8qD7GgPsiKdydY4UxjrRlWKD03ZQTRmBVCf5kNjui/7M/1ozw6kM1dCV66E3gIpQ6VyhsvlDJWEMFQs5WCxlOHSYEbLQsUMeaxSxkSVjMlqQZMcwkRVMOPlQYyVBDBa5M9YkR9j4j6A8UJ/EYeKA5gql3KiVsX59nhuHszj0yO1fHm2k68uC2XrCZ59PMPTj47w9e0JHt8c49G1UR5fHeWbKyM8uTjIs6ujvPhEcPr68fs7v9gC8eyz75jagjRKqAZ9xpNH17h8YZyW5hwSEgMIVdrgHbQHZ99t2Hqux8JtBfucFmEkzDy2epu91u9i77EMv1BtlLFGRCabE5FghizcCJ+AbTi7rMPKejkWVkuwtF6Cpd1iLByFCW2LxUltVj4LsQ1cgItiCV6Ry/GPWYMkYQPBSZsJTtJGEi+UuoW5xxtxkq7F2mcV5m7LMbZfhJHVe+w2fYudxm+iu/dNthm9xVbDt9De/Se27n4Lnd1/ZueedzDY+wEmZovFv8PGegVWVisws1iKselC9pi8i77pn9Ez/xMGNn9mr9O77HN7H1PPDzDz+gvmwrQ8n8XY+C7F1ncZdr5LcQpcinPgYmy9Pnitb/rm3O/+8E8KLS2tVVpaWv/wEw0tP3+sv2UFfvHG30f987++wcKVf2Sb8RK2myxF13SZmCWbOm3CwlUbS7ftmLvtxMxtB2Zuulh778IhYDeO/vo4+O3E3mcbDt7bcPLdjpdkN1KVOaooe8Lj3AhPcCMs3plQjSV+cgM8pLo4B2zBwVdwsBICuR5BEUZIIvciiTAkQL2LANU2gtRbCI3aijphB5GpekSl6ROVvgdNmgGRaQaok/UJjd9OcJw20vgt4lzk0KRNhCYJzl4bkSVtRJm8hbBUHSLSthMh+Fqn7kCZpEtonODatRnfiE14R27CM2IjHuGb8InQJlCwBo03JDzZjKg0K2LSrYnNtCQ2y4y43H3EFxiRUGxIUtleUitNyKyxJLfejpwae7Iq7EgusCCvwoPZuQM/SKSevfiKyeO1FDV4E5a5C2nSVkKS9ZDE7SIgbDv+sm0EBG9DKtuBXK2PSqNPWLwe6iRdlClbkaVtQZKyCd/4jbhHrsVJsRL7kGXYBS3FUbIMt+AV+CnXERyxCblGwAZCw9cSpFyBR/BiHPz/Ikq/BOMTW/eFOHmvxCtwCxLVHpQxVkQmOhOb7EFikhfJCd6kxnqRGuVJSqQ7yWGuJKudSFbakhhqQbx0H7EBe4jx302M3240vgIMiQk0Jk5iTnyINUkKe9LUzmJpN1XlTKLcgdhgW6KltkRJbdFI7YgKcSBe4UpSmCfJEb5kxIaQnxZFbnIkaTEyksODSFL5kRcnozwjgsJkJUWpauqLkzk83Mnjr35sEQjZsjC5arS/YZ6Y1lHBwa5qsTw+2FlDd3MpHQ3FdDeX09FQQkN5Ng3lWeyvyaWhPIPK/AQq8+KpLkykrjiZqoJ48pIVpGoCSInwIynch4Qwb+KUHkTLXIgOdSZe7kxamBu5UV6UxHlTkehFZYIXVQkeVAuIdxdRm+RFc0Yg7TkhdOXJ6MoLoSs7kPZ0b1qTXehIcaE3w50Dud4cLPRnqMCfg0VBjJaHcKhawVRDGEebIznRGsXpznjmepK50JvKRcGeU0Q6l3ozuNKXxY2BXG4PFXB3vEScy/x4roOnV4VJTpM8v32UZ7eO8fjaYb68eJBPz/Xw6bkuHlwe4MkNYRTjEV7cPcqLe8d4+fkcr58IGfG3/+XhZ/7nz3n99A7PH1zi4d0TXJwdoL+njKLiaCKifQmU2eIZaIyDly7mLuvZa7eUPdYLMLT5C2bOS3D2XYdf6DZC1PqEhu9GotyJt0RbrGJZO6zC0m4Vto7rcXDdgoPrZuxcNmDptBpTx+XstV/IHtv35oO73dtYur2Pg98C3EKX4B22TDTVkcStmrenjVtNoGY1PqqVuEuXYe+9CAvn9zGyeRt9i7fYYfqmmDVvNPgd63b9RpQsbtb7Azv2vI2h8XuYmS7A2nwxtmaLsDZdgIXpB5ibvoep2TuYWr2Dmd27WDi9h5X7Amy8FmHrvRh7n+U4+c+3jxy91uLgthp7x5XYOyzDzmEx5pbvsUv/D98uW/Fvbf/0z39npaWl9QctLa2fJVJ/SwD7KZ4rZMv/8Mbfjf3nH/+FNTvfQtfiA/QsF2LiuAoHLx08A/fgF2KBX6gNXsHWuASZYOutj7HjJvStV7LLchm7LJew22oJRrYrMHdch43rJuzdtmLjOp9hm7toY+ulg7tUD1+FEf6qfQSqLZCE26OO9yYpR05agZKkHAkRSS74q/Zg77OOfU5/Ya/d2xjb/hlz+3ewcf4LTu5LcfdejXfABvwFkxDZBoKUawlSr0ISthJp2CqCI1YTqlmLPGYDyrjNKOO1UcRrExqzmWBhYIVmI1LNJvE4JHYTIXEbCYpdg0/UctzDFuOiWIyzfAkuimW4KVbhpliHi+DspdyKb4Q+wXEmqFNt0GTbklDkQG6dH7XdkfRN5DFxso5jcx3cvHeCl6+f/HBTu3lnlsrmcKTR27DweRcT73ewDlqEk3QlXqHrCZBpE6raQVikAZHRhkQIg9ljBUORbQQLhgYxG5EI5iKCAUqKHoLRizxFGMW5m8AoXXzCdfBSbsFDvgnXEGEW9FoRHvINot1goEaHkChdQiN3Ehq+SyTcBCqFSoY+vkrB+MUCRbQ9kbHOJCR4kJrgTUaiD5mJ3mTEuZMW5Uyy2pZkhTWpCktSZeYkh5iKEI5TZcJrliQHm5IcZERK4B5SBUj3kh5iQobcgkylDVlqO7LCHciMcCY32pOiBH8q0kOpyVZSmSmnJEVKXowP2RpPCmJ9KUkMpDRRGDcZQJbGl4L4EBpLUjl34vAPDz3CIt+4MsfBnkZaqnJpKEmjqTyLtpoCepvK6W4so7WqgMbSbGqLMqkvyaKhLJu60nQqCuLIS1OTERdCWqyU9DgpmfEhZMZJSdX4kxjuRZzSnRi5C9EyJ6KFbF/hJA71yIj0IC/Gk9IEL2qSfRACcEWsE+XR9pRH2VOqsadMY09ljBP1iW60p/vQlxPAYIGEwfwgsXzdnuxKR7Ir3WnuDGT5MJjtw2CODyP5foyXSDgkZMy1KqYbNRxvjedcTzqXBnO5NlzAjdEiboyVcOtQGR8eruLuZBX3pqr5ZKaW+yca+Xqug2dXD/Ds+ijfXpvg8ZUJHlwc4/PzB/n4TDd3T7XyiZhFH+D5bcEP+wQvPz/Dq68u8fqZEJQFHfJfb4JSQwjKN3ny5TmuXzzIwcFSCosVKCKscPHTwcJ5FfvsF2PquBg7zxW4SwSjHh2CNTsIjd4pkhmlkULVaRM2nssxtH6f7YZ/YqPub1m/7bds1XsLfeO/sM9qBRYOazF3WIuZ4xpMHFdi7LSSfS4CVmPivAZT59WYuazAwmMpVr6LsJMswFm+EM/IpfjFrCAwdrU4cc43fA0e8tUiu9rabSkmtoswslzAHvMPMLJYxF6LJew1X4qx+VJMzJdhbr4ca4vl2Fgsxc5sCXbmi7GzXIyt5UJsbRZia7cYe8elOAgleI/VOHuuw9V7A24+m/Hw3Yqnny6+AbsIkOoTFKpHiHIXyggDFBEGBMl2Ye247uZ7C34dq6WltUlLS+uXP8W48vNn+htX4Bdv/K+o//1v/8CCNf8HfYc/Y+r1Ppbef8HWR2Bmr8A7ZDOBCn2kagukYbYEqqzwCDbG1luXPXZr0dm3iA2732bNjjdZtf33rNT5LSu2/IqlG3/FovW/ZsH637Bk8+/ZtGcB5kKPWmFNRFIgaQXRFFfn0NRZQ1tvAzVNBWQVaQhP8MRXsU+UPVh5rcXCdQWGFh+gs+sPbNz0Kzas+090Nv8BQ733cLBchq/baiS+q5EGrsTffzmePktx9liMo/synL3X4BO8nZDIfajirYhIskEVZ0ZopAFBym0EyoWMcSsh4bqECuzuyB34qbbgp9pMYIQ2IbG6KBJ3IUvYSXCcruiAFhC9naDYneKEGWHAuuAkFBhhijLBmcSCEPLrYmgeKOHijdm/0oq+4PKNKbqG0kkvc0aerIevRhtX2Rrs/Zdi770YV7/l+AWvQ6bWITJWn5hEI2IS9xIVb4g6ZrcYUAPU2xAQHLULWexu5PG7kcXpI43eiV/4NjwV2njIt+AWumWeRS/djHvoVrwV2/BXbSdAsQ2/YG18pFvwkm7GM0QbL+V2fMP1CYo2RhZrQVicLZpYO6Kj7YiNsiFeY0OCxpbEcBuSVDakqmzJUNtToHGmNMad0hgXSqKdKIlyoCjSljy1BblKMwrUFpTF2FOf4imiOtGNyngXyuNcqIh3pSrJnbo0H5qyAtifI6ElV8r+bClNmYE0pPlRl+xDdaIXFXEeFEW5kKGwJTlU+P+daSpN4u5NgXg0v3314HOGuhsoTAsnMcxHzHKFzLo4PYKCFDV5SWpyE9XkJ4VRkBxBcVok+alqMRAnRPoRH+5DrNqLGJU7sSp34lTuYhCODLEXy+5CMI6SORAtdyBR7Uy6xpWCOE9Kk3yoTvWlLtWHuhQPKmPsKVCakhW8h7TAXST57iA1UI8ilQk1MVY0xVvTmmJPZ5Yb/QX+DJeHMFQWwkCRhIHCQAYKAjiQ58dgrjeD2Z4M5XgznO/PSGEQI8USxkqDmaiQc7Q+gtPCVKjeNASv7FujRdybrOD+iQYenW3hyYUOnl3pmfe7vjnKs+uHeHxpnPvnhvn4VD/3TnXz+fkeHl07wJObIzy/MzGfKX96ej4oPxUIdUI14kftvbDSX39xi8snDzDSXURdWRTZGRJi4lxQRghzxI0IUuxGKtcjRLELmYgdSIN1CAjajF/gJnwDN+HlvxE3nw04eKzF2nUtpo4bMLbdgLHNBiwdtXHx1MM30BhpiDD61AqZ3BqZ3Aal0o4IjQsxcV4kpfiSlu5LeqYf6Vl+pGX5kZLlS0q2L2m5AWQVSiiqUFBZF0FNQwT1jRE0NkWxvzmetv1pdLTk0NVeQFdbIZ0tBbQ05FJXkU5ZYRz5OeHkZCrJy1ZRUhRJdUUsjTWJNNck0ViVQE15LOXFkZQVaygri6aqKoG6uhSamzLoaMult6uIwd4yhvsrGB2oZGyggsmDdRwdb2ZyqIHWutxnqhDvobfe+p2LlpbWOz9LpP7GAPZTPP37bPnXf/glWwzexMT1fUxc38XE9R1MXN7BRLB6dP4Ac8cFmAtlGIdlmDmuwNRpDSZO69jruJ7dNmvZbrKMzYYLWL/rPVZs/SML1/4n7y3/d95Z8q+8t+zfWLj6/7JCCM673kPPdDXmTjtwC7RCEuaBOj4AVYI3kkhr3EJ2YeO7DhvfeYmCq0RgZa/HxWsNdvYrMNu3GOPdCzHRX4yV0VIczZfhYbccP9flBHmvIMB3Je5uS7C1W4CZ9WJsXTcRGmlPenEENW15NHYViA48aTkSFGozAiW6+PhuxNtnLV4+q3H3WouHzybxSVceZk5knCPRKa7EpLkQk+5AVLrQgzZFnbwXRfxegjV7CVAb4CXfiadyOx6qrbgqNpJY7MmlG8e/jxt8+vkNWnvSSc5zJjzFiIiM/6+99wBqM83Sham7U5t3p3t2ZnZ2Qk9378zOTOee7nEHtzvYnexuZ+OEE2BsMGCyyUkIAUIog7IEikgESWQQOYMJBozBNjjihHFO7fj8dV7c3bP31t67t/ru/W91WVWnXklIn/S96P2e95zznOesBEfujUTBckRxFiM0gTTCF7D8cHTCIiSmfQJO5gpk53gjh78J2TmbkZnrgwyBD9IFm5AqWI9UAYXZV4MjXIV0wXIkZX2G+IyPEcdZgti0xYhJ+QjRyYsRkUjyqB9gT+wiBEW9i91U8hH5Jvwj34BfzAL4xb4Dv33vguQD/cMXYk/kh4jc9xkSEpYjLXkdMtM2IjvdB3mc7ZBl+ENJgMTdBRXHH8q0HVCkbEV+8ibIEjcgP2UzVBxfaHm7oM8OgpYXAHXGDijSfKBM34LCLD9Y+AGw5QbAkbcbTukeVCsj4NHHo9WUhg5rJjqpVMiWiXbqAGVMRYM+Ae78aJj5e6DmBkDF24OWyiLcuflt7fJwfwfk/ETEhWxCmN8KxAZvQHLENiSE+SB+rw+SwrciOXI7UiK3Iz12JzITdyMzKRAZCbuQFrsTKfv8Hps/kmN8kRS9A0mRBMY7wEsIgCA1CNLMvVDnhqNIFAmTJAIWSTis0jBYRcEoytkJHXcbdOk+KMzYAkvWDph522BI3wRtije0yWtgTF8LW+Y6lORshjNvB2ryA+HRhKPVEIMOYxy6qNEEazYRj3Z9DFrUEWhUhqNBsRcNilA0qvaiTRuBLn00OvVR6DbEoM8UjwMl6ThcI8DZTg1ujpXg7tEq3Dtei3snPLh7vAl3pppx63ALbkw049p4I64crMWVQ9W4dqQOt6md47l+PJgbx8Nrx/DoDrGrichFNcvUnOLb273b13BksBUdxIovVcJplaLYlAdTIR/mwhyU2ESodirQWKtHm8eIjkYzWuuNqHWpUFkqR1VZPqrLC1BNYOiQwmHOg80ogM0kgt0iRVlxPlwOBVx2qhGXocQkRnGhCPZCEcpMMrisBagoVqCyWIkqu4oRAJvcReisL0ZfCzVEcWG4oxKjPbU42FeHg71k9Rjvb8CR4RacOtSNC8eHcGXmIC6dGsGF6UGcOdKHmckezBzuwxmyyV72uuNj80x9YuufONSF04f7cHqyD6cmenFivBvHDnbhONlYF46NdTGm/9SBNkwONDFy4Sh9dl8DJqgq4EALTk904/RkDw4NNMJt08xu27Ra7OXltdjLy+up7yOuPDmn7zgDP/hrrw//9u9+gGd+80O89fGvsejL32Lhst/ivS+ew/tfPoMPV/4KH676Fd774ld45/Nf4e1Pf4UFHz+DPy15Bn9a/Gu8+dGzWLD4ebz98W+waNkf8NGKF7Fk1ctYsuolLF7xAj5a/nt89OXv8OnqP2C1zx+xO/xzpPMDIMiPgaAgHqn8MATHbcEq34+waNWLWLj8N1i08nl8vO63+GLjC1i1+VWs93kTm33exvZtC+G/7X3s2vY+dm5ZBN8Nb2Prmj/CZ+Wr2LTyFWxa/TK2bnwVfr6vYXfgGwiOfBfJvNXIN0TDVCZCsdsAg1UBgTQF0fEb4bfrHezwewW+fi/B3/9V7N71J4SEfoDImGWIS16HVO5WcPj+4ObtBFfoh4y87UjP3Yw0/npk5K5HtnAThNKtkCr9kafwB1e8FXFZqxGfvQ7OeuWflUjdR0+/HXnyDQiOfhnb9zyP4LhXEc15FwlZHyApZzGSshcjkbcY8dzFSCDxe84nSOB8ivj0TxGb8gkLgSVzNoDL34m8/L2QaiIh1YVDpA1GrmonsvK3giMhsF6JZP4XSMtdhkzRCuQVeEOi3gShciMyhKsQmbqYEe5YOVbUuwiJX4LIpKWITVqO+ITlSIhfjtSENchI2YSs9B3IzdzFQtmy7D0oyA6GOjsYupwQ6HP2QJcVyEzD2wVlhh8K0rdDmb4dirRtyE/ygTptGyyC3XBI9qBEEgi7KADFeTtRKglEpSIM9dp9aDEmo6uYOjbxMeASYqiCWhxKMFIlZo0bhlwC7C/PRbcjG60WLmr1qWgukeDM9Mg3iHHr5jW4inVIifBFwPqPsX3VIgRu/hyhO5YjzH8VQn1XIMR3OcJ3rUHc3s0MmHNSgyHMjIAkOxrSnH2QZMdClLUPoqxYiLJjIc7eB2l2LApy46ARxkMvSWBhdiUvGLI0P0iStkFOEQNuAHS83dBl7kJh1m5YcoJgzwtGiTAY9txAFr42cbfBnOGDYu4m2DM3o4Tnw9jV1ZJdqJUGoVa6B43KMAbGPabE+a5Q1mT0WVLQa01Fn23eBh3pGHNm4kg1H8c9YpxukeNclwZXhqy4e7gC9056cP9MG2vPeP9MJ26f6MC1qVbMHWrF7Fgzs7lDzbg23Ypbpztx9wK1Y6TOT9N4dOcsHt29gEf3ZvDo/mngIXWLouYU396unj+BQz116K23o63awnL5rfV2dDWXgdp0DrW7cKDDjQMdFRhmRkDpxkhnJSb6azE13ITpA83MpoabMUX3R1pxYrwTZ4/2M6CcPTaEc0f349ShLkwfaMWRgUZM9jdgorceB7uqMdJWgUGqdfeUoqPWhvZaCzrritHTSO1FyzDQ7sJQRwWzwXY3BtrcGOqoxHh/PaZGWnGSQHayh43Hxztw7GA7jo21s3p2qmmn+1OjbawH+OGhJpAdGWrGkeFmdp89Hm7G0eEWBvYEukcPtLJjTz8+Dn0G1cZ/bTOTvTg3tR+nJnow0F55XyHK6H75xT8Ee3l5vfDEW/6OAPZ9fTuFsZ/60V/hxT/+FAs/eRZvffgcFnzwG7z78Qv4cNmr+Gz1G1i2juw1fLLyJbz/2e/w9kf/ijcWPYfXFz2H1xY9h1fefw6vfvAcXvnwOby+5Hm8+dm/4q1lz+Pd5c9i4YpfY8naf8P2kCVIFwSj2KVER18DevZ3oaGpHnqjCqmZ0fALXo6Vm97AkuW/wUfLnsenX/4BX6x6GWu838CGTe9g+/YPsCdwKcL3rkB42HIEBX0Mny0LsNb7JSxf9Tt8ufLfsGLV77Fm3YtYv/llbN7xOnyDKPdMxKZNiEvfhsjEzdgTsQJ+gR9gi+9r2Lz9D9iy43fYtuP32LHjRfgHvI6g0HcRHrMEUQnLEBH/BcLilmHvvqUIifkMQZFLEBhO5VYfIDTyY8QkrEAqdxOy8nyR9Ri4U7I3QKaNxMTR3m+uaDdvzaKpTYUCnS/Scj5GYub7SMn5BGm5S8ERLEeGYDUyBd7gCTaBJ9iCzJzt4PJ2IJ2zHcmpWxEX74N9MVsQG+2L9NQQ5AniIc9PhUqTAbUuAypdOvKVCZDKYyAUhSFPGAqRkEQc9kIpj2BWIAuHTBwKiSgYImEIxOIwyKXRUObHQpUfD7WMBEHioBDsgzwnBnJ+LAryEqESp0AjSYValIiC3GhIM0Mg5uyChOMPSfp2iJM3Q5bmA222Hwr5ATDmBsEkCIFVFA6HLBIl8nCYBLthyNoBU64/SmUh8FDdbTEHXfZMdBZnosOWwcC5tyQLw+48jNeIMUo9j6mNYSkPvXYuOm0ZaDVnoMmciZG2Uty9SZrM87fpyREYCzKRELwB/msWYseqd+G39gP4rf0Qvms+wPY1HyBg46eI2LkGKZE7wE8NhSRrH2N/K4UpUIrSoBClooBZGpTiVGikKUwsRSuJh4Z0wvnhKODtQT5nF7RZwTDlRcAiioRFSOcXisLsIOgzAlDI9Yc1JxAlwhCUi4l9HYZKeTjqFBFoUEUy1nWDMnyeda2LZuSuZm0UyFp00Wgr3IdOUzx6rEnY70jHUHkmRt3UeEKAI3UiHG+eB+NLg2bcOFiGu9O1uH+mHQ9miaw1iPsX+nGPQHm6CdfGa3FppAYXh2swO1SDiwdqcXm8Hjenm3D/XDceXhvBo3vTj8ud5vDo3jk8vD6Nu3OTuDU3DTz4lh9x785NTAy2o63KgtYqC9qprKzRhd7mCvQ3u9FZ50Azsd3L9Wgom7dGZyGaK4zs9QSeXfV2dNRSG1A7A9b+FicDzkEC0s4KHOiuwkgPCcnet9HtAAAgAElEQVTUYLS7BmM9tZggQB1qwfEDrTg23IKpx0b16VRnPtjmZmVtHXW2ec+5uQx0PPKchzsrQeC8n4C8sYQBeHuNFS1VJjRXGtFabQa9j3qAk4DMcFcVE5WZGPDg8HDTPOCOtuLYWCuOj7fj1GQXU5ObOzmEy6cPgMbz0/04c7ib/W3mSDfOH+vH7IkBzJ4YxMWTQ5g7dQBXZsYwd3KY1cvXlhfeCg3cofvbv/qrL7y8vH7yfcWVJ+f1HWaABEX+5u/+8vjzv30aS5Y+i6Wrn8PiL36JRZ+TPYtPV1O93kJs9VsK350rsXnbUnyx8j0sWPgHvPDaM/jdK7/A7175Of7wx1/ghTd/iZcW/Aovv/MrvPLuL/Hywp/i1UX/hLc++Res3vY6UnO2o8jBQ11TEeqarHCUaZAtiMfOoNXYsP09rN36OitjIHGBRcufwVuf/QLvLv0VPvjyX/HZmhfgve0t7Ar7DFFJ65DA3Yx47iZEpq5BcNzn2BnxEXyC3sHGXQuwcddb8AlcyNSuAiI+RVDMF9gTsxSBUZ9gd8RH2BX+AQIjP0RgxAeMkcxyXX5vYIvfm/ANXIjAiI8RHr8SUclrEZnojcjE9YhKWI9oUhGL24y4hK1ISvFDenoAsjL3QMiPgFQYA5koBhJhNApk8Wj2OHDz5rc9a8+cPgxPvRlFBi5kYnpNAtSKNGhVHOjVXBRqeDDr+CguEqHULIfTqkSZWQF7kRxWjQgmpQBmZrkwK/koUubAoMxGoSoHZp0AZl0eTNpcFKlzUKjgQS/nQC/joEjBg0XDh70wjwl6OAqFLCzoKBKjxCiFg/L7BgmsWiH0BdlQijmQCVIgF6RAJUqHVpIBjTQDKkkqCoQJkPFjIM4KQx43CHlpARCl+0PO2Qk1dxcKc/bAmBsCk2AvjIJQ6Pl7oOL6IT9tC+Qpm6Hl+cIhC0W1PhZNllS02jLQbE5HnS4R1apYNOoT0WlJQz9TsspEX3E6eqwp6LakotOcinZLGlrNHHQ7pTh7ZPBrTMajh/fQ11YBVW40YgO+RMDad7Bj5dvYunwBfL5cgK0r3oX/usXYu205EoJ9kJWwBzJeHNTCdOikPOjkWdDIMqESZ7DzV8syoJamQilKgCwnAsKMQPBTfJGbvA3ilO2Qp/lCmbETGl4AdFkB0GfthD7Ln4Xojdn+sPB3ojg3AHZBAEqEu+GWh6BGFQmPZh+a9QloN6aw8+kwJ6PNmIgWQxzaCuPQaUpgYNxvT8NgKQfDTi5G3FkYreRjvCYPRzxSnGpX40KfEVcPOHBrspIJgjyY7cPDG+N4dPswHt0+ioe3ppgHTGpdD+amcH/uOO7PncCDy6fx8OY5PLp3Yb7UiSl0Ubj6zzXG7+DB7Uu4PncaN69RGdS3t1PHDqPBbWHlZU0uM8iaXWa0VpLX6kBnQym6m8rR0+xCb4sbvS0u9JN321WD4e46jFDteA9ZHUb7GnCQPOEDLTg82obDI63s/sRwM8gOj7RhioRfDnbi6Gg7Dg+3sOcnh5pxmDxt8nzHOzFzuBdnj/SxcDR5o8cPdrK/kXd7hLzdYfJ4G+e9Xqb41o6T4z04e3QAcydGcGVmHFfPHMLl02O4MD2E0xM9ODFOIepOZuQ907EmBuox1ks17+SBlzPBm76WUjb2Uwi93YkDXRU42FeLI8ONODnRiQvHBnD5zChuzR1hTTvuXz+Bs8cGH7qKNSPvvPVatJeX1x+9vLx+8B0u30/e+n2dgR/8wCvtb//+v+H3L/0QH332c3y24tdYtubfsHzda1i9YRE2bl0KvwBvhIZuQ0S4LyLCfBEctAUB/uvh77sOO329EeC3HoEBG7Bn9yaEBm1CWPAmhO/diuionYhP2AMONxJCUSJU6gzodDxotDzkF3CQmxeHxJQghERuQUDIauwMXYmgyNXYG+2N8JiNCI/eiLCIDYiM9EFszA4kxQWAmxYKUW4cFLI0qAsyoCnIgFKeigJZMgpkiVDmJzOwM2iyYNYL4DBJ4bSRqpQcTpsU5dTtyCJGmUWCEpMINgMfVl0WrFouLFouTBouDMp06PJToJWnzHtN8nTo5BnQU12tNBMGKQ+F8iwYFTkoUmSjMD8LejkPelkmdFIuSoryMTX5bfvBe3e/wv7eDtgKFRBlJUGQHgN5djKUgnRoxVwYZFkw5ufAqhKgWCtEiV6M8iIZ3OYCuM35KCuUwKriQy9Jh1KQBHl2HCQ8EufYhzxuNAQZxCSORl5mDIS8GEhy4lEgpO/PRaGKD5NGAKMqFzo5D0pROgMfrYwHQ0EOClW5KFIJ2GhQ8KEvyPnGCPyLVHxmtAnQKTKhyefMy23mxkCatRdibiDEnJ0s7yzn+EKUvBV5CZuRG78RWTFrkRW9GqLEzdBkBjDvuVKbgEpNPNyKGJRKwlEqIo8yEtXKWDQYktFUlMpyyp1WDvocWdhfko0+Ow/t5nQ0F6Wi2ZSBA81W3L5KYdb527nTUygzCZGd6Ivw7Z9g1/pF8F+3CNtXL4Tv2g8QtOVzRAetByc2AIK0cEgyY5GfkwgFPxn5OUmQ8BIgyoyHmEfCJynIF6RAlhMPISccOQm7kBXrC378DohTAqDI3ANlZiDk6f7IT/dnGxIDPwgWYcg8gU0SghJJMMplwXDn70VlwV4GzFUFoWjQRKLFEIsOUyJ6iV1t57AwdacxcV61qygBfeZkDNjSMezg4qArB1MNEuYhn2hR4GyXAXMDxbgxXoW7x1pw/+x+PLhyCI++Ogk8PP8YbImsRXl3EgMhwP2PtO6/nr2vx4e4f/sKZk8exenDYzg9NYFb17/dWN69cxNDPY1wmWUoNYhQXiSFy5iPSqsa9aWFaHSZ0FJpQUuVFa1V5JFa0FxpQTN519U2tNcVo722mP2tudLM/t5Zb0d/q2veU+6qYt7vof4GTA56cHiwCZODjY/Ng0P7G9jfR3vmvWjylgk0KSRNOeKTE93fKLdRyJo86ZGuKuYtU1ibcs2k8jZ7fBRXZyZxbWYSl06N48L0Acwc7mch5tME8lP9mD0+7+VePDmM2eMD7Pj0ORRapxA15ZtpQ3BheoC99uKJYVw4Nojz0/vnnzs2iAvHB9mxTk10YWayG6cnOlnYvqXacidpX2jJz37yE28vL69fPCmR+r4i63c4LyJ9/dVf/6Dl2ed/jC9W/RF+uz9ByN7ViN+3FdyUPRBm7WOhPa08EwZFFrvIF6kFMGnzYNVLYC/KR7lFjQqHATXlJtS5rKh1WlBbbkGDuxhNVSVoqi5hY2OVA01VDjRXl6C5xoGmajs8FfR6IypLdCi3KVFmKWDeInmMX1uZheQaFahwqFFTrkc9hcoqzSy31VJXjLYGBzo8pegia6BQlf2xsIQVbdU2puDU3+zCYFsFC5n1NTuZ2ES3pxQ9jWXoa3Kij3b5jWXs4kEXDY+zCPXlBtQ7DWysK9WjwqaEo1DM6luVwlTIshMg4cVBnp0IhSAFGjEHWgkHGkkGPJUOXLv8rbdx/twpeGpLoVfyIcqKgzwvGbp8HrTyedPlZ6FIlQuLVgiLTgSzTgirXgxboRhWvQhGtQBaaQbkOQkQZkSDnxKG7OS94KeGQ8iNgZSfwIBYIU5j/y9xbjzyePsgyqbPSmXeYJEqDzaDFKVmBdx2LSpL9KgqpUYMelbT6y7WwmlTf2PkrTvIW9dLYdQIoSvIgYq8Smk68vMSIcmKRF56EPjJ/siM3YyMyLXgRXsjJ3YDcqkcKmkrVNydKMoNgU0cAYc0CqWyKLgLYlCjjkO9LgEefQJq1bGoVsawx83GVLRTL2F7Jgtd99u56Hdkoqc4A+3mVDQXpaDFxsOxkZY/K5F6hIMDLTDnpyItzBt7tyxGyJaPEe77Bfbt8UZc6GbEhvggeo8PwndvRoj/BgT7bUD47i3YF+KHuLAARIf4Idh/I4J8vbF310bEhmxBWpQvMvf5IXvfdvDjtkEQv5WVeMmSfFCQsgUazg6Y+bvhEIagTByGUlEI7PxAlObtQZUsHNXySFRJwuDKC0a5IBAuURCq5MGoU4ahUROFZl0MOori0WdLQ581DT2mZPRbUhkgH3LlYrpWgpMeKc625ONchwZz/WZcP1jJypkeXCEZzBngEYXyKQdMnaYIgGmkrlI3cP/GBdy6dAq3L8/g7vXzeHD7MvCAwPrfM6y/huX/1XjuzAnUuC3QK7OgkCRBLpxv/6mRJaNIwYFFxYNZlQVjARc6ijYIEqDMS4BOloaiggyYlDwmx6qXp0MrS4VWmgqNJBkqlh6Jg0qUAGobWlksR71Lg3qnBhXFcjjNYrisUrhtUlTZ81FdokBNqWq+gUq5HtUO1TwZzK5EXakWLVVmFs7u9jhAMqqk3tbX/LU5sb/VjaHOahzoqmF55/2tLpDHu595vS4MtDvR31LCZF+7G23oa7JjoK0Mw50uHCBJ2E4XBtvLMdBO4XLScncxqdixXgrBP9Zxp/c3FqO30Y6BljKMUoi+3Y3OWhs0Yu704vcWpHl5eb3j5eX1N9/h8v3krd/XGfj7v/3rtJ/+5EdYsewDcJODIcomAkwc8xoKBOlQ5mVAKeJCJeFCLaWRQnxcEFB/bRQCnDcuNLL511Bo0KYVMxWlupIiNLtt6KgtRV+jG0NtJINYy6QQh9orGWBSjmiAFkjzPECSHCIBbHtN8TzIVlvR5DaiocyAespdOQsf56zs7HWU2+qqdzCFp7ZaG9uNN1WaQEZA21hhRJObdvRmdjw6PgEzqUC1VlvnX+M2oq5Mj8piFcqMMpQWSlBaJIXTlI8Kq5I97zKTTnIeCglUJRzoJBwU5mfCpMyBlbxSRRaKCyUYP9ALPJr3VB4+vI+hgU4Umwsgy0tEHi8KUn48pLkJzGSCRMjzkkCjTJDEAFYpSYVKksZAUC3jQCOdB32VMBX5/ETIyGPOimUmzoqFIDMGOZxIZKWFIzNlLzJTQ5GTEcVAmbxgh1GBmjITWmup8YMbnR4XWmpLUe+2orKkEE6bFuVWDcqtapRZVHAUFcCiEaNQIYBWnoMCERdifgoEmfHITo8ELyUUvKRAZCXuZF6qMMUXklQ/yNL8kZ+6E4o0YmxTWHsv7OIolMtiUCaNQpkkHE5pOCrzI1CrjEa9Oga1yijUq/ehpSgJrUXJaDYkoL0oCT2WVPRYUtBlTkKnKQkd5hS0mFIwWKfF9dkT3+DIzSuz6KgxQy+IRkbYeiQErkRyyAZwY/yRGR+EhDB/BO3wxqbVn2PF5x9g6cfvYemS9/DFJ4vgvfJz+G/1xq4d6+G/ZQ18Ny2H36ZlCNryBaJ2rgY3cjNEidshjt8CcewmiGM3oCDZB4W8nbBSiVdeMOyk5JUXhBLhHpQKg+Dg74Q92w+l/J1wCXejWhaMemU4PJooeLTRbGzSRqNVH4tOYwI7x35bGgaLORi2c3GwPBvTdVLMtCpxvkuLuX4TroyW4auTLXh4/SDwgOqKCZCptpjaU17GozuX8OjuFTy6M4f7l89gdnoMY92NGGqvwaG+RpwY7cLFY6P4au4EHn1F7/3z0PU3U/k/vTNzchq9bR62ua530lohtTQF3BYZnGYZXJYCuGmd2NSoLdHB4yRlNSNbq7WlOtQ4tKgt1TOrsmvgtirgsuSjpFDMhGKKCnggK9ZRD+8CxrimZiEku9rgNKC5woTWasprk356MQh4KWfc3ehAV4MdXX/2XJeHnnOgt5FCzeXY3+pkjG3y0FtrLGiqoO+lYzKrFcQCt8oY4DdW6NFeZ0ZfiwMj3W4c7KvCaC+BMYG1A221RtSUKli/caMqA4WKdBiVGSjWZcNpFqGmtACtNQbsby3FaG8VxgfqcORAE6bGWnFwoB51buPdtISwumef+cV2Ly+v556Qvr6vyPodzuupp5569umn/r7l7T+9BkFGHNw2FRxGOawGMYy6POg1udAos6GW8xgwEzgrRBzI81IgzklALnceDPgZERBkRkKUHY28rCjkcsPB50QwTy4/NwX6/GwU6yVw2ZSoLdPDU2FEc5WZeafUPq+HOgo1U26qBF2Nj42838Z5L7ij3oF2YoDWFrOwWL2rEHXkyZKcorMQteXk8alYKUUxaSxr8lCsE8KuF8FhEDNwZRcNm4JdDMjzpQtDTYmOAXFNiRZumxIlFC7WCGBW8WFR57KQMkk+0nEsqlwWxiZJSHlOPPL55A0kQSVMZqYUJqEgNx6ynFi4ijW4cPbkNxe5a5dn0dFaBatBhAJhIpR5iTDIOMyzMCuyYFFlw6bho1jDZ7rQ5HUUFWSiMD8DRQVcpj5l1wtRViRFiUGMYm0e7DohHHoxO79ivRBGdQ50+ZlQPvaYVbIMWAxiVJUWoqWG5rYKfW01zHpaqtHR4GZefXWpGe7iQlTYi1BTZkFViQlOqx6lRjWK9QUwKsVQS/mQ8TnI4yYhJ20fspIjkJUYgqzEQGQn7oQgZScknN0o4O6BNmsvzHnRsEsTUCZLRLk8AeXSWJQIwxkZysan0qhQuOV7USELRY0iHPWaaFQrIxlByikORiU1cNDtQ7eZwDmZlQ7RY48mhoWyD/dU4tG9bwlJpyYHUGcVQcMLQU7UJqSEeCMu0BuRAesQ4rsW/ptXwGft51i3fAlWLv0AX372HpZ9+i6WfvwOln78NpYueRtLF7+FZYsXYMXHC7B5+fvYu526Zm1iamXyND8o0v1YTlnFDYCatxuarN1Qcvyg5GyHIdsfRTn+0HJ8oEnbAD1nIyzZW1Aq8kMZWZ4fKoh1TVrXqnB41JRrnpfapOYTdJ691mQMlnAw5s7BkToxTrYocKG3EFdHHLh1pBr3Zjrw8Ca1VSRZTMoJkwoXlTHdwv2vLuPutTP46uJx3L94HHfOTuHYQAfaXQ7UWDTwOAw42F6N2SP7cWf2KB7doRQAec7Ui/k/f7t+5QKOTQ6hu7WKRa0qHSo4zVKUFIpgo3Wj5MOkyoVNK4TTXDAPzq4itumlyFWPpwxD7VXobSpHo8vI2oeWEt9BlwurOhsGaTrUwiRohMlsbbhMUjS5DOhtdGCwzcnKoKgUaoBAtrmMkbW6PaRnXsrC1aO9NRjf34CJwUZmxJymPDQxpuk+kbnI6DligJ842Mlyx0QyI4IYEc0oBE6vZeVR48Sq7gGxqc8c3s/s9EQfjo914vBQM8Z66zDQ7kZXQzFrpFJdQjKuctSWqdFWS+BOTVeqWL55arQFE4MeVJTozm/ZtDrPy8vrIy8vrx9+h8v3k7d+X2fgx0899eEvf/7P2LpxFexFUtQ69Si3Kea7/FCNIO2Iy3VwOVRwWOQwGYTQq7OhzuciX5wKqSCRWYEohXl3akk68gVJzOOWZMVBkjmfB5VmEZAlQiNMY56mUZENozIbNFJ+loCQvNASw7yHSgDpMEgYUJYUSVFmlLPdeIVNwTxZeq1JmY2igizmqRKIkhlVOdDn86CWcqASpUElTmOepu7rMLwiG4YCHgMwyr1qZRnfaDGTB0xGMoxGZQ5Mqhz2Hekz6HljwdffUwCHQYTSQhFKi0QoM9J9IRwG2gzkwmmR4eBgBx5So/rHt9PHJ9HZWI6K4gI4DAL2PmoZSJ6BTZvLNgMEtsU6EdsMWNR0frkoKuDDrBDAosyDXZUHB5k6D3baNKj5sCh5KMpPh16eBq0sHWq6sMkzYdKKUGpRo7K0CPUVNjRVO1jqwFNZjKqSItgLFTCqxNAX5MGik6HUrIbTqkOZWYNigwJGpQhaSTaUggwU8DlQ5HKhEWZDK8qGXpwDU74Ado0Y5YVSVJhlqLXnw1OqREu5Gu1uPXqrjBiss2K00YGxpmKMeMzYX6VBV6kELdZseIwZaDSmw1OUhlpdItzKfSiVUyvEKDjzo1ChiEaNKgZ1qmg0qKPRqIlBkzYWdYpotNv4uPBnJVIP7t7CWFclKoiVnhEEXtRmJOzxRpjfSuzyWQa/DZ9hx4bPsG39p9jq/Sl81n0Mn7WLsWnNB9iwchHWfvEO1i17GxuWL8S21R9i96bPEB+0Djlx1BlqFxQZu6Hg7GTATCIq2vQAqFP8oE72gzbFH7pUsp3QJO+AJnk7ijJ2wZG7F25JNKoV8ahVJ6FOl4J6IxeNliy0FPPRastGi4WHNisPXfYc9JXlYahCjLEaGQ43qnC2x4QrI+W4dbgG9061Mpb1o6+mmNIWcOMxINPv6zbw6Doe3J7F7YvHcO3UQVw5PoK5qSGcOzyAQ70eNDoNqCtRo6PWwkqZDg0248LpQwzM/yNgfnTvLvDwfwTtB3eu4+SRUXQ3V8JDBLASLarsalZPTB5uhVWBaoca1GikrcbCvNxyk4ytVbUwhW1mFblJ7HGZUYIKqxxVtnxmlVY5KiwylBvFKDXksfsNZRo0uQ1orTKihdjTVUa011CY2ooej52VRlF5VG9zCfa3lmO4swKjPdXfGJGwDg3U4yiVY41Ra892nBhvx8lDnaC87+nJbsayJmLYga5K9DQ50FlvY8cdbHeBWo1S209G/Bpswkh3DfPQ6dya6TtVG9FRR9/Hgr6WEozvr8GpyXZcOjWIa2dHWG761GQnjgx5GGGstlx3PzM1quN3v3k2yMvL6/dPvOXvK7J+h/Ni3vLTP2x55aXfIT1xL9x2JUpMUlj1Qpg0ufOmFcCky0WRNhcGVQ50xPRVZDEmMBGCzFoB7IXzzF4aTSo+y7NSuFUtSoNGks5YwaQ1TEBqIkBWZMFEGsRKArocWNR8WLW5KNaRdGIee1xIQCrLYEahLZNyXrOYdJHNqvn3WTUE5gLY9Xks71taJEFJkRgOEiIwCP+dUaiszCRlYTMXtRc0y5g5LQT4+XDbClDlUKGuXMdCXJSjaqqgHLMOlXYly1/VlKjhcRlYGKyzgcJo80YXibYaE1qqyDMoxEBnFa7OUT/a+dv9u7cxMdKFencRbNocFBVwYFJyWa6NPGKdLB0aKs+hsHbWPoi5MRBlxECYEQNBWhRyksMh5EQhPycBalEKdJI0qMUpUAiToBQmQylKYV6ySsKBSpoBtYwLjZyHQpUAtkLK11OI2oAysw52QwEMBQLIclORmRwBTuJeFvUQZsUilxuJ7PRw8FL3gpscgsykEORmREHGGklkwkykNJ0YpcZ8uK0a1JYUoslpRUdNKfo9VFNajQPtdRjvo9pOIrl0Y/pAD46P9eHUoX7MHOrDmfFunBlrxZkRD84MV+NUXzmOtlowXKNGZ5kYTdYc1BZmwK1ORnlBAtzKBFSqklClTESNOhEN+nSMtZTg3p8x3WdPH0GbWw+TNAF5iTuRErYZUbvWYc+OlQjYshy7tixH0I5VCPVfh7AAb4TtXIu9/qsQ4rsSof6rELFrDWIC1yE+ZD2SwzchY99W5CbvhDhtNzNp2m7I0gOhzAyFITcKNlkinFouqoy5qLdJ0VSiQFOpCnXF+agvUaK1ysRylURgolaSJFZxfmoAs9MDOH+kH2eo5/N4J84c6sTFo324emIIt2ZGcWtmBDdODjG7dfoAbp8bw1dzh3D/+jQe3aXfE5G5yEumHDLZVwyU796axc2547h6egIXp4dxZqKX1f0S6cnj1KOYOnQV8JhHW+PQYaijFpeoJ/gD8rrpOI+Y5/zw7nXcnJvB1fMncePSeeDBf5+Hvof7Ny7i0ulJnJrYj6NDrUy0Y55c5cL+1jLGVKacK4HcSM98vpVyskOd8206KXRcbhLDop7PQ5sVmSjW5LCOXQTILrMUBNA1DiUanTo0uwvR7DagoVyLGlqHVlqvUlQ58uFxadFRb2YhY2oDOtJTwfK7B7qoXtnJ8r/zeeJidHms6G12sLwwfb/9bcQtKUZLdSFqS2l9y1FdUoAGlwatNUXstcNdLoz1VbH+32N9j8G+txqjZD1VGGgvZ5/fVKlDY4UGteUkeiKC2ypElUOGpgo9uj129DWXoKPOAgqXi7Pjb6xb/pnmL/7iL5Z6eXn9+Dtcvp+89fs6Az/+8VMf/uLn/wzvtV/AViRlwFFqkcNeJGGEI5tBxEZ67DBK2fMWbR4MBVnM6yQQpnAx5WDJ07VrhSjWCGBTC2DT5LLQrEWdDbOaQJXyRnwW9qp2FKCunEBOhwanFpXFBazhPIFWsZ4Pt03Ocj+t1UXobbLjQE8lK1EY6a4ELTpahLQ4aCfMmJtDDTg81IDx/hoMtpUzsgWFvshoV93dQHWTlN+mukuqWZzfeROI0uKhXr70ParsBSwMRTmzujINGlxaRj6pLVWx3FOVQ4EqBwH4/OtcFhnKTGLWU9ggnw/BUXlSZ1MF7tyii9787djRcUayUoqSwE/dg9x0atAQClFmOMS8CIi44SCRi4w46lTkj7R9O5GZQFKSYRBlRrM627zMCORywyDIDEceLxKCzOjHaYQY5PHiIeOnQJ6bClluMqT8REb44mdEISc9CkJePKQ5SZDyk8DnRCM5ZjdCd67H1nWfYt0X72PV5wuxZtkibFi1GDs2fsHIT2GBW5AYvQfinGSYtEJUlWrRVG1CS40FnR4HC98d7PdgerQLpycGcX5qFHPHD+LqzDhuzx7GV5em8dXl47hxcRpzMxM4Oz2E42MdmKSLWrMNw7U6HKgqwMHqfEzUyjFem4+JehWmWgsx1WHFZJsNB1tsGG0pxkiLA6OtpRhrLcPRvlpcv/BtioBy+NRvuUSfC2FaCBL3bsZev9Xw3fAZ1i9/Hys/XYDlS97EtrVLEOq/GqF+a7BnxyoEbF2J3dtXY++uDYgO9UFi1HakJwSAzwmGlB8FtSQJhnwOLOocFqGpLtEwL7CzzsqEMsZ6qph4xhCJaZDKVDuJaVTiQGcVU5uiMOfpiV5cPjWKW+cncev8Idy+MIm7l47iwbUTeHjrLB7dp77GlCOmkDzlewkkyUslI7D8X98e3b+N67NncOrQAYx1teJAawO6a8vhNORDm8dBPjce0vRYKHlJsMj4qC/WY6S1Bmcn+3kJCyYAABNGSURBVHF15iCunh3HueMDmBpvZetsqMuNqfEuXPmz/D19i3t3ruL8yTEcH+/E4eFGTOyvw0R/DbPJ/aSuVc0A7Mgw1f162P2vSVK0LqfHmnHiEHmsLZgcamDA2VZrQl2pmgFxVXE+GsppjikvrUVLpQEdtWZ0N9jYeu5vLgEZeaUEqO11JrTVFqGjzoTBjjJMjTXizNEunJkiJa5mjPa40d/qQJfHgva6IjRX6VFfrkKFTQq7PgfGgnToJcnQipOgl6XA9DhHbNVStIw2yykozE+Hu1iGTo8NB/fXYvpgG46Nt2Fy2IPBThe6Gm1oqzOira4IbfXzY3M1kUXVqCopgLtYzjb19S49GlwGikI+5KVGDb/w+99Eenl5vfak5/L3FVm/43n9+EdPpf3ut88hYd8e1LoMcNtVsBeJYdHnsVxoiYmk8GRwFElgp7ymfj70Sl4t5TvJQ62w5KO6WMmskljTZgpLKdgia6ok79IIWoDkURIgtlQVormqEPUuLWNZFuvJA86ERZOFkkIBnBYJKu1yNFI4tMnBFvjxg604O9XLCvopLEQLn3bEPU12ZsSWHO0hEQEXuj02tqg9zvlFTuBOi7uv2cGMLeoaI7sA0AahsliGKod83uw0EuOzgBndp4XstIhRbhKi3Ey7YQncVinb9ZcYhCx0bdNSXpjKpTLYXJHIxde3B/fuYGyoE1UlOhgVmdBJUqCXpcIgT2M9fTWSFMZapc5FEl40RNwoSDKjIc+JQ0FuIgqICJaXiHxhAiS5cRBmxUDAi4aASqR4scjjxSE3I4YBMBGyslLDkZkcioykYHASg5GRFMKIYEQI46WGITU2ENEh2xDkuxY7Ni6Dz7pPsXHVEngv/xDrV3yEzWs+xY6NyxG8cwO4yZEwakSoLDEwghjpTzdV2tDZUI6+lgr0t7oZUY9EGQY7XJgebcbciUHcnp3AzQuTuDQzjtkTY8yun5vEVxcP4/a5Udw82YMrRzyY6jKhzZaJWm0ymo1ZGK7U4GSPE2eGanD2QAPOj7di9kgXLhztwYWpPqaYdOX8FPDoW0/u8uxptFWboRMlID1iE/buWAo/7w+xafk78F62ABu+fAcbVy7EhhULsXbZ21j5yRtY9ekCrP9yEXb5fInYkG3IiNuDPE40lIIUGAtyUFaUz9o/epwWtFTa0UpVBBU2eJxmtFYVo6/Jhf10/i1EVqxkPZ5JfnFqhJSjOljekkpqqIzm9oVDuH/5CLMHV6fx4MYp1jrx0X0qQSLv938MF3/92/nPjPdv38DZ44fR21wFt0XFIlEKAVUKREGSFcXUyhR58UwUhn53FKlxFAoY63neo7MxVjGxiScG6nDsYBvOHh/F3VvflkjRfJ+aGmZrbn9bGWiDTBth+n8fG2th45ERD44ya8TkUB3G+ioZYPY2F6ODwKumCO21RrbRHumuwCEiRA17MDXazN5/eMjD2M4UEv56w07XDlrn9LrTk1SrTKDbiqMjVJfsYceg7z2/AXB/U1vc3Whnoe4uj41dH/qaqK+2He1VJrQ4C+Ep1aG+RINaCsFbC+Ayy1FVrER9mRYetwHtdVbsZ2HsBhyl/+lB+twenJzox9mjQ7h48iCunjmMG+encPPCFG5dPMbuz50cx4VjI7h4YgyXTo+xmuhr52jzM4az0/3oaiq7kxYfXvzTn/5orZeX18+flEh9RwD7Pr6dwtg/+aenW5Z8+A5kgmSUW+VMcMJOudIiEcotMhCxg0qFKKzbXksX5PmcDuVgmisNzKMkr9Lj1qG5yvB48ZFerfkxYLoYkeLkoW7MHOljZAsiXRw50MzqEcm76PLY0eguZDafs6Gd8OMcUpMDA63lGOpw4UBnBSjnQzkgkt6jsHET83gNj8dCeNx61Du1qCtTs1BYZXE+nBYpqI8u5YLLzRKUm6VsLC0iYhgfVg0PJnUmTCoiWHFBO2ZHYS4DYWJYlpooTJ4Le2EuXDYJ6spVzJunEDeFtiupNppqOotEjFna01qFW9e/VaKauzCDruYKFu5Xi5KhEVEv4UwWgqeQO4XYKRRPYXkK7RsV1G4wA1px2nzThdxExt6mmuR5tjapUqWwcihibFMunXLlRPqikeqWqRSLGNrkMWelRYKXGsEshxPFwJwIe5kpYchM3oustAjQ8+RZZ6dFIDOFGN3hyOZEQyZIg16RC1shlcNp4bYbUFtuRjOBVQ1JMVpZnq2txsxClyTIMHtsBJdPHcK5qRGcOXwA56cO4srpw7g7dwIPr83g4Y3TTFHqwdwYrh7rwsxoPaaH63FspBnnjvTg0olBzB0fxKWTB3Dj3ARuzx5ldu3MJOZOHcJX18nL/PY2dWgI5aYCcPbtgv/6T7D64zexdNHL+Oy9l/Dpwpfwybsv4ZN3XsTH77zI7n++6BV8ufh1rP38LWxe+T72bFuBjLhAUOqFeA1EBmx0m9FSQRu8YrTXlKCtpgTVdj2cJoqkFKKjlqIxRESqwkh3Hcb7iVBEco0trKb27NH9uHrmIO7MHcbdS4dxbeYALp0cwq2LJDBBnjL9Pr4uWfraO6aRPGbadHztPX97nv/Rvft3b+H8zDQODnWiv6MGHQ0lLN1S7VCCiEg1JSpmFAHyuPQsdzo51IhThzpZXS7JQ56b3o8zR3owc6QH508cwI1L1LTiW4/91tVZHD7QykhMlLOdGKAIVSMO7a9jz1FomHmyTXa2MaYUD0W66DliJpN1N1JlhembXCyVIw11kEgHhcAp7EzlRlUsAjY10sKuESPd1Yx13VFvYyFhktmkPHIvkUQ9dka4ItIVMbKpzIlC50Sumh4jha520HHoe7J6ZhIz6SIVsTqM9dQzG+/zYGI/gXwrEzE5QSmGo/sxe2oUV89N4Oq5Q7h6loB1FNfOjuL6uTHcOD+OW7MTuD13mP1/b5MyGtuIjrO/Xz49jNljAzg31Y8zR/tw7mgfy2eTXrZFJzny0aJ3kr28vN728vL66+8jrjw5p+84A0/94z+m/eoXP0OQ30Y4zXK0VBnRUWv9d6UFlDuiHzYV+BNbkViQbbVUqmBBT6Od7Wapfq/HY0WXx4zhznK2Wz4x3srCVZTToV0r5VhoYbbXUh52PnxMgE4eNZE2KDRNRl5tS2Uh6ss1rISBQsi1pVQqoUFduYYBLj1XU6JEtV3Bws5um4yFvt2Ue7LK2HMUknZbZcyrpXwWA+THI4E1ATeFrwnY6bPo4kXvKTNS+78cFnIn753eS8f5OsRdUpgHm4ZKovgsYkA5a/KaKVxvkHNg0+XNl0g99oIePriHkYFOVjNMuWBpVgwK+PEMcDXi1HlFLsq9K6i2k8pESGSEyq/SWS6ZPGY5n1S2EiDOiWM1yXxOJLLTwpGVGsZGATcaYgLt3ARWbpVPHZSEBNwp7LGEHwdxTiyrRc/jRSM3g8qpwlgOmZMYhPSEQNCYkbTnsYWAm0ylVpHI4cQgLzMBUj7JUmbDopWiwkbpBxMTk6hxqFBpk7P5pDrRqdEuXDt3FDcvHMOlk+M4MzmAE6M9uHBkCDfOTOLe3DE8vH4SD2+dwsMbJ3D70hFcO38IczNj7EJ469I05k6P4fihbpw41IMzR/fj7BQJO+xnTQJIE/v+VwRo87e52XNwOoqQFhcMn7UfY/nHf8IXH/0Ryz58Hcs+fI3Zlx+9hpVL3sDazxZg0/KF2LziPWz88h1sX/cRwgJWIyN+F1TCJEbco02Wyyqf5yJYCxhbn0rwehrL0VZT/Ki9zv6ov8X9aKij5tFoT/2jyaGmh5ODjQ/7msofttdYH472VD88c7T/4d0rxx48unP2wcOrJx7cnp18cOX0gQc3L0w+eHT3wn3g2n3g5n3gzn3g3v35RO69e8DNe3h05d7DexfvPbx/+R7wFbGv7j56NG8P58evHj58+NXDhw++evDg/le3rs99dfzoyFeeKusdo4Z/R5efccekzrlTYVXdaa623Olvdd3e31Zxm8beZuft3hbX7ZGeuluHBppuje9vvHWw38NsfH/jzYmhpptHR9pvnpgYvHnl4jmaZLIbjx7cv3H+1OEbhwZbb0wOt9w4OtJ+4/CBtutjvfXX+1pc1zvqS6531DuudzeWXuttKr3WUW+/1lhpvtbgLrpW5yq8Vl9uuFrvNFxtcBquelxFVz3uoqsNzsIrlQ7tlaoS3ZUGt+lKe0PJld5m95W+lorLnQ1ll5sqLZdrnYWXG1zGy01V1kutNfZL7XUll7oaSi/1NrkuDXRUXxpor5rrb3HP9TbPW19LxdxAR/XF4d66i2N9jRdH+houDnXVXtzfVnWx2+Ocbal2zNaVF81WFOtmK+262Zpy42xzTcmFTo/zQleT+0J3s/tCT1vlhd6O6vNdrZXnO5rd5zsaXedbPc7zLZ7Sc62esnNtjeXnWupLzzXWOOatrvSsp7aEWSPdr7GfrXGbz1aWF51xOQxnXCWGM0674YzNqLggF2ed3OW/1fizn/1k3ZOey98RvL6vb3/66aefefqpf6x6e8HrVwXc2Ksus/xaqVF2zWkpuFptV12tLdFerSnRXnVaFVfLTPIrdWX6K81Vlist1ZYrjRXGK7VO/eWacvXlWqfmcqVDcbnMJL5s0WZfLlRmXDIoOJdoNKq4l8xq3iWLJvuSUcWb08lS5lTipDmtLHXOUMCdM2uyLprUWReNSu7FwoKMi/r8jIs6ecasRpoxq5akz6rFabNaGXdWn8+bLVRkXyhSkuVc0Mu5FwqEKRfyBSkXFMKU82oJ57xGyj2fn5d8Xsjbd56fHnUuOzXsXC4n6pwkO+6cQph2TiPlnFNJOGcVorSz+YKkszJB4llpTtJZcXb8GREv7owkJ/4M3c9JjTyTmRB6hpsQMpOREDzDiQ+e4SSEzHAT985kJoXPZCaHnU6NDTydFLXrdErM7tPp8aGnuUmhpzKTwk5xk8JOWfTyU9NTh089ePDg5CPg5LGpiZN2s+Zkdlr0yeiQbScj92w5sW+v34mECP8TKfsCT2SlRJ7IzYg5kZ0WdZyMz4k6npcZe1zIiz8u5CUey+XuO8ZNiTiWHBtyLD5q17GYML/pvUFbpgP9vKf9fFZN+29dM703yGc6JjxgKnFf0FR8VOBUVKjf0fCQHUf2BvkcCfRfPxngu3YiKGDjodBAn/GwPVsPhu3ZOhYcsGE0aKf3SKC/94GggPXDe3ZtGNrtt3bQf/uqAd+ta/rJ/Lev79vpu7HHb6t3t+/mNd07fNZ27tq2viMkYGt72O5tbeGBW1vDdvu0hAX5NCdG727K4e5rVEgyG4xqUYPNIKu3aiW1WllWjUrEqdHKeNVGZV5lcWF+hd1UUOEwK1x2q9JpNyvKLXppmUklLDUphCVGlchh1UntRpWoWJGXbhXx4q15mfGWbE60KTdjn9FZajbOzJwqfPDwoeHKlSv6ErtZt9Nvs/aDd1/TvPyHZ9SvvvCM6vWXn1UueP23inff+F3Be3/6Xf57f/q9fNGb/yZd+OZvpe+98VvJwjd/I1q04PfCxYteFq5a+q7Af8vK3IigLfyYvb45cREB2bFhO7OSooN5nOSIzMyUaC43OSojPSmSw0mMSs9Ki0sT8uJTBLz4lLyspGRRTkqiMDs5gZcak8DnxscppVmxZr1sX6lVE1Nu00aXWVVR9sL8CItWHFFm1YVXu4x7q5zW0Ioyc2ilyxZcUVG8p6rKEeR2W4JcLtNup9O0q7zUEFBWZtpZ4bT4u912P5er2NfpdOwod5dudzqdW51lZVudztItrjLb5lKrfpNUkL4pMsR3Q8CWVet3bF7hHbrbZ11KTODajKTwNemJEat5SVGr0hOjV/LS9q3ITo9dnpcR/6UoM+ELQWbCUjJhVtLnwqykT8U5CZ/IBZmf2Aq1Swb7+hbPzMx8dPTo0Q/bm5s/0CrF7wv5yYvyBdz3ZHzOQhEv+R1ecvQ7aftC306OD3srOS7sT8lRe/6UuC/kzYTwXX+Miwx8PTLU//XIUL9Xw4K2vRIRsuPl6L3+L0UEb39xt6/PC/5bvH+za/uqfw3y2/x8YOCOZ8MDdzwb7L/511u9vZ/ZuHHlr8i2eX/5C7+NK36+ZcuafyHzXrbsZyuWLPnnTz9996eLFr3+kw/feOPHCxb8/p9efPHFH7388stPkz3//PM/fPrpp3/4ox/96B+9vLz+4T9pf+fl5fVfbX//uM/yXz7JK39fUfX/wHn9wz/8wz899dRTr7//zpuvB27b+Hp4wI7XQv22vBqyy+dlsr2BW1+KCNj+4p6tG/7gv2UFW0Q7t3o/t2Pjqmc3rlr17Jo1y37t7f3lMxs3fvqrNWs+/KX3l4t/seKThT9ftOiNf/nwTy/8jOzdd1/56buv/OtPX3/9Nz/5/e/nF9CLL/7yR88888zTzz777FO0gMj+k4vn60X2X72A/neOT2o9/85++ctf/o23t/ffREREsJEe//ev+S94/FdeXl7/LxldfP5L7IUXXvhLb2/vb4we/08+i7SH/1+x//a4LOb/7/H/wNXjySGezMCTGXgyA09m4MkMPJmBJzPwZAaezMCTGXgyA09m4MkMPJmBJzPwZAaezMD/zRn4/wAFAWroxKgR/gAAAABJRU5ErkJggg==;" vertex="1" parent="1">
          <mxGeometry x="310" y="970" width="487" height="223" as="geometry" />
        </mxCell>
        <mxCell id="eUHkU5DuMBoQhbZaylSi-266" value="" style="shape=image;verticalLabelPosition=bottom;labelBackgroundColor=#ffffff;verticalAlign=top;aspect=fixed;imageAspect=0;image=data:image/png,iVBORw0KGgoAAAANSUhEUgAAAOkAAABQCAYAAAD88lJeAAAWpUlEQVR4Ae2daXAU55nHtd5dr+NNbbzxVq7aJB82m3zIltfJ7qaSyp61Se1+2Uo5iY+A5tAJ5obgA2Nj2QY0PZrRgcRlDiEINgYECGmme0YzoxMhAQIJSSBASEISukAInaBrnq1/SzMrszhm3u6ndu3prpoaIfT++u2n3//bx/scMTHGZljAsIBhAcMCj26BlFzrE28f+XXWumPPPf3orT75L/XmYU8cTE7uJ1vH+J+osYBvOOdphy9ugySbbqXKJhL+uE2UcuxF2nDkeUrJf5FS3RpY6IfePC4mM/fdEy9RqjtW/Lw8eE7dJtKdOW8fNtkUtMum8qgREPeBFnSkfCPdF79JUswtGb5Fk3tOvU55p9+K+JN76g3adMKkChQi3VK8LGLG/P3qzQObg8nLXU+pJy2qTWHbvKrIz8t8m872VX8muLsqXiGHNyE8kUiy+Tz32I0K/oGmlO84vPEOm2y5vqNsVfBUaz51DDXQzZHLEX2u3qqhdPcSdTC9ffRFKrnyYUTtH9yf3jzwOZic3OsDtZTtWRme9DyNuZpsir5yMMG9cus0Ha6VKM0Tp9792BXzuXR/YlxUiIjzIHPPrHrW6Yt3Soqld1fFWjrdfoImaIQi3QZGeijdNSvQd/J/Q5dvnokU8bG/15sHOAeTkzs0PkDZyipVoClHX6S69rKP2UjkHxxM9GOGJqiu20e5VW+QTTbftyuW8qyS5MRuOvck5/j9XLOJ6PG8hrXPpHmsW+2yZWJX5at05kYREU1FfO5777aTdDJRHUwbj5uota8hYsb8BnrzwOZgcnI5JhQOJmwwTeNU111M20tXUaocOyoplorM0uTniaq+8LkWEefBEdGf7Kt77fuSYimSFAvtKFtN9T2++Tp55J87bl+hzSesqkBTC+Koa+DaI7d92B/qzcM+OJicXI4JhYM5e/6CVHPjJKV7E4I22TQuyabynNJFPyeiP+Icw5979o5Tq34iyZbTNtk0uSWwhDqGGx+ml0/9XUtvPb13LFYVaFphMvUNdXxqm9/3B3rzsC8OJieXY0LhYIbOY1HDNkrzWMkmm6bsHotnV/Vv/46I/vBzLyKuA8QVNKs06TlJsZTZ3Kax/dVvU/+91pC9I/pu6qwmPHviDW6GexndGe2LqP2Df6w3D3wOJieXY0LhYMIGozO36UR9FmX4FqnPoGmK9eDus2t+QNRp3OKKCvg6Hf5SZiDRDIFKsnXseF0mdY9eeVArj/Tv2rYA4e0tBJrjWUPD9+48UrtP+iO9edgPB5OTyzGhcDBhg77x61TYsJUyfMm4gt5zFFu3zF1BHxcdn1HfrmY45+mMQGJyqiv2XLo3cfJorVNdihgc66dIP/7GD1VxQqDbil+hnsH2iBnz96k3D2wOJie3srmA3j4yO+llySup606LJpuirxxMcJv7q6mgfgs5i5NwBe12eq3OPTVr/jbqRabFAK5++9cy/fFJkmyug7CMj2EDrWNAcluCkmxuwdp6Qd+mr2oZn1Hf1jOy/SuZJcmLsAaa5VtsCNSYpHQZA5sLF/am++I2NNHhL0a9yLQYgIieSPfHvWdzm2ec3kQqvryXBse6I76NujPaSx+eSguf3ENVDvUlEW59RD5689AHDiYnd3C0n46dyQnbNK98I90eifzcfMz+HMy5c3ypr5Jy/Mso1RUbTHWbepz+xJd7yfOnWsZn1Lc9cXPjN+1ea65NNt1O88SrXkRBASeFqelJOlgphQeT+0IuEQU/6f3Pp/5ebx52yMHk5M4Ep+lozZawTSHWYHDmU233+/6AgxnaX32Pn7aVriC7xxKUFEtjVlnygjY6/hQRPRb1QhM1wN7Tq37omBVoX07J0iCMPEVjIZs/8vf9qXHKLU0JDyZ/46FHbvuwP9Sbh31wMDm5HBMKB3P2/M1QVdsx1WEea6CSYj6VVbb4hZLhnX8hOjajvh3WQHecWvrPad64vbiCwofyYm9AyM1vbGKYdvpeDwv09FXXw3T3yL/Tm4cdczA5uRwTCgcTNrhPd+lU6zHaBjc/l2laks1KZiDpVxco96moF5qoAYjOPbmjaum/2xXLB2lK3BCcFBp6Sx5ZRPP/cHj8DmV7VqsCxVrohbbS+f8d8c9689ABDiYnl2NC4WDCBmPBATrVepS2+JcgkmXc7rEUZgUW/YKI/lh0fEZ9Owh0a+WSf7MrlgKHN2Fqf/UGarlzNmIxocHASO/HIlkudWmNZNGXx9HHkKH0PvYQl2NC4WCivxBo4OoB1YtIcpsGbbLF8/6Zlf8Q9SLTYgBEsmw/veyniNuzK1bCFVTUi6j37g2yFyapV1BEslzvuxgaZ0LfevPQCQ4mJ5dD+BxM2OAeDZKrcQf8cIM2Ofae3WM9mt++6etaxmfUt12f/8tvO4vjk1JdsZ022Tx1oDqF2gbrhJZFLnXV0KYTs5H/m09Y1FjQj73ej3C5RW8e+sLB5ORe660j28kEddJDEEL9jQqhczP/PHAwwb853EwfnNlEdll1lB9P88Vlney2fct4g6thmkEgrVavEaO94Xn0sDGQ5o23HWh+9XtGqJkGgeZfS/lLpy9u3cMMbPzOEJ7WMfD+mVXPGqFmggLFrcfBS2/+dbov/g2bbG7J9L08U9SwgzqHLgndRlVeOTnPqXuFGqw9/9Yq0p/15mH/HExO7tnrXko5+pJ6i+soWkztt8TOzXzbczDBv3CzmPZVvQUvoulUd+wVu2KRsssX/zSGYv5AcIhGdzO8/s67vO67acXxKTbZfHNb6UryXcmjIE0KvdSpulqkDiTMujv962h8IvKcRvN3rDcPbA4mJ/d8W8m88L3V6jLRfBuJ/MzBRHqcawM1tKvyFYSZBSXZdDHDn7D2Ih388+hWmYajx7PB4abX1Wx+kmK9uyWwVF3HEjnpaFPSdDgs0NzSd2hi6p4oSm2nN4+jj6ED5Ogr2BwTCgcTfW3oK6WckuUIM5u0KaYbyOZnvCDSIFA0xTNomtdywOY2TeQElgQvCjopwOfWdWFvWKAfnLLT9IzYlXh20OvNA5WDycnVf9JDb7kmE+QigpOCTTaRpJiv7qpc82Pj+VOjQHfXr/0bNVmY2zS4q+JVNa8pkidGusEBO78mOyzQ/DM5hN+Jbnrz0A8OJieXZ0LhmaSQbrOs5ZB6BZUUc1BSzMrWiiX/aKQ60SjQ7PJl/2H3mF122aK6+eE5AskTI91wtcRVM/TWD1dTLZEsevNwPBxMTi7HhMLBhA3gh+u/kkd4j2GTTaNwHd1WsfxnRG1PaByi0dsccXpbyhb9Ur2CypbpQ+dShd388LyJ586QQLVGsujNwyDiYHJyOSYUDiZscHeym3zN+9RbXNT3sStxeQjCQDBG9CpM45EjDCi7POlXSC6cpsTPHK61UdvdOtg74g1vbPHmNiRQvIjQsunNQ184mJxcjgmFgwkbDE50kefyHrLDzU8x9aYplr27q1b/yHgGFRQp3q5VDe3+clpx3DKby9ScpiTMYA2r/e5FoTVQJKjOkleoAkWCK6w3zl97i/RnvXnYPweTk4uEa9u8a8OTnr/xI002RV85mOB2DjXRR+ds6hKLKlCPdXde3brvCg5PoxksgFtcJAsLXfWMb8NzSOsY2FS4kOAon1ZszbhG7j8zlKbBAlhETvcnvo41K60nxmhviDs0BjYWLryX7ktYWUN5TxvroBoE6mqzf83pjbeh5GCOf+l08eV91DNyVeg2ClXMEMGCk4SIFkSN4NZH9KM3D/3gYHJykf1dCkeyLKT6G+XC9gydBw4m2Gc73LSn8g01kmWzy9SKZGGoOatheBpN8YyAxMI22dy2vWw1VbUdV2P6RF7uIPYTMaAQKGJCEXepZdObh75wMDm5nQNXCQWoYFMUpOq8fVWLSdW2HEwsyyGPFQr42mXrtKSYqzICyclVtPvLhsoELYC3a0jJ7/DEpUuK5e5sTdACmqRRoUGAK2aoJku6e6maXUEINNdIbx6wHExOLseEwsGcoftqTVBUZUdtH9QEhZtfP5UY+XAF9RmDBWSk5MfrcJtsDqJ0+WxNUDFZIf9QqCYL8hIhrYaWTW8e+sLB5ORyTCgczFmBFlN2YCmlyibUBC3D8p3hRSSqzpiYGESyoKo2XLIkxTwFH8qm/nJhTSGDX+glATL7ITGVlk1vHvrCweTkckwoHEzYoLzlMJzk1YpmkmypQJ4r4wWRNoE+tr1i2b9KsrkCpcp3lK9RK1OJiqqk6UhYoMiNi9SOWja9eegLB5OTyzGhcDBxBS28mEMObwLWQZEPV5kL1Day+YlqFLcfc15EZfCd/OhcKvWOXxfUVJDc8yJZkF0eyZHFN7156AkHk5PLM6FwTFJ3J2/SyYvZlKnWBDUF8diExyfDD1dUnTExMXiAzyhJsuKB3ulJGEPJuJsjl4U0hVIE8+uHoFQBnLJFN715qox07mPo2Dj6OsvmmFA4mES9Yy1UpNYEXYQws0GsDOwzqmprUGdMTAxegWf6k5LwSjzLt3gaBu4dbwmNu4i+/5cD9vk9+kayaOThYPTuY8hAXFwO4XMwYYeukctqVe25mqBtEChS6WgboVHeGovImSWJCTaXqTXDu4iOXcgQ9sPtH+qk3YE3w8+grvN7NC2o683DQjoHk5OLCmaoZBZ68YY7FFQ6CzkciHxzMNGPy/1VdPDMRpJkC8o9tMD5BTVno1xi4oePt2uIZHEGElfYFPNIaBAY34a7ntYxsPHkglvpxfGvG7mIxPWptjxHh79k91oz1QzgijU8U2s9QUZ7Q+Sbi2J3GDVBNQoU2fwcnrg9NtnU5/DGB891ykJFe3GLc+PWZXIWvayKHCkiz1z3aroV05vH0cfQLSZHX8HuutNCWfJK1aZq+F5zgSabcjHBxRpoTmA5pbosMza3qdnuiV9e0CF9w1gHFRQp3PwQTKt6ESmm3p3la9RkYdMkloWvb6iD0gqT1cGE8gRwyNay6c1DXziYnNw7o32U4V6m2hQulE2d1VpMqrblYGINFD7ccBVNdZlmsK6O5TujJqigONEM61Pbyl/+F6SlsMvmW3ByvtiDmqBi1bARCD3fqbvj9hVNg0lvHjrDweTkckwoHMxxGlSL9qImqM1tnkZ+K6TRMW5xtQq0YvnPkNjJ4Y0fRUWzpv4KYVG19jU8EMnSLsxCQ715XExOLseEwsFEycGK60coO7AMXkRDdtns2lqx5D81DE+jKbyIZksOWmQ8f0Kg1wdrhUWFOMtwJItrCQ2M9Aiz0FBvHheTk/tZmaRma4Lup/TiZEJNUCSgQypXQ2UaLKCGmlWu+TGSC0uKhfKqN1DPmJiTAgbphfZSSjn6ovq8lK2soqHxAfxaeNObh45wMDm5n5VJaoJGVDc/5MJF8nO7x/o7JEPXMDyNpni7luFPsiLVid1jnfyo1kaDk13Cgqq+5lbFiSWWHTpEsujNw4FxMDm5HBMKB3N4uo8Ond1MTm8ibnHvOrzxjsNNKd8xSg5qmGdUN79A/CsocINCN6iKDIdn0a300tGwQPfqEMmiNw/HxcHk5HJMKBzMzuEm+uDspjmBmm86/fEpWMJDOKOGIRrdTfNbN34bycJSXbFXnZ6EaVfjTmq/2yC2zjbaTyfObgsLdF/Zu3R7uFuMhRxGevO4mJzcsX5S6vLCNn3f/wb1DXWK23QuNxQHs+6mjw5Uv0M2t2UGJSxRynJOoI9Ft8oEjx7Pn3BkdvoT18Nv0vD8MTx/9BoDG08u6EAxaOMZVFCcaIZngwP1r37P6Yt/1+629KCWhl4nyOAYYt9cFLuvm849qWGIRndTvCA6ef3tb6V54rIk2TyOPDIoGxdyXYv0u3+4i3YH3gqLvOj8bmEW9q03j4vJyUXUyf55kSyoGqdHJIveTNjgdFsBZfuX0mbXwqlU18IOZ3F8UkrhfxkC1TLNINQsTTHnw1F+W+mKYINwTVDUOxklPCOFrp6nrpwUfdekttObBygHk5M7MXWf8Cwfsqmv4QNNNkVjDia41e0FtCWwhCTZTJLHfBbr60T0uJbxGfVtt1et/pHdY/Eg+n135Wt05Tb8PCOvCYoTNHJvkLZ6f6sOJmT1q231axpMevM4+hg6QI6+gs0xoXAwZ2iSSq4epK0ly5FJYcquWApmk4UZt7jCkwxef2eVL/oFPD5ssnl8f3UKXRs4K1QTFIPpQQfsxs7TofEr9K03j6OPoQPj6CvYHMLnYMIPt7h5H20tXaG6+UnhmqCGQIUFeoFyn9pSkvhru2KR4dyMkoMtdyBQsQ2ZCv4nkmUhtfSKlS8M7V1vHrgcTE4uh/BZmBOdak1QuPnZZNNtu9eau61m+T8ZNUGF5RkTgzCgrEDSC8hF5PQmTsELBIvNolvXQMsDkSzNoii1nd48QDmYnFyOCYWDOTjRSa7G7RBncDau2Jq79/SqH2oYntHdFG9w2+j4U1mB5AWSbGnMKE4Moqr2yMwtYVG19jWGI1mkk4lq/UlhmBrJoi8PfdG7j6Hj4+JyTCgczDsTnaqbnyRb1Cso4os/bFn/zehWmcajR5xeRiAx2SabujDzIZ/pNIknmb588yy9m79AfUnkdL1MWCLQsunNQ184mJxcDuFzMBFgsa9qvfoGN9VtnnF64jYS0RMah2h0N2+iw190+OI2pLpjbzqU+Gm5cRf1jLYIr12i1H0okiXTvYxQPQvrY6IfvXnoBweTk3uu1U/vzE16jqJF1NbfJGzP0HngYNZ3B2hP5TpKU+JQNKk3K5CY7BnZ/pXoVpjGoy8YzfwqIg7gNxlaZzO+DQ8grWNgY+GCdlRrN9JtahTortqVzziK49JtsrkbNUG1nhijvSHu0BjYVBS7s2Y452mNQzR6m8PDAzVB4eaHgkkoOXi6vYBujwlGSqiRJ9vDIs8tfUeHSBYdeeGIE52ZnFxEstTvD9t0NpKlQ/Mtrt5MjJmqthO0rWQlpbpixze7TDVpsnUNqrZHr8I0HjlSneSdXfMD5CKSZIta0QzpNkU3lBI4Pi/U7Eh1luaaLHrycFx69zFkKy4uErfJdfvCAv1dRarGQlSqFXRnztAE1XbJs3GgbtMYaoJmlSY9Z6yBahApQs32VK7+e0mxeNWaoIEl1Dp4ITTmIv6enpmiQ1WO8GAqrN1FwaBYZkDsXG8eF5OTyyF8DiYmEl9z3lxNUNOkXTFX7Tm16icahqfRFKFmOZVLf47ZDo7y+6rWBVGZSnSDA3Ze2XthgRZrdOrWm4fj4mBycj8rk9R9ukuFcxXNUmUTfHEL99W99n3jCqphniGq+kJ2afLzkmKpkBTLyNHzadQ9Kp7DFg7YuwLrwwKtbC4Q1braTm8eoBxMTi7HhMLBHLjfoQo0078YSywTDp91a17D2meMSBYNAkUgbYY/IRHZv53ehPv5F9LpxtBFYVF9zAH7yAt0rtUnzEJDvXlcTE4ux4TCwewZu6ZW1VaL9iqmXoc3zpF7ZtWzGoan0RQWyCpNjJNk81nclji8iXSsLoNquxSq7/ELfQ7V2NUrKELN3A3vCzHm71tvHtgcTC7umRuF5HQtnrsreYEKLuRotikH83yXh47XZ1G6NyGI1DlYWz907c2/MlSmgwUkxXwBAtXz8+7xl2hT4ULdmHrzcKwcTA7uewW/CT82bCxcoItNOZg4dptsmlRrgnriNua3b/q6DsPTQMACdtlUDl9cPUVqsP5/T3ockwmYkmy65fTFv4V0roa6DAsYFjAsYFjAsIBhAcMC/7cW+G/qV5HRDZZgxAAAAABJRU5ErkJggg==;" vertex="1" parent="1">
          <mxGeometry x="460" y="410" width="233" height="80" as="geometry" />
        </mxCell>
      </root>
    </mxGraphModel>
  </diagram>
</mxfile>
